<svg width="209" height="131" viewBox="0 0 209 131" fill="none" xmlns="http://www.w3.org/2000/svg">
<path d="M85.0448 19.2742C92.3584 18.304 96.5575 18.0864 104.182 18.1487V0C100.366 0.200223 98.324 0.527144 94.8171 1.40687C88.9156 3.1176 85.7539 4.52222 80.5658 8.01917C74.368 12.698 72.2691 15.5061 69.7077 20.681C69.4207 21.8946 69.7643 22.1239 71.065 21.9472C74.4865 20.8124 77.0424 20.2057 85.0448 19.2742Z" fill="#E4E1E1"/>
<path d="M123.182 19.2742C115.868 18.304 111.669 18.0864 104.044 18.1487V0C107.861 0.200223 109.903 0.527144 113.409 1.40687C119.311 3.1176 122.473 4.52222 127.661 8.01917C133.859 12.698 135.958 15.5061 138.519 20.681C138.806 21.8946 138.462 22.1239 137.162 21.9472C133.74 20.8124 131.184 20.2057 123.182 19.2742Z" fill="#E4E1E1"/>
<path d="M77.9742 24.6271C88.6771 23.3518 94.6511 22.9435 105.18 23.0061V32.1916C97.2492 31.9967 92.8277 32.0517 85.0834 32.5968C75.6058 33.0403 70.1515 33.3643 61.432 34.8931L45.983 38C44.7503 37.6329 44.5781 37.3875 44.6185 36.2439C45.6357 34.9932 46.4843 34.1163 47.897 33.4073C50.7797 31.8588 52.3938 31.0847 55.2796 29.8952C63.9286 26.8373 68.9408 25.8937 77.9742 24.6271Z" fill="#E4E1E1"/>
<path d="M132.252 24.6271C121.549 23.3518 115.575 22.9435 105.046 23.0061V32.1916C112.977 31.9967 117.399 32.0517 125.143 32.5968C134.621 33.0403 140.075 33.3643 148.795 34.8931L164.244 38C165.476 37.6329 165.648 37.3875 165.608 36.2439C164.591 34.9932 163.742 34.1163 162.33 33.4073C159.447 31.8588 157.833 31.0847 154.947 29.8952C146.298 26.8373 141.286 25.8937 132.252 24.6271Z" fill="#E4E1E1"/>
<path d="M105.581 54C120.311 52.6722 127.974 50.964 138.705 43.2459C139.801 42.4716 140.613 41.8033 140.613 41.0164C140.613 40.2295 139.919 39.9411 138.705 39.5738C129.064 38.3343 121.101 38.1245 105.581 38C89.405 38.028 81.9694 38.5021 70.6845 39.7049C68.2265 40.6782 67.7376 41.3194 70.4132 43.2459C81.0836 51.2315 89.0929 53.2056 105.581 54Z" fill="#E4E1E1"/>
<path d="M201.688 112.75C201.622 111.926 201.313 111.283 200.761 110.821C200.217 110.359 199.388 110.129 198.276 110.129C197.567 110.129 196.986 110.215 196.532 110.388C196.087 110.553 195.757 110.78 195.543 111.068C195.329 111.357 195.217 111.687 195.209 112.058C195.193 112.363 195.246 112.639 195.37 112.886C195.502 113.125 195.708 113.343 195.988 113.541C196.268 113.731 196.627 113.904 197.064 114.061C197.501 114.217 198.02 114.357 198.622 114.481L200.699 114.926C202.1 115.223 203.3 115.614 204.297 116.101C205.295 116.587 206.111 117.16 206.745 117.82C207.38 118.471 207.846 119.204 208.143 120.02C208.448 120.837 208.604 121.727 208.613 122.691C208.604 124.356 208.188 125.766 207.364 126.92C206.539 128.074 205.361 128.952 203.827 129.554C202.302 130.156 200.468 130.456 198.325 130.456C196.124 130.456 194.203 130.131 192.563 129.48C190.931 128.828 189.661 127.827 188.755 126.475C187.856 125.115 187.403 123.375 187.395 121.257H193.923C193.964 122.032 194.158 122.683 194.504 123.211C194.851 123.738 195.337 124.138 195.963 124.41C196.598 124.682 197.352 124.818 198.226 124.818C198.96 124.818 199.574 124.727 200.068 124.546C200.563 124.365 200.938 124.113 201.194 123.792C201.449 123.47 201.581 123.103 201.589 122.691C201.581 122.304 201.453 121.966 201.206 121.677C200.967 121.381 200.571 121.117 200.019 120.886C199.467 120.647 198.721 120.424 197.781 120.218L195.259 119.674C193.016 119.188 191.248 118.376 189.954 117.238C188.668 116.093 188.029 114.53 188.038 112.552C188.029 110.945 188.458 109.539 189.323 108.336C190.197 107.124 191.405 106.18 192.946 105.504C194.496 104.828 196.272 104.49 198.276 104.49C200.32 104.49 202.088 104.832 203.58 105.517C205.072 106.201 206.222 107.165 207.03 108.41C207.846 109.646 208.258 111.093 208.266 112.75H201.688Z" fill="#E4E1E1"/>
<path d="M177.587 113.195C177.48 112.758 177.311 112.375 177.08 112.045C176.849 111.707 176.561 111.423 176.215 111.192C175.877 110.953 175.481 110.776 175.028 110.66C174.582 110.537 174.092 110.475 173.556 110.475C172.402 110.475 171.417 110.751 170.601 111.303C169.793 111.856 169.175 112.651 168.746 113.69C168.326 114.728 168.116 115.981 168.116 117.449C168.116 118.932 168.318 120.202 168.722 121.257C169.125 122.312 169.727 123.12 170.527 123.68C171.326 124.241 172.32 124.521 173.507 124.521C174.554 124.521 175.423 124.369 176.116 124.064C176.816 123.759 177.34 123.326 177.686 122.765C178.032 122.205 178.205 121.545 178.205 120.787L179.392 120.911H173.606V116.014H184.833V119.526C184.833 121.834 184.342 123.808 183.361 125.449C182.389 127.081 181.045 128.334 179.331 129.208C177.624 130.073 175.666 130.506 173.457 130.506C170.993 130.506 168.829 129.982 166.966 128.936C165.103 127.889 163.648 126.397 162.601 124.459C161.562 122.522 161.043 120.218 161.043 117.547C161.043 115.454 161.36 113.599 161.995 111.983C162.638 110.368 163.528 109.003 164.666 107.891C165.803 106.769 167.118 105.925 168.61 105.356C170.102 104.779 171.701 104.49 173.408 104.49C174.908 104.49 176.301 104.705 177.587 105.133C178.881 105.554 180.023 106.155 181.012 106.938C182.01 107.713 182.813 108.632 183.423 109.696C184.033 110.759 184.404 111.926 184.536 113.195H177.587Z" fill="#E4E1E1"/>
<path d="M157.891 104.837V130.16H152.154L143.004 116.856H142.855V130.16H135.98V104.837H141.817L150.818 118.092H151.016V104.837H157.891Z" fill="#E4E1E1"/>
<path d="M132.723 104.837V130.16H125.848V104.837H132.723Z" fill="#E4E1E1"/>
<path d="M105.953 130.16V104.837H112.828V124.621H123.066V130.16H105.953Z" fill="#E4E1E1"/>
<path d="M83.1055 130.16V104.837H94.036C95.9154 104.837 97.56 105.208 98.9695 105.95C100.379 106.692 101.475 107.734 102.259 109.078C103.042 110.422 103.433 111.992 103.433 113.789C103.433 115.603 103.029 117.173 102.221 118.5C101.422 119.827 100.297 120.849 98.8459 121.567C97.4033 122.284 95.7176 122.642 93.7887 122.642H87.2601V117.301H92.4038C93.2117 117.301 93.9 117.161 94.4687 116.88C95.0458 116.592 95.4868 116.184 95.7918 115.656C96.105 115.129 96.2616 114.506 96.2616 113.789C96.2616 113.064 96.105 112.445 95.7918 111.934C95.4868 111.415 95.0458 111.019 94.4687 110.747C93.9 110.467 93.2117 110.327 92.4038 110.327H89.9803V130.16H83.1055Z" fill="#E4E1E1"/>
<path d="M50.6641 104.837H59.2205L65.1062 119.18H65.4029L71.2886 104.837H79.8451V130.16H73.1186V115.52H72.9207L67.2824 129.962H63.2267L57.5884 115.421H57.3905V130.16H50.6641V104.837Z" fill="#E4E1E1"/>
<path d="M40.5213 104.837H47.3962V121.06C47.3962 122.988 46.9346 124.658 46.0113 126.067C45.0963 127.469 43.8186 128.553 42.1782 129.319C40.5378 130.078 38.6336 130.457 36.4657 130.457C34.2812 130.457 32.3688 130.078 30.7284 129.319C29.088 128.553 27.8103 127.469 26.8953 126.067C25.9885 124.658 25.5352 122.988 25.5352 121.06V104.837H32.41V120.466C32.41 121.249 32.5831 121.95 32.9293 122.568C33.2755 123.178 33.7536 123.656 34.3636 124.002C34.9819 124.349 35.6826 124.522 36.4657 124.522C37.257 124.522 37.9577 124.349 38.5677 124.002C39.1777 123.656 39.6558 123.178 40.002 122.568C40.3482 121.95 40.5213 121.249 40.5213 120.466V104.837Z" fill="#E4E1E1"/>
<path d="M9.74348 130.16H0V104.837H9.64457C12.2494 104.837 14.4998 105.344 16.3958 106.358C18.2999 107.363 19.7672 108.814 20.7976 110.71C21.8363 112.598 22.3556 114.861 22.3556 117.498C22.3556 120.136 21.8404 122.403 20.81 124.299C19.7796 126.187 18.3206 127.638 16.4329 128.652C14.5452 129.657 12.3154 130.16 9.74348 130.16ZM6.87484 124.324H9.49619C10.7492 124.324 11.8167 124.122 12.6987 123.718C13.5889 123.314 14.2649 122.618 14.7265 121.628C15.1964 120.639 15.4313 119.263 15.4313 117.498C15.4313 115.734 15.1923 114.358 14.7141 113.369C14.2443 112.379 13.5519 111.683 12.6369 111.279C11.7301 110.875 10.6173 110.673 9.29835 110.673H6.87484V124.324Z" fill="#E4E1E1"/>
<path d="M175.994 72.1686H169.021C168.971 71.5915 168.839 71.0681 168.625 70.5982C168.419 70.1284 168.13 69.7245 167.759 69.3865C167.397 69.0403 166.956 68.7765 166.436 68.5951C165.917 68.4055 165.328 68.3107 164.668 68.3107C163.514 68.3107 162.537 68.591 161.738 69.1516C160.946 69.7121 160.345 70.5158 159.932 71.5627C159.529 72.6096 159.327 73.8667 159.327 75.334C159.327 76.8837 159.533 78.182 159.945 79.2289C160.365 80.2675 160.971 81.0506 161.762 81.5782C162.554 82.0975 163.506 82.3572 164.619 82.3572C165.253 82.3572 165.822 82.2789 166.325 82.1223C166.828 81.9574 167.265 81.7225 167.636 81.4175C168.007 81.1125 168.308 80.7456 168.538 80.317C168.777 79.8801 168.938 79.3896 169.021 78.8456L175.994 78.895C175.912 79.9667 175.611 81.0589 175.092 82.1717C174.572 83.2763 173.835 84.2985 172.878 85.2382C171.93 86.1697 170.756 86.9198 169.354 87.4886C167.953 88.0574 166.325 88.3418 164.47 88.3418C162.146 88.3418 160.06 87.8431 158.214 86.8456C156.376 85.8482 154.921 84.3809 153.849 82.4437C152.786 80.5066 152.254 78.1367 152.254 75.334C152.254 72.5148 152.798 70.1407 153.886 68.2118C154.974 66.2747 156.441 64.8115 158.288 63.8223C160.134 62.8249 162.195 62.3262 164.47 62.3262C166.07 62.3262 167.541 62.5446 168.885 62.9815C170.228 63.4184 171.407 64.0572 172.421 64.8981C173.435 65.7306 174.251 66.7569 174.869 67.9769C175.487 69.1969 175.862 70.5941 175.994 72.1686Z" fill="#E4E1E1"/>
<path d="M149.094 62.6729V87.996H142.219V62.6729H149.094Z" fill="#E4E1E1"/>
<path d="M109.781 62.6729H118.338L124.223 77.0161H124.52L130.406 62.6729H138.962V87.996H132.236V73.3561H132.038L126.4 87.7982H122.344L116.706 73.2571H116.508V87.996H109.781V62.6729Z" fill="#E4E1E1"/>
<path d="M100.239 70.5859C100.173 69.7616 99.864 69.1186 99.3117 68.657C98.7676 68.1953 97.9392 67.9645 96.8264 67.9645C96.1174 67.9645 95.5363 68.0511 95.0829 68.2242C94.6378 68.3891 94.3081 68.6157 94.0937 68.9043C93.8794 69.1928 93.7681 69.5225 93.7599 69.8934C93.7434 70.1984 93.797 70.4746 93.9206 70.7219C94.0525 70.9609 94.2586 71.1794 94.5389 71.3772C94.8191 71.5668 95.1777 71.7399 95.6146 71.8965C96.0515 72.0532 96.5708 72.1933 97.1726 72.317L99.2499 72.7621C100.651 73.0588 101.851 73.4504 102.848 73.9367C103.845 74.4231 104.662 74.996 105.296 75.6555C105.931 76.3067 106.397 77.0403 106.693 77.8564C106.998 78.6725 107.155 79.5627 107.163 80.5272C107.155 82.1923 106.739 83.6019 105.915 84.756C105.09 85.91 103.911 86.7879 102.378 87.3897C100.853 87.9914 99.0191 88.2923 96.8758 88.2923C94.6749 88.2923 92.7542 87.9667 91.1138 87.3155C89.4817 86.6643 88.2122 85.6627 87.3054 84.3108C86.4069 82.9507 85.9536 81.2114 85.9453 79.0929H92.4739C92.5152 79.8677 92.7089 80.519 93.0551 81.0465C93.4013 81.5741 93.8877 81.9739 94.5141 82.2459C95.1489 82.5179 95.9031 82.6539 96.7769 82.6539C97.5106 82.6539 98.1247 82.5633 98.6193 82.3819C99.1139 82.2006 99.4889 81.9492 99.7445 81.6277C100 81.3062 100.132 80.9394 100.14 80.5272C100.132 80.1398 100.004 79.8018 99.7568 79.5133C99.5178 79.2165 99.1221 78.9527 98.5698 78.7219C98.0175 78.4829 97.2715 78.2603 96.3318 78.0542L93.8094 77.5102C91.5672 77.0238 89.799 76.2119 88.5048 75.0743C87.2189 73.9285 86.58 72.3664 86.5883 70.388C86.58 68.7806 87.0087 67.3751 87.8742 66.1716C88.748 64.9599 89.9556 64.016 91.4971 63.3401C93.0469 62.6641 94.8233 62.3262 96.8264 62.3262C98.8707 62.3262 100.639 62.6683 102.131 63.3525C103.623 64.0366 104.773 65.0011 105.581 66.2458C106.397 67.4823 106.809 68.929 106.817 70.5859H100.239Z" fill="#E4E1E1"/>
<path d="M83.4081 75.334C83.4081 78.1532 82.8599 80.5313 81.7636 82.4685C80.6672 84.3974 79.1876 85.8606 77.3246 86.858C75.4616 87.8472 73.3843 88.3418 71.0927 88.3418C68.7846 88.3418 66.6991 87.8431 64.8361 86.8456C62.9814 85.84 61.5058 84.3727 60.4095 82.4437C59.3214 80.5066 58.7773 78.1367 58.7773 75.334C58.7773 72.5148 59.3214 70.1407 60.4095 68.2118C61.5058 66.2747 62.9814 64.8115 64.8361 63.8223C66.6991 62.8249 68.7846 62.3262 71.0927 62.3262C73.3843 62.3262 75.4616 62.8249 77.3246 63.8223C79.1876 64.8115 80.6672 66.2747 81.7636 68.2118C82.8599 70.1407 83.4081 72.5148 83.4081 75.334ZM76.3354 75.334C76.3354 73.8172 76.1334 72.5395 75.7295 71.5009C75.3338 70.454 74.7445 69.6626 73.9614 69.1268C73.1865 68.5828 72.2303 68.3107 71.0927 68.3107C69.9551 68.3107 68.9948 68.5828 68.2117 69.1268C67.4368 69.6626 66.8475 70.454 66.4435 71.5009C66.0479 72.5395 65.85 73.8172 65.85 75.334C65.85 76.8507 66.0479 78.1325 66.4435 79.1794C66.8475 80.2181 67.4368 81.0094 68.2117 81.5535C68.9948 82.0893 69.9551 82.3572 71.0927 82.3572C72.2303 82.3572 73.1865 82.0893 73.9614 81.5535C74.7445 81.0094 75.3338 80.2181 75.7295 79.1794C76.1334 78.1325 76.3354 76.8507 76.3354 75.334Z" fill="#E4E1E1"/>
<path d="M55.7561 72.1686H48.7823C48.7329 71.5915 48.601 71.0681 48.3867 70.5982C48.1806 70.1284 47.8921 69.7245 47.5211 69.3865C47.1584 69.0403 46.7174 68.7765 46.1981 68.5951C45.6788 68.4055 45.0894 68.3107 44.4299 68.3107C43.2759 68.3107 42.299 68.591 41.4994 69.1516C40.7081 69.7121 40.1063 70.5158 39.6942 71.5627C39.2903 72.6096 39.0883 73.8667 39.0883 75.334C39.0883 76.8837 39.2944 78.182 39.7065 79.2289C40.1269 80.2675 40.7328 81.0506 41.5242 81.5782C42.3155 82.0975 43.2676 82.3572 44.3805 82.3572C45.0152 82.3572 45.584 82.2789 46.0868 82.1223C46.5896 81.9574 47.0265 81.7225 47.3975 81.4175C47.7684 81.1125 48.0693 80.7456 48.3001 80.317C48.5392 79.8801 48.6999 79.3896 48.7823 78.8456L55.7561 78.895C55.6737 79.9667 55.3728 81.0589 54.8535 82.1717C54.3341 83.2763 53.5964 84.2985 52.6402 85.2382C51.6922 86.1697 50.5175 86.9198 49.1162 87.4886C47.7148 88.0574 46.0868 88.3418 44.2321 88.3418C41.9075 88.3418 39.822 87.8431 37.9755 86.8456C36.1372 85.8482 34.6823 84.3809 33.6107 82.4437C32.5473 80.5066 32.0156 78.1367 32.0156 75.334C32.0156 72.5148 32.5597 70.1407 33.6478 68.2118C34.7359 66.2747 36.2032 64.8115 38.0497 63.8223C39.8961 62.8249 41.9569 62.3262 44.2321 62.3262C45.8313 62.3262 47.3027 62.5446 48.6463 62.9815C49.99 63.4184 51.1687 64.0572 52.1827 64.8981C53.1966 65.7306 54.0127 66.7569 54.6309 67.9769C55.2491 69.1969 55.6242 70.5941 55.7561 72.1686Z" fill="#E4E1E1"/>
</svg>
