<svg width="551" height="91" viewBox="0 0 551 91" fill="none" xmlns="http://www.w3.org/2000/svg">
<g clip-path="url(#clip0_2959_3209)">
<path d="M103.098 32.1536C105.577 25.7918 107.064 22.747 110.336 18.6923C108.004 22.5526 107.007 24.6015 105.838 28.0289C104.256 32.5851 103.781 35.0338 103.607 39.2313C103.718 45.1332 104.227 48.4098 106.711 54.1401C108.697 57.6185 109.896 59.3822 112.322 61.8889C115.986 65.0232 118.191 66.3108 122.354 67.8896C127.723 69.936 134.724 68.7419 137.143 68.1141C137.145 68.9638 130.653 71.4439 125.251 72.2064C128.115 74.2461 130.037 74.4414 134.008 74.8447L134.035 74.8474C137.935 74.8734 140.54 74.713 144.771 73.2336C148.507 71.7537 150.021 70.4642 153.026 68.1141C147.313 73.0539 143.883 74.7114 137.429 76.0125C130.949 76.6395 127.19 76.4681 119.779 73.2336C115.234 70.5587 112.894 68.8288 109.312 65.0855C105.19 59.8538 103.767 56.758 102.247 51.0491C100.973 44.3959 101.355 40.1709 103.098 32.1536Z" fill="#E4E1E1"/>
<path d="M112.583 73.4459C107.211 69.372 104.947 66.9547 102.368 62.4257C105.192 65.868 106.77 67.4692 109.569 69.6777C113.282 72.6412 115.398 73.8804 119.234 75.4029C124.743 77.2097 127.946 77.7917 134.064 77.3113C137.932 76.5696 139.956 76.0135 143.066 74.5441C147.158 72.1132 149.066 70.4571 151.878 67.0536C154.477 63.9078 155.477 61.9794 156.663 58.3226C156.944 61.9159 156.871 63.4922 156.331 65.5269C159.156 63.4901 160.445 61.9419 162.112 58.3226C163.399 54.6634 163.819 52.4267 163.817 47.9695C163.655 43.977 163.223 41.8709 162.017 38.2843C164.747 45.2563 165.174 49.0175 164.291 55.5077C162.774 61.8041 161.398 65.2835 156 71.2044C152.048 74.6125 149.686 76.2529 145.055 78.4086C138.87 80.5913 135.538 80.9273 129.752 80.5079C123.026 79.643 119.264 77.8013 112.583 73.4459Z" fill="#E4E1E1"/>
<path d="M133.278 10.1958C139.927 9.30726 143.253 9.14433 148.301 10.0512C143.871 9.86973 141.634 9.98261 138.132 10.6065C133.462 11.4101 131.133 12.1694 127.446 14.0281C122.432 16.9505 119.862 18.9629 116.132 23.8694C114.097 27.2645 113.157 29.1526 112.166 32.4648C111.23 37.156 111.18 39.6918 111.818 44.0723C112.102 48.4135 116.511 54.2073 118.782 57.1916L118.808 57.2253C115.723 55.4739 109.746 48.1652 108.764 46.1088C108.383 49.5864 109.876 55.2173 111.438 58.8837C113.284 62.292 114.656 64.1009 117.952 67.0758C115.305 65.235 113.861 64.1286 111.655 61.4697C108.014 56.1283 106.361 52.7733 105.589 44.7729C105.709 39.5347 106.482 36.2862 107.981 31.3757C110.499 25.2813 112.475 22.5597 116.648 18.503C121.751 14.2083 125.56 12.5171 133.278 10.1958Z" fill="#E4E1E1"/>
<path d="M168.148 29.4701C171.548 34.8986 172.75 37.8836 173.505 42.8492C172.122 38.8253 171.244 36.8651 169.475 33.9517C167.141 30.0571 165.661 28.5843 162.739 25.9354C158.417 22.4706 155.749 20.8745 150.125 19.248C146.423 18.6106 144.388 18.5509 141.123 18.8186C136.662 19.6148 134.453 19.9842 130.814 22.0796C127.086 23.8445 123.513 29.8029 121.673 32.8719L121.652 32.9066C122.122 29.5396 126.484 21.652 127.955 20.0579C124.757 20.9281 120.313 24.2233 117.625 26.896C115.263 29.7322 114.146 31.5887 112.671 35.5708C113.372 32.5636 113.844 30.8875 115.42 27.9903C118.861 22.8756 121.244 20.23 128.028 16.7551C132.687 15.0388 135.82 14.5988 140.67 14.2291C146.919 14.358 150.006 15.1773 155.035 17.496C160.757 20.5074 163.789 23.251 168.148 29.4701Z" fill="#E4E1E1"/>
<path d="M162.184 71.9484C157.725 76.8491 155.318 79.0885 150.941 81.6163C154.397 78.934 156.014 77.4257 158.264 74.7267C161.283 71.1493 162.564 69.0942 164.179 65.3461C166.128 59.9511 166.804 56.7982 166.539 50.7234C165.944 46.8671 165.469 44.8445 164.138 41.7156C161.9 37.5809 160.347 35.6363 157.117 32.7376C154.132 30.0588 153.131 29.8014 149.599 28.5047C153.118 28.347 153.806 27.6739 155.775 28.2759C153.88 25.4101 152.411 24.0825 148.932 22.3104C145.402 20.9134 143.231 20.4219 138.878 20.2749C134.974 20.3023 132.902 20.6593 129.359 21.734C136.259 19.2628 139.947 18.9661 146.256 20.0578C152.355 21.7704 156.083 22.9602 161.685 28.5047C164.881 32.5327 166.652 35.1053 168.602 39.7634C170.527 45.9628 170.12 49.3842 169.517 55.1002C168.362 61.5865 166.549 65.2864 162.184 71.9484Z" fill="#E4E1E1"/>
<path fill-rule="evenodd" clip-rule="evenodd" d="M71.2878 13.6182C77.7919 13.208 83.2403 15.4026 87.6332 20.2022C92.3502 26.1521 93.456 32.7362 90.9497 39.9542C90.3707 41.4379 89.6449 42.8375 88.7703 44.1527C84.169 50.5989 79.6055 57.0716 75.0781 63.5708C80.7321 63.6185 86.3853 63.6345 92.0394 63.6185C92.0394 67.817 92.0394 72.0155 92.0394 76.214C78.3945 76.2458 64.7496 76.214 51.1048 76.1186C60.407 62.6643 69.7082 49.21 79.0104 35.7557C80.3541 32.438 79.6434 29.6548 76.8784 27.4064C74.1362 25.7261 71.483 25.8533 68.9189 27.7881C67.4142 29.1323 66.6249 30.8181 66.55 32.8454C62.3807 32.8931 58.2115 32.9091 54.0422 32.8931C54.2563 24.9668 57.8258 19.162 64.7496 15.4789C66.8447 14.5145 69.0241 13.8942 71.2878 13.6182Z" fill="#E4E1E1"/>
<path fill-rule="evenodd" clip-rule="evenodd" d="M0.410156 17.8166C5.05321 17.8166 9.69626 17.8166 14.3393 17.8166C14.3393 25.4502 14.3393 33.0839 14.3393 40.7175C20.1826 40.7175 26.0259 40.7175 31.8692 40.7175C31.8692 33.0839 31.8692 25.4502 31.8692 17.8166C36.5122 17.8166 41.1553 17.8166 45.7983 17.8166C45.7983 37.2824 45.7983 56.7482 45.7983 76.2139C41.1553 76.2139 36.5122 76.2139 31.8692 76.2139C31.8692 68.5803 31.8692 60.9467 31.8692 53.313C26.0259 53.313 20.1826 53.313 14.3393 53.313C14.3393 60.9467 14.3393 68.5803 14.3393 76.2139C9.69626 76.2139 5.05321 76.2139 0.410156 76.2139C0.410156 56.7482 0.410156 37.2824 0.410156 17.8166Z" fill="#E4E1E1"/>
</g>
<path fill-rule="evenodd" clip-rule="evenodd" d="M341.159 30.9961C346.925 30.1505 351.633 31.9478 355.283 36.3866C358.067 40.6906 358.688 45.2944 357.144 50.1997C354.058 56.9732 348.788 59.9212 341.328 59.0435C335.562 58.1322 331.756 54.903 329.91 49.3575C328.239 42.6716 330.127 37.2525 335.577 33.1018C337.28 31.9479 339.141 31.2454 341.159 30.9961ZM342.85 33.186C349.21 33.0916 353.297 36.0682 355.114 42.114C356.208 47.55 354.546 51.9028 350.124 55.1691C346.34 57.2141 342.449 57.4382 338.452 55.8429C333.376 52.9472 331.262 48.5961 332.109 42.7878C332.894 38.7753 335.122 35.8829 338.791 34.1125C340.135 33.6593 341.489 33.3511 342.85 33.186Z" fill="#E4E1E1"/>
<path fill-rule="evenodd" clip-rule="evenodd" d="M491.704 30.996C497.877 29.9617 502.698 31.9831 506.167 37.0603C506.368 37.3197 506.424 37.601 506.336 37.9025C505.813 38.1485 505.335 38.4567 504.898 38.829C504.673 38.9419 504.447 38.9419 504.222 38.829C502.063 35.0405 498.709 33.1589 494.157 33.1858C488.107 33.4739 484.216 36.5061 482.486 42.2823C481.562 47.6526 483.281 51.9482 487.645 55.169C491.819 57.3892 496.048 57.5021 500.331 55.5059C502.029 54.4059 503.325 52.974 504.222 51.2103C504.871 51.404 505.492 51.6854 506.082 52.0526C506.236 52.1924 506.35 52.3609 506.421 52.558C502.395 58.6037 496.813 60.6538 489.675 58.7065C484.7 57.0658 481.515 53.7237 480.117 48.6835C478.649 41.0813 481.327 35.4937 488.152 31.9224C489.324 31.476 490.508 31.1678 491.704 30.996Z" fill="#E4E1E1"/>
<path fill-rule="evenodd" clip-rule="evenodd" d="M240.682 31.1645C244.799 31.1358 248.915 31.1645 253.031 31.2487C258.075 32.7867 260.415 36.1827 260.05 41.4401C259.2 45.8687 256.522 48.4241 252.016 49.1047C249.084 49.1889 246.152 49.2176 243.22 49.1889C243.248 52.3895 243.22 55.5901 243.135 58.7908C242.346 59.0148 241.556 59.0148 240.767 58.7908C240.682 49.5814 240.654 40.3738 240.682 31.1645ZM243.22 33.3543C245.701 33.3257 248.182 33.3543 250.662 33.4386C255.865 33.9591 258.092 36.7942 257.344 41.9455C256.334 45.077 254.164 46.7329 250.832 46.9148C248.295 46.999 245.758 47.0277 243.22 46.999C243.22 42.4508 243.22 37.9026 243.22 33.3543Z" fill="#E4E1E1"/>
<path fill-rule="evenodd" clip-rule="evenodd" d="M286.354 31.1645C290.301 31.1358 294.248 31.1645 298.194 31.2487C302.588 32.256 304.9 35.0069 305.13 39.5029C304.792 43.8827 302.48 46.6352 298.194 47.7571C296.229 47.9626 294.256 48.0755 292.274 48.094C296.641 51.6433 301.039 55.1539 305.468 58.6223C305.432 58.7217 305.376 58.8059 305.299 58.875C304.096 59.03 302.912 58.9744 301.746 58.7065C297.489 55.2532 293.233 51.8 288.975 48.3467C288.947 51.8286 288.863 55.3105 288.722 58.7908C287.944 58.9491 287.154 59.0064 286.354 58.9592C286.354 49.6943 286.354 40.4294 286.354 31.1645ZM288.891 33.3543C291.716 33.292 294.535 33.3762 297.348 33.607C301.307 34.5504 302.97 37.0485 302.338 41.1032C301.594 43.5845 299.931 45.072 297.348 45.5672C294.478 45.8266 291.603 45.8839 288.722 45.7357C288.89 41.6203 288.946 37.4932 288.891 33.3543Z" fill="#E4E1E1"/>
<path fill-rule="evenodd" clip-rule="evenodd" d="M383.616 31.1645C387.852 31.0904 392.08 31.1746 396.303 31.4172C401.402 32.9029 404.701 36.1878 406.198 41.2717C407.602 48.7224 404.98 54.2527 398.332 57.8643C397.394 58.213 396.434 58.4943 395.457 58.7066C391.531 59.0014 387.611 59.03 383.701 58.7908C383.616 49.5815 383.587 40.3738 383.616 31.1645ZM386.153 33.3544C389.034 33.2971 391.91 33.3814 394.78 33.6071C400.699 35.0844 403.799 38.8746 404.084 44.9776C404.034 48.5842 402.681 51.5878 400.024 53.9899C398.469 55.1859 396.72 55.9709 394.78 56.3482C391.91 56.5773 389.034 56.6616 386.153 56.6009C386.153 48.8521 386.153 41.1032 386.153 33.3544Z" fill="#E4E1E1"/>
<path fill-rule="evenodd" clip-rule="evenodd" d="M432.332 31.1646C433.178 31.1646 434.023 31.1646 434.869 31.1646C434.84 37.1161 434.869 43.0692 434.954 49.0207C435.74 55.245 439.264 57.7988 445.526 56.6853C448.251 56.217 450.027 54.6739 450.854 52.0528C451.104 51.2257 451.274 50.3834 451.362 49.526C451.446 43.4061 451.475 37.2845 451.446 31.1646C452.292 31.1646 453.138 31.1646 453.983 31.1646C454.012 37.5103 453.983 43.8542 453.899 50.1998C452.923 56.2254 449.371 59.202 443.242 59.1278C436.914 59.1161 433.305 55.971 432.417 49.6945C432.332 43.5173 432.303 37.3418 432.332 31.1646Z" fill="#E4E1E1"/>
<path fill-rule="evenodd" clip-rule="evenodd" d="M530.102 31.1646C536.981 31.1646 543.859 31.1646 550.739 31.1646C550.739 31.894 550.739 32.6251 550.739 33.3545C547.75 33.3545 544.763 33.3545 541.774 33.3545C541.802 41.8328 541.774 50.3127 541.689 58.7909C540.899 59.015 540.111 59.015 539.321 58.7909C539.236 50.3127 539.208 41.8328 539.236 33.3545C536.192 33.3545 533.147 33.3545 530.102 33.3545C530.102 32.6251 530.102 31.894 530.102 31.1646Z" fill="#E4E1E1"/>
<path fill-rule="evenodd" clip-rule="evenodd" d="M341.159 30.9961C346.925 30.1505 351.633 31.9478 355.283 36.3866C358.067 40.6906 358.688 45.2944 357.144 50.1997C354.058 56.9732 348.788 59.9212 341.328 59.0435C335.562 58.1322 331.756 54.903 329.91 49.3575C328.239 42.6716 330.127 37.2525 335.577 33.1018C337.28 31.9479 339.141 31.2454 341.159 30.9961ZM342.85 33.186C349.21 33.0916 353.297 36.0682 355.114 42.114C356.208 47.55 354.546 51.9028 350.124 55.1691C346.34 57.2141 342.449 57.4382 338.452 55.8429C333.376 52.9472 331.262 48.5961 332.109 42.7878C332.894 38.7753 335.122 35.8829 338.791 34.1125C340.135 33.6593 341.489 33.3511 342.85 33.186Z" fill="#E4E1E1"/>
<path fill-rule="evenodd" clip-rule="evenodd" d="M491.704 30.996C497.877 29.9617 502.698 31.9831 506.167 37.0603C506.368 37.3197 506.424 37.601 506.336 37.9025C505.813 38.1485 505.335 38.4567 504.898 38.829C504.673 38.9419 504.447 38.9419 504.222 38.829C502.063 35.0405 498.709 33.1589 494.157 33.1858C488.107 33.4739 484.216 36.5061 482.486 42.2823C481.562 47.6526 483.281 51.9482 487.645 55.169C491.819 57.3892 496.048 57.5021 500.331 55.5059C502.029 54.4059 503.325 52.974 504.222 51.2103C504.871 51.404 505.492 51.6854 506.082 52.0526C506.236 52.1924 506.35 52.3609 506.421 52.558C502.395 58.6037 496.813 60.6538 489.675 58.7065C484.7 57.0658 481.515 53.7237 480.117 48.6835C478.649 41.0813 481.327 35.4937 488.152 31.9224C489.324 31.476 490.508 31.1678 491.704 30.996Z" fill="#E4E1E1"/>
<path fill-rule="evenodd" clip-rule="evenodd" d="M240.682 31.1645C244.799 31.1358 248.915 31.1645 253.031 31.2487C258.075 32.7867 260.415 36.1827 260.05 41.4401C259.2 45.8687 256.522 48.4241 252.016 49.1047C249.084 49.1889 246.152 49.2176 243.22 49.1889C243.248 52.3895 243.22 55.5901 243.135 58.7908C242.346 59.0148 241.556 59.0148 240.767 58.7908C240.682 49.5814 240.654 40.3738 240.682 31.1645ZM243.22 33.3543C245.701 33.3257 248.182 33.3543 250.662 33.4386C255.865 33.9591 258.092 36.7942 257.344 41.9455C256.334 45.077 254.164 46.7329 250.832 46.9148C248.295 46.999 245.758 47.0277 243.22 46.999C243.22 42.4508 243.22 37.9026 243.22 33.3543Z" fill="#E4E1E1"/>
<path fill-rule="evenodd" clip-rule="evenodd" d="M286.354 31.1645C290.301 31.1358 294.248 31.1645 298.194 31.2487C302.588 32.256 304.9 35.0069 305.13 39.5029C304.792 43.8827 302.48 46.6352 298.194 47.7571C296.229 47.9626 294.256 48.0755 292.274 48.094C296.641 51.6433 301.039 55.1539 305.468 58.6223C305.432 58.7217 305.376 58.8059 305.299 58.875C304.096 59.03 302.912 58.9744 301.746 58.7065C297.489 55.2532 293.233 51.8 288.975 48.3467C288.947 51.8286 288.863 55.3105 288.722 58.7908C287.944 58.9491 287.154 59.0064 286.354 58.9592C286.354 49.6943 286.354 40.4294 286.354 31.1645ZM288.891 33.3543C291.716 33.292 294.535 33.3762 297.348 33.607C301.307 34.5504 302.97 37.0485 302.338 41.1032C301.594 43.5845 299.931 45.072 297.348 45.5672C294.478 45.8266 291.603 45.8839 288.722 45.7357C288.89 41.6203 288.946 37.4932 288.891 33.3543Z" fill="#E4E1E1"/>
<path fill-rule="evenodd" clip-rule="evenodd" d="M383.616 31.1645C387.852 31.0904 392.08 31.1746 396.303 31.4172C401.402 32.9029 404.701 36.1878 406.198 41.2717C407.602 48.7224 404.98 54.2527 398.332 57.8643C397.394 58.213 396.434 58.4943 395.457 58.7066C391.531 59.0014 387.611 59.03 383.701 58.7908C383.616 49.5815 383.587 40.3738 383.616 31.1645ZM386.153 33.3544C389.034 33.2971 391.91 33.3814 394.78 33.6071C400.699 35.0844 403.799 38.8746 404.084 44.9776C404.034 48.5842 402.681 51.5878 400.024 53.9899C398.469 55.1859 396.72 55.9709 394.78 56.3482C391.91 56.5773 389.034 56.6616 386.153 56.6009C386.153 48.8521 386.153 41.1032 386.153 33.3544Z" fill="#E4E1E1"/>
<path fill-rule="evenodd" clip-rule="evenodd" d="M432.332 31.1646C433.178 31.1646 434.023 31.1646 434.869 31.1646C434.84 37.1161 434.869 43.0692 434.954 49.0207C435.74 55.245 439.264 57.7988 445.526 56.6853C448.251 56.217 450.027 54.6739 450.854 52.0528C451.104 51.2257 451.274 50.3834 451.362 49.526C451.446 43.4061 451.475 37.2845 451.446 31.1646C452.292 31.1646 453.138 31.1646 453.983 31.1646C454.012 37.5103 453.983 43.8542 453.899 50.1998C452.923 56.2254 449.371 59.202 443.242 59.1278C436.914 59.1161 433.305 55.971 432.417 49.6945C432.332 43.5173 432.303 37.3418 432.332 31.1646Z" fill="#E4E1E1"/>
<path fill-rule="evenodd" clip-rule="evenodd" d="M530.102 31.1646C536.981 31.1646 543.859 31.1646 550.739 31.1646C550.739 31.894 550.739 32.6251 550.739 33.3545C547.75 33.3545 544.763 33.3545 541.774 33.3545C541.802 41.8328 541.774 50.3127 541.689 58.7909C540.899 59.015 540.111 59.015 539.321 58.7909C539.236 50.3127 539.208 41.8328 539.236 33.3545C536.192 33.3545 533.147 33.3545 530.102 33.3545C530.102 32.6251 530.102 31.894 530.102 31.1646Z" fill="#E4E1E1"/>
<rect x="205.836" width="2.73187" height="90.1516" fill="#E4E1E1"/>
<defs>
<clipPath id="clip0_2959_3209">
<rect width="173.473" height="73.0774" fill="white" transform="translate(0.265625 8.87891)"/>
</clipPath>
</defs>
</svg>
