<svg width="257" height="106" viewBox="0 0 257 106" fill="none" xmlns="http://www.w3.org/2000/svg">
<mask id="mask0_2959_1741" style="mask-type:luminance" maskUnits="userSpaceOnUse" x="0" y="0" width="257" height="106">
<path d="M0.695312 0H256.24V106H0.695312V0Z" fill="white"/>
</mask>
<g mask="url(#mask0_2959_1741)">
<path fill-rule="evenodd" clip-rule="evenodd" d="M27.3677 47.6814C21.8604 45.6444 18.8422 44.0601 18.8422 41.5704C18.8422 39.4575 20.5776 38.2506 23.6711 38.2506C29.3294 38.2506 35.1383 40.4387 39.1371 42.3999L41.4004 28.4429C38.2318 26.9339 31.7433 24.4442 22.7657 24.4442C16.4283 24.4442 11.1468 26.1038 7.37495 29.1972C3.45143 32.4412 1.41442 37.1189 1.41442 42.7773C1.41442 53.0376 7.67654 57.4138 17.8616 61.1104C24.4253 63.449 26.6134 65.1092 26.6134 67.6741C26.6134 70.1638 24.5006 71.5971 20.6529 71.5971C15.8999 71.5971 8.05395 69.2585 2.92351 66.2409L0.660156 80.3489C5.03578 82.8386 13.1838 85.4035 21.6341 85.4035C28.3483 85.4035 33.9314 83.8192 37.7038 80.8016C41.9284 77.4818 44.1165 72.5783 44.1165 66.2409C44.1165 55.7536 37.7038 51.378 27.3677 47.6814ZM80.9621 39.4575L83.2255 25.5758H71.2767V8.72408L55.2114 11.3677L52.8915 25.5758L47.241 26.4925L45.1259 39.4575H52.8683V66.6935C52.8683 73.7852 54.679 78.6893 58.3756 81.7069C61.469 84.1966 65.9199 85.4035 72.182 85.4035C77.0103 85.4035 79.9526 84.574 81.9897 84.0455V69.3337C80.858 69.6359 78.293 70.1638 76.5576 70.1638C72.861 70.1638 71.2767 68.2779 71.2767 63.9775V39.4575H80.9621ZM116.845 24.765C111.564 24.765 107.339 27.5376 105.68 32.517L104.548 25.5758H88.1765V84.2718H106.887V46.1723C109.226 43.3052 112.545 42.2686 117.072 42.2686C118.053 42.2686 119.109 42.2686 120.391 42.4949V25.2177C119.109 24.9161 117.977 24.765 116.845 24.765ZM134.349 19.7664C139.781 19.7664 144.157 15.3155 144.157 9.88348C144.157 4.37562 139.781 0 134.349 0C128.841 0 124.465 4.37562 124.465 9.88348C124.465 15.3155 128.841 19.7664 134.349 19.7664ZM124.918 25.5758H143.704V84.2718H124.918V25.5758ZM196.94 30.8568C193.62 26.5564 189.018 24.4442 183.133 24.4442C177.701 24.4442 172.948 26.7075 168.497 31.4606L167.516 25.5758H151.069V106L169.779 102.907V84.0455C172.646 84.9508 175.588 85.4035 178.229 85.4035C182.907 85.4035 189.697 84.1966 194.978 78.463C200.032 72.9551 202.598 64.4302 202.598 53.1887C202.598 43.23 200.711 35.6857 196.94 30.8568ZM181.398 67.0704C179.889 69.9375 177.55 71.4466 174.834 71.4466C172.948 71.4466 171.288 71.0692 169.779 70.3149V42.3999C172.948 39.0807 175.815 38.7033 176.871 38.7033C181.624 38.7033 183.963 43.8337 183.963 53.8677C183.963 59.6013 183.133 64.0528 181.398 67.0704ZM256.239 54.3956C256.239 45.0407 254.202 37.6469 250.203 32.4412C246.129 27.1602 240.018 24.4442 232.248 24.4442C216.329 24.4442 206.446 36.2136 206.446 55.0746C206.446 65.6371 209.086 73.5589 214.292 78.6135C218.969 83.1402 225.684 85.4035 234.36 85.4035C242.357 85.4035 249.751 83.5176 254.429 80.4242L252.392 67.5989C247.789 70.0886 242.433 71.4466 236.397 71.4466C232.776 71.4466 230.286 70.6918 228.475 69.1074C226.514 67.4478 225.382 64.7318 225.005 60.8841H256.013C256.088 59.9788 256.239 55.7537 256.239 54.3956ZM224.854 49.4163C225.382 41.0419 227.645 37.1189 231.946 37.1189C236.171 37.1189 238.359 41.1177 238.66 49.4163H224.854Z" fill="#E4E1E1"/>
</g>
</svg>
