<svg width="391" height="63" viewBox="0 0 391 63" fill="none" xmlns="http://www.w3.org/2000/svg">
<path d="M206.293 0H249.673V10.6141H218.011V25.6861H248.792V35.9393H218.011V51.2661H249.673V61.8802H206.293V0ZM369.474 62.9947C382.774 62.9947 390.267 56.6262 390.267 47.8802C390.267 41.6497 385.831 37.0008 376.543 34.9841L366.725 32.978C361.025 31.9166 359.232 30.8552 359.232 28.7324C359.232 25.9833 361.981 24.2957 367.044 24.2957C372.531 24.2957 376.596 25.771 377.658 30.8446H389.163C388.537 21.2919 381.67 14.9871 367.744 14.9871C355.708 14.9871 347.259 19.9545 347.259 29.5815C347.259 36.2365 351.908 40.5671 361.938 42.6793L372.913 45.2161C377.244 46.0652 378.401 47.2328 378.401 49.0265C378.401 51.8817 375.132 53.6755 369.846 53.6755C363.201 53.6755 359.401 52.2002 357.926 47.1266H346.357C348.044 56.6581 355.113 62.9947 369.474 62.9947ZM343.013 61.8378H330.563C322.751 61.8378 318.42 56.9765 318.42 50.8415V26.5353H309.664V16.1759H318.463V3.17362H330.032V16.1759H343.013V26.5353H330.032V47.8802C330.032 50.3108 331.72 51.4784 334.363 51.4784H343.013V61.8378ZM293.127 16.1971V20.3154C289.054 16.872 283.888 14.9908 278.554 15.0083C275.36 14.9412 272.186 15.5121 269.216 16.6877C266.246 17.8633 263.541 19.6199 261.259 21.8545C258.977 24.0892 257.164 26.7568 255.926 29.7012C254.688 32.6457 254.051 35.8075 254.051 39.0015C254.051 42.1955 254.688 45.3574 255.926 48.3018C257.164 51.2462 258.977 53.9139 261.259 56.1485C263.541 58.3831 266.246 60.1397 269.216 61.3153C272.186 62.4909 275.36 63.0619 278.554 62.9947C283.889 63.0178 289.056 61.1359 293.127 57.6876V61.8165H304.664V16.1759L293.127 16.1971ZM279.509 52.975C276.741 53.0066 274.027 52.2146 271.711 50.6998C269.394 49.1849 267.581 47.0156 266.5 44.4676C265.419 41.9195 265.121 39.1077 265.642 36.3895C266.163 33.6713 267.481 31.1694 269.428 29.2019C271.374 27.2343 273.862 25.8899 276.574 25.3396C279.287 24.7892 282.102 25.0576 284.661 26.1108C287.221 27.1641 289.409 28.9544 290.949 31.2545C292.488 33.5545 293.309 36.2603 293.307 39.0281C293.324 40.8526 292.979 42.6623 292.292 44.3525C291.605 46.0427 290.589 47.5798 289.304 48.8749C288.019 50.17 286.489 51.1974 284.804 51.8975C283.119 52.5976 281.312 52.9566 279.488 52.9538L279.509 52.975Z" fill="#E4E1E1" fill-opacity="0.54"/>
<path d="M180.544 24.7415C174.738 24.7415 170.62 29.2843 170.62 36.2578V61.8377H161.757V16.8127H170.514V22.3108C171.594 20.4886 173.142 18.9883 174.997 17.9656C176.852 16.9429 178.947 16.4349 181.064 16.4943H184.248V24.7415H180.544ZM155.633 39.3252C155.633 25.8984 146.08 15.8575 133.152 15.8575C130.097 15.8782 127.077 16.5027 124.265 17.6951C121.453 18.8874 118.904 20.6241 116.765 22.8051C114.626 24.9862 112.94 27.5685 111.803 30.4037C110.666 33.2389 110.101 36.2709 110.141 39.3252C110.141 52.7415 120.489 62.8885 133.99 62.8885C137.762 62.9598 141.495 62.1234 144.875 60.4498C148.256 58.7762 151.184 56.3145 153.414 53.2722L146.982 48.5595C145.506 50.6191 143.554 52.2906 141.291 53.4311C139.029 54.5716 136.524 55.1471 133.99 55.1084C130.382 55.0914 126.9 53.7823 124.174 51.4184C121.448 49.0546 119.658 45.7923 119.131 42.2229H155.654L155.633 39.3252ZM119.322 35.1964C120.903 28.329 126.391 23.6801 133.046 23.6801C139.701 23.6801 145.178 28.329 146.664 35.1964H119.322ZM82.0663 15.8575C79.1044 15.86 76.1724 16.4494 73.4397 17.5916C70.707 18.7339 68.2277 20.4064 66.1452 22.5125V0H57.2824V61.8377H66.039V56.1274C70.2812 60.4188 76.0534 62.8506 82.0875 62.8885C85.2177 62.9551 88.3296 62.396 91.2408 61.2441C94.1521 60.0922 96.8041 58.3707 99.0413 56.1805C101.279 53.9903 103.056 51.3755 104.269 48.4893C105.483 45.6032 106.108 42.5039 106.108 39.373C106.108 36.2422 105.483 33.1428 104.269 30.2567C103.056 27.3706 101.279 24.7557 99.0413 22.5655C96.8041 20.3753 94.1521 18.6538 91.2408 17.5019C88.3296 16.35 85.2177 15.791 82.0875 15.8575H82.0663ZM81.4295 54.9704C78.3403 54.9851 75.3163 54.0818 72.7413 52.3752C70.1663 50.6685 68.1563 48.2354 66.9663 45.3845C65.7763 42.5337 65.4601 39.3936 66.0576 36.3627C66.6551 33.3318 68.1395 30.5467 70.3224 28.3607C72.5054 26.1748 75.2884 24.6866 78.3185 24.085C81.3486 23.4833 84.4891 23.7953 87.3416 24.9814C90.1941 26.1674 92.63 28.1741 94.3401 30.7468C96.0503 33.3194 96.9578 36.3422 96.9473 39.4314C96.9501 41.469 96.5505 43.4871 95.7714 45.3699C94.9922 47.2527 93.849 48.9631 92.4072 50.4029C90.9654 51.8427 89.2534 52.9836 87.3696 53.7602C85.4857 54.5367 83.4671 54.9336 81.4295 54.928V54.9704ZM24.644 54.5459C33.199 54.5459 39.8434 47.9864 39.8434 38.1577V0H49.0246V61.8377H39.9495V55.9894C37.8293 58.1807 35.2866 59.9191 32.4752 61.0994C29.6639 62.2798 26.6423 62.8776 23.5932 62.8567C10.3999 62.8567 0.242188 53.2403 0.242188 38.6566V0H9.59321V38.2108C9.59321 48.0925 15.9617 54.5459 24.644 54.5459Z" fill="#E4E1E1"/>
</svg>
