<svg width="142" height="20" viewBox="0 0 142 20" fill="none" xmlns="http://www.w3.org/2000/svg">
<path d="M10.9853 0.416314L17.735 0.416313L23.3877 9.62763H21.1187L16.6004 2.19579H14.647L18.8494 9.62763H12.087L6.43909 0.416314L8.7082 0.416314L13.2215 7.77694H15.3024L10.9853 0.416314Z" fill="white"/>
<path d="M8.70826 15.8822L12.087 10.3675H23.3877L22.2531 12.2183H13.2216L12.0483 14.0956L21.1185 14.0689L17.7348 19.5836H6.43909L7.57365 17.7282H16.6002L17.7388 15.8758L8.70826 15.8822Z" fill="white"/>
<path d="M3.38373 15.5119L0 9.99731L5.65284 0.786003L6.7874 2.63201L2.27407 9.99731L3.43012 11.8823L7.92195 4.4875L11.3007 9.99742L5.65284 19.2134L4.51831 17.358L9.03159 9.99742L7.914 8.08984L3.38373 15.5119Z" fill="white"/>
<path d="M37.17 7.91893C37.17 8.45507 38.7516 8.52777 40.7988 8.61864C44.4373 8.79141 49.5506 9.02767 49.541 12.0903C49.541 15.58 45.2718 16.4071 40.6921 16.4071C36.1221 16.398 32.3284 15.88 31.8433 12.0903H37.17C37.7522 13.0354 39.1008 13.2808 40.6921 13.2808C42.2737 13.2808 44.2142 13.0354 44.2142 12.0903C44.2142 11.5541 42.6327 11.4723 40.5853 11.3815C36.9469 11.2088 31.8335 10.9724 31.8433 7.91893C31.8433 4.42914 36.1125 3.59301 40.6921 3.59301C45.262 3.62027 49.0557 4.102 49.541 7.91893H44.2142C43.632 6.95558 42.2833 6.7284 40.6921 6.7284C39.1106 6.7284 37.17 6.9465 37.17 7.91893Z" fill="white"/>
<path d="M59.0498 7.44645L57.2548 11.0545H60.835L59.0498 7.44645ZM49.0269 16.1256L56.0225 3.91122H62.0672L69.0629 16.1256H63.3383L62.3098 14.0353H55.7799L54.7514 16.1256H49.0269Z" fill="white"/>
<path d="M74.1463 13.2174H80.9867C81.4233 13.2174 81.7823 12.8085 81.7823 12.3995C81.7823 11.9905 81.4233 11.5816 80.9867 11.5816H74.1463V13.2174ZM80.0359 6.8104H74.1463V8.45529H80.0359C80.4725 8.45529 80.8315 8.03728 80.8315 7.62836C80.8315 7.21933 80.4725 6.8104 80.0359 6.8104ZM84.0916 9.80938C85.566 10.2548 86.5557 11.309 86.5557 12.8448C86.5853 14.9805 84.664 16.1256 82.4227 16.1256H69.0618L69.0621 3.91128H81.4621C83.7228 3.90219 85.6339 5.05637 85.6054 7.18298C85.6054 8.35533 85.0231 9.25507 84.0916 9.80938Z" fill="white"/>
<path d="M92.4483 7.91893C92.4483 8.45507 94.0304 8.52777 96.0766 8.61864C99.7159 8.79141 104.829 9.02767 104.819 12.0903C104.819 15.58 100.55 16.4071 95.9704 16.4071C91.4006 16.398 87.607 15.88 87.122 12.0903H92.4483C93.0308 13.0354 94.3796 13.2808 95.9704 13.2808C97.5525 13.2808 99.4925 13.0354 99.4925 12.0903C99.4925 11.5541 97.9105 11.4723 95.8631 11.3815C92.225 11.2088 87.1121 10.9724 87.122 7.91893C87.122 4.42914 91.3907 3.59301 95.9704 3.59301C100.54 3.62027 104.334 4.102 104.819 7.91893H99.4925C98.9101 6.95558 97.5612 6.7284 95.9704 6.7284C94.3884 6.7284 92.4483 6.9465 92.4483 7.91893Z" fill="white"/>
<path d="M118.15 10.1542V3.89251H123.244V10.4541C123.264 15.0708 119.227 16.3976 114.337 16.4067C109.447 16.3976 105.41 15.0708 105.43 10.4541V3.89251H110.515V10.1542C110.495 12.1626 112.251 12.508 114.337 12.5353C116.414 12.508 118.18 12.1626 118.15 10.1542Z" fill="white"/>
<path d="M129.629 7.91893C129.629 8.45507 131.21 8.52777 133.257 8.61864C136.895 8.79141 142.009 9.02767 141.999 12.0903C141.999 15.58 137.731 16.4071 133.151 16.4071C128.581 16.398 124.786 15.88 124.301 12.0903H129.629C130.21 13.0354 131.559 13.2808 133.151 13.2808C134.732 13.2808 136.673 13.0354 136.673 12.0903C136.673 11.5541 135.091 11.4723 133.044 11.3815C129.406 11.2088 124.292 10.9724 124.301 7.91893C124.301 4.42914 128.571 3.59301 133.151 3.59301C137.721 3.62027 141.514 4.102 141.999 7.91893H136.673C136.091 6.95558 134.742 6.7284 133.151 6.7284C131.569 6.7284 129.629 6.9465 129.629 7.91893Z" fill="white"/>
</svg>
