<svg width="81" height="21" viewBox="0 0 81 21" fill="none" xmlns="http://www.w3.org/2000/svg">
<g clip-path="url(#clip0_537_67384)">
<path d="M12.2274 16.3261C15.4492 16.3261 18.1167 13.6528 18.1167 10.4368C18.1167 7.21499 15.4434 4.54749 12.2217 4.54749C9.00564 4.54749 6.33813 7.21499 6.33813 10.4368C6.33813 13.6528 9.01141 16.3261 12.2274 16.3261ZM12.2274 15.3445C9.50219 15.3445 7.32546 13.162 7.32546 10.4368C7.32546 7.71154 9.49641 5.52903 12.2217 5.52903C14.9469 5.52903 17.1294 7.71154 17.1352 10.4368C17.1409 13.162 14.9527 15.3445 12.2274 15.3445ZM12.2274 7.49791C11.9792 7.49791 11.7944 7.67689 11.7944 7.93094V10.8179L11.8406 12.0361L11.2632 11.3433L10.5761 10.6504C10.4953 10.5754 10.3914 10.5234 10.2701 10.5234C10.0334 10.5234 9.85439 10.7081 9.85439 10.9391C9.85439 11.0604 9.88903 11.1643 9.96409 11.2393L11.8925 13.162C12.008 13.2775 12.1062 13.3237 12.2274 13.3237C12.3545 13.3237 12.4584 13.2717 12.5681 13.162L14.4908 11.2393C14.5658 11.1643 14.612 11.0604 14.612 10.9391C14.612 10.7081 14.4273 10.5234 14.1905 10.5234C14.0635 10.5234 13.9596 10.5696 13.8845 10.6504L13.2032 11.3433L12.6143 12.0419L12.6605 10.8179V7.93094C12.6605 7.67689 12.4815 7.49791 12.2274 7.49791Z" fill="#999C9F"/>
<path d="M40.746 12.0072C40.9943 12.0072 41.2022 11.7993 41.2022 11.5568V5.62712L41.1675 4.76105L41.5602 5.17099L42.432 6.10635C42.5128 6.19873 42.6341 6.24492 42.7438 6.24492C42.9863 6.24492 43.1653 6.0717 43.1653 5.83498C43.1653 5.71373 43.1191 5.62135 43.0325 5.53474L41.0809 3.65248C40.9655 3.537 40.8615 3.49658 40.746 3.49658C40.6306 3.49658 40.5266 3.537 40.4112 3.65248L38.4596 5.53474C38.373 5.62135 38.321 5.71373 38.321 5.83498C38.321 6.0717 38.5 6.24492 38.7368 6.24492C38.8522 6.24492 38.9735 6.19873 39.0543 6.10635L39.9319 5.17099L40.3246 4.76105L40.2841 5.62712V11.5568C40.2841 11.7993 40.4978 12.0072 40.746 12.0072ZM37.4319 16.5281H44.0544C45.2612 16.5281 45.8674 15.9276 45.8674 14.7382V8.97593C45.8674 7.78653 45.2612 7.18605 44.0544 7.18605H42.4435V8.11564H44.0371C44.6087 8.11564 44.9378 8.42742 44.9378 9.0279V14.6862C44.9378 15.2867 44.6087 15.5985 44.0371 15.5985H37.4434C36.866 15.5985 36.5485 15.2867 36.5485 14.6862V9.0279C36.5485 8.42742 36.866 8.11564 37.4434 8.11564H39.0428V7.18605H37.4319C36.2251 7.18605 35.6189 7.78653 35.6189 8.97593V14.7382C35.6189 15.9276 36.2251 16.5281 37.4319 16.5281Z" fill="#999C9F"/>
<path d="M64.9689 13.8201H65.9562V14.7035C65.9562 15.8929 66.5567 16.4934 67.7692 16.4934H73.5661C74.767 16.4934 75.3733 15.8929 75.3733 14.7035V8.86038C75.3733 7.67097 74.767 7.07049 73.5661 7.07049H72.573V6.1871C72.573 4.99769 71.9667 4.39722 70.7658 4.39722H64.9689C63.7564 4.39722 63.1559 4.99769 63.1559 6.1871V12.0302C63.1559 13.2196 63.7564 13.8201 64.9689 13.8201ZM64.9804 12.8905C64.403 12.8905 64.0855 12.5787 64.0855 11.9782V6.23906C64.0855 5.63859 64.403 5.3268 64.9804 5.3268H70.7485C71.3201 5.3268 71.6434 5.63859 71.6434 6.23906V7.07049H67.7692C66.5567 7.07049 65.9562 7.6652 65.9562 8.86038V12.8905H64.9804ZM67.7807 15.5638C67.2091 15.5638 66.8858 15.252 66.8858 14.6515V8.91234C66.8858 8.31187 67.2091 8.00008 67.7807 8.00008H73.5488C74.1204 8.00008 74.4437 8.31187 74.4437 8.91234V14.6515C74.4437 15.252 74.1204 15.5638 73.5488 15.5638H67.7807Z" fill="#999C9F"/>
</g>
<defs>
<clipPath id="clip0_537_67384">
<rect width="79.9911" height="19.4761" fill="white" transform="translate(0.750488 0.693848)"/>
</clipPath>
</defs>
</svg>
