<svg width="381" height="108" viewBox="0 0 381 108" fill="none" xmlns="http://www.w3.org/2000/svg">
<path d="M12.9753 77.073C13.4326 76.9797 13.9044 76.9758 14.3632 77.0615C15.2898 77.2349 16.1081 77.7636 16.6385 78.5307C17.169 79.2977 17.3686 80.2406 17.1923 81.152L17.1849 81.1832C17.1286 81.5665 17.1051 81.9545 17.114 82.3415C17.1014 83.1957 17.2756 84.0424 17.6256 84.8246C18.0135 85.5816 18.5615 86.2485 19.2328 86.78C19.4682 86.9778 19.7167 87.1598 19.9763 87.3256L20.1645 87.4408L20.1896 87.4548C21.0031 87.9057 21.6038 88.6533 21.8618 89.5359C22.1197 90.4186 22.0138 91.3658 21.5679 92.1727C21.1221 92.9795 20.3718 93.5815 19.4787 93.8489C18.5853 94.1159 17.6206 94.0266 16.7936 93.6005L18.479 90.5191C16.7937 93.6041 16.7898 93.6001 16.7862 93.5969L16.7759 93.5933L16.7545 93.5829L16.7013 93.5517C15.9747 93.1368 15.2869 92.6587 14.646 92.1242C13.5686 91.2287 12.1533 89.7983 11.1968 87.8184C10.2404 85.8317 10.0201 83.8278 10.0023 82.4287C9.99153 81.8379 10.0183 81.2467 10.0835 80.6591C10.1095 80.419 10.1441 80.1792 10.1869 79.9416L10.2009 79.8616L10.2046 79.8508V79.8444C10.3809 78.933 10.9182 78.1272 11.6981 77.6053C12.0842 77.3473 12.5182 77.1664 12.9753 77.073Z" fill="#E4E1E1"/>
<path d="M51.5214 14.1511C52.4146 13.8841 53.3787 13.9734 54.2059 14.3995L52.5203 17.4814C54.2059 14.3964 54.2096 14.3996 54.2133 14.4031L54.2235 14.4068L54.2448 14.4169L54.298 14.4489C55.0247 14.8639 55.7124 15.3414 56.3535 15.8758C57.431 16.7712 58.8469 18.2016 59.8032 20.1813C60.7596 22.1678 60.9802 24.1719 60.9978 25.571C61.0084 26.1619 60.9809 26.7531 60.9159 27.3407C60.8899 27.5808 60.8554 27.8203 60.8124 28.0581L60.8022 28.1177L60.7985 28.1387L60.7948 28.1489V28.1562C60.6183 29.0675 60.081 29.8725 59.3012 30.3942C58.9151 30.6525 58.4813 30.8339 58.0241 30.9272C57.5668 31.0206 57.0948 31.024 56.6361 30.9381C55.7098 30.7646 54.8915 30.2361 54.3608 29.4691C53.8305 28.702 53.6316 27.7589 53.8077 26.8476L53.8147 26.8163C53.8709 26.4331 53.8951 26.0459 53.8863 25.6588C53.8987 24.8045 53.7241 23.9573 53.374 23.1753C52.986 22.4184 52.4378 21.752 51.7665 21.2204C51.5313 21.0229 51.2829 20.8402 51.023 20.6744L50.8348 20.5589L50.8098 20.5451C49.9966 20.0943 49.3965 19.3465 49.1385 18.4639C48.8806 17.5813 48.9855 16.634 49.4314 15.8272C49.8773 15.0204 50.6281 14.4183 51.5214 14.1511Z" fill="#E4E1E1"/>
<path fill-rule="evenodd" clip-rule="evenodd" d="M38.3052 1.1915C43.0297 -0.322418 48.0949 -0.395388 52.8604 0.982532C57.6263 2.36048 61.8777 5.12753 65.0784 8.93297C68.2788 12.7384 70.2844 17.4117 70.8413 22.3621C71.3983 27.3126 70.4818 32.3181 68.2073 36.7454C64.7657 43.4341 55.5695 52.8138 41.1043 56.2785C39.6871 56.6177 38.4568 56.8685 37.3942 57.0432C35.5461 59.9037 33.6182 62.8556 36.0893 63.8541C50.9898 69.8731 53.8164 87.0012 44.6827 98.5119C41.5915 102.408 37.4199 105.295 32.6955 106.808C27.9709 108.323 22.9056 108.395 18.14 107.017C13.3744 105.64 9.12284 102.872 5.92223 99.0671C2.72167 95.2614 0.715502 90.5884 0.158586 85.6378C-0.398312 80.6872 0.51892 75.6819 2.79336 71.2546C6.23501 64.5659 15.431 55.1858 29.8965 51.7215C31.3132 51.3822 32.543 51.1307 33.6056 50.956C35.4537 48.0959 37.3822 45.144 34.9113 44.1455C20.011 38.1269 17.1837 20.9995 26.3173 9.48874C29.4085 5.59306 33.5806 2.70549 38.3052 1.1915ZM29.4148 57.9576C19.0621 61.4469 11.3456 70.0155 9.04309 74.4971C7.40653 77.6831 6.74748 81.2848 7.14839 84.8474C7.54937 88.4099 8.99277 91.7732 11.2961 94.5116C13.5997 97.2496 16.6598 99.2407 20.0894 100.232C23.5191 101.223 27.1645 101.171 30.5643 100.081C36.9345 98.0386 43.3127 91.4318 43.0595 84.3291C42.4587 67.5032 22.006 70.611 29.4148 57.9576ZM50.9111 7.76784C47.4814 6.7766 43.8362 6.82969 40.4363 7.91962C34.0661 9.96191 27.6876 16.5687 27.9412 23.6717C28.5419 40.4974 48.9943 37.3894 41.585 50.0431C51.9374 46.5538 59.6541 37.9852 61.9568 33.5036C63.5935 30.3176 64.2531 26.7151 63.8521 23.1525C63.4512 19.59 62.008 16.2269 59.7045 13.4885C57.401 10.7501 54.3407 8.75912 50.9111 7.76784Z" fill="#E4E1E1"/>
<path d="M363.301 35.544C366.7 35.544 369.712 36.3841 372.332 38.0639C375.002 39.7441 377.116 42.0719 378.67 45.0481C380.223 47.976 381 51.3599 381 55.2001C381 59.0399 380.223 62.4481 378.67 65.4242C377.116 68.4 375.028 70.7521 372.405 72.4801C369.785 74.1599 366.821 75 363.52 75C361.675 75 359.927 74.7122 358.276 74.136C356.625 73.5119 355.168 72.744 353.906 71.8321C352.643 70.8721 351.599 69.8642 350.773 68.8081C349.997 67.752 349.511 66.7681 349.317 65.8562L351.283 64.9201V71.1841C351.283 72.192 350.919 73.056 350.191 73.7761C349.511 74.448 348.661 74.784 347.642 74.784C346.573 74.784 345.699 74.448 345.02 73.7761C344.34 73.1042 344 72.2402 344 71.1841V24.672C344 23.616 344.34 22.752 345.02 22.08C345.699 21.36 346.573 21 347.642 21C348.661 21 349.511 21.36 350.191 22.08C350.919 22.752 351.283 23.616 351.283 24.672V44.9042L350.118 44.2562C350.264 43.344 350.725 42.4079 351.502 41.4482C352.279 40.4399 353.25 39.4799 354.415 38.568C355.629 37.6558 356.989 36.9361 358.494 36.408C360.048 35.832 361.65 35.544 363.301 35.544ZM362.5 42.1679C360.169 42.1679 358.13 42.7442 356.382 43.8959C354.682 45.0481 353.347 46.6079 352.376 48.5762C351.405 50.4959 350.919 52.7041 350.919 55.2001C350.919 57.696 351.405 59.9521 352.376 61.9682C353.347 63.9361 354.682 65.496 356.382 66.6481C358.13 67.8002 360.169 68.3761 362.5 68.3761C364.781 68.3761 366.774 67.8002 368.474 66.6481C370.174 65.496 371.507 63.9122 372.478 61.8961C373.497 59.88 374.01 57.6482 374.01 55.2001C374.01 52.7041 373.497 50.4959 372.478 48.5762C371.507 46.6079 370.174 45.0481 368.474 43.8959C366.774 42.7442 364.781 42.1679 362.5 42.1679Z" fill="#E4E1E1"/>
<path d="M332.38 36C333.394 36 334.238 36.3644 334.914 37.0935C335.638 37.7737 336 38.6485 336 39.7177V58.8895C336 63.9436 334.6 67.9047 331.801 70.7719C329.002 73.5906 325.044 75 319.928 75C314.86 75 310.926 73.5906 308.127 70.7719C305.375 67.9047 304 63.9436 304 58.8895V39.7177C304 38.6485 304.338 37.7737 305.014 37.0935C305.689 36.3644 306.558 36 307.62 36C308.633 36 309.478 36.3644 310.154 37.0935C310.878 37.7737 311.24 38.6485 311.24 39.7177V58.8895C311.24 62.0484 311.964 64.4056 313.412 65.9607C314.908 67.5157 317.08 68.2932 319.928 68.2932C322.824 68.2932 325.02 67.5157 326.516 65.9607C328.012 64.4056 328.76 62.0484 328.76 58.8895V39.7177C328.76 38.6485 329.098 37.7737 329.774 37.0935C330.45 36.3644 331.318 36 332.38 36Z" fill="#E4E1E1"/>
<path d="M282.229 35.6824C285.567 35.6824 288.155 36.3987 289.993 37.8311C291.831 39.2158 293.113 41.1016 293.839 43.4893C294.613 45.8766 295 48.5025 295 51.3675V70.3473C295 71.3975 294.637 72.2811 293.912 72.9971C293.234 73.6654 292.388 74 291.372 74C290.308 74 289.437 73.6654 288.76 72.9971C288.083 72.2811 287.744 71.3975 287.744 70.3473V51.3675C287.744 49.6962 287.502 48.1683 287.018 46.7836C286.583 45.3989 285.784 44.3008 284.623 43.4893C283.511 42.6774 281.939 42.2715 279.907 42.2715C278.021 42.2715 276.327 42.6774 274.827 43.4893C273.376 44.3008 272.24 45.3989 271.417 46.7836C270.643 48.1683 270.256 49.6962 270.256 51.3675V70.3473C270.256 71.3975 269.893 72.2811 269.168 72.9971C268.49 73.6654 267.644 74 266.628 74C265.564 74 264.693 73.6654 264.016 72.9971C263.339 72.2811 263 71.3975 263 70.3473V24.6527C263 23.6022 263.339 22.7428 264.016 22.0743C264.693 21.3581 265.564 21 266.628 21C267.644 21 268.49 21.3581 269.168 22.0743C269.893 22.7428 270.256 23.6022 270.256 24.6527V44.2052L268.95 44.9216C269.289 43.871 269.845 42.7967 270.619 41.6986C271.441 40.6005 272.433 39.5976 273.594 38.6905C274.803 37.7831 276.134 37.0671 277.585 36.5419C279.036 35.9689 280.584 35.6824 282.229 35.6824Z" fill="#E4E1E1"/>
<path d="M250.457 35.292C251.496 35.292 252.347 35.6569 253.008 36.387C253.67 37.0681 254 37.9441 254 39.0147V70.5477C254 71.6183 253.67 72.5185 253.008 73.2482C252.347 73.9297 251.496 74.2703 250.457 74.2703C249.465 74.2703 248.614 73.9297 247.905 73.2482C247.244 72.5185 246.913 71.6183 246.913 70.5477V65.2922L248.402 65.5112C248.402 66.3871 248.047 67.3604 247.339 68.4306C246.677 69.5013 245.756 70.5477 244.575 71.5695C243.394 72.5427 242 73.3702 240.394 74.0513C238.787 74.684 237.063 75 235.22 75C231.96 75 229.031 74.1487 226.433 72.4454C223.835 70.6935 221.779 68.309 220.268 65.2922C218.756 62.275 218 58.8444 218 55.0002C218 51.0585 218.756 47.6034 220.268 44.635C221.779 41.6182 223.811 39.2579 226.362 37.5546C228.96 35.8516 231.842 35 235.008 35C237.039 35 238.906 35.3407 240.606 36.0217C242.354 36.7033 243.866 37.5792 245.142 38.6495C246.417 39.7201 247.386 40.8639 248.047 42.0804C248.756 43.248 249.11 44.3676 249.11 45.4378L246.913 45.6568V39.0147C246.913 37.9926 247.244 37.1166 247.905 36.387C248.614 35.6569 249.465 35.292 250.457 35.292ZM236 68.2848C238.22 68.2848 240.181 67.7009 241.882 66.5329C243.583 65.3649 244.906 63.7836 245.85 61.7885C246.795 59.7446 247.268 57.4817 247.268 55.0002C247.268 52.4698 246.795 50.2069 245.85 48.2118C244.906 46.2168 243.583 44.635 241.882 43.467C240.181 42.2994 238.22 41.7152 236 41.7152C233.827 41.7152 231.89 42.2994 230.189 43.467C228.535 44.635 227.213 46.2168 226.221 48.2118C225.276 50.2069 224.803 52.4698 224.803 55.0002C224.803 57.4817 225.276 59.7446 226.221 61.7885C227.213 63.7836 228.535 65.3649 230.189 66.5329C231.89 67.7009 233.827 68.2848 236 68.2848Z" fill="#E4E1E1"/>
<path d="M207.38 36C208.394 36 209.238 36.3644 209.914 37.0935C210.638 37.7737 211 38.6485 211 39.7177V58.8895C211 63.9436 209.6 67.9047 206.801 70.7719C204.002 73.5906 200.044 75 194.928 75C189.86 75 185.926 73.5906 183.127 70.7719C180.375 67.9047 179 63.9436 179 58.8895V39.7177C179 38.6485 179.338 37.7737 180.014 37.0935C180.689 36.3644 181.558 36 182.62 36C183.633 36 184.478 36.3644 185.154 37.0935C185.878 37.7737 186.24 38.6485 186.24 39.7177V58.8895C186.24 62.0484 186.964 64.4056 188.412 65.9607C189.908 67.5157 192.08 68.2932 194.928 68.2932C197.824 68.2932 200.02 67.5157 201.516 65.9607C203.012 64.4056 203.76 62.0484 203.76 58.8895V39.7177C203.76 38.6485 204.098 37.7737 204.774 37.0935C205.45 36.3644 206.318 36 207.38 36Z" fill="#E4E1E1"/>
<path d="M166.457 35.7317C167.496 35.7317 168.346 36.0975 169.008 36.8294C169.669 37.5122 170 38.3902 170 39.4635V85.2683C170 86.3415 169.669 87.2196 169.008 87.9024C168.346 88.6343 167.496 89 166.457 89C165.465 89 164.614 88.6343 163.905 87.9024C163.244 87.2196 162.913 86.3415 162.913 85.2683V65.366L164.402 65.4389C164.402 66.3169 164.047 67.3173 163.339 68.4391C162.677 69.5124 161.756 70.561 160.575 71.5852C159.394 72.6099 158 73.4636 156.394 74.1465C154.787 74.7807 153.063 75.0974 151.221 75.0974C147.961 75.0974 145.032 74.2441 142.433 72.5366C139.835 70.7805 137.78 68.4148 136.268 65.4389C134.756 62.4147 134 58.9511 134 55.0489C134 51.1463 134.756 47.7074 136.268 44.7318C137.78 41.7072 139.811 39.3416 142.362 37.6341C144.961 35.878 147.843 35 151.008 35C152.992 35 154.835 35.3415 156.536 36.0242C158.284 36.7074 159.795 37.5855 161.071 38.6584C162.347 39.7316 163.339 40.8782 164.047 42.0977C164.756 43.2681 165.11 44.3904 165.11 45.4633L162.913 45.6828V39.4635C162.913 38.4389 163.244 37.5608 163.905 36.8294C164.614 36.0975 165.465 35.7317 166.457 35.7317ZM152 68.3658C154.268 68.3658 156.229 67.7806 157.882 66.6097C159.583 65.4389 160.905 63.8537 161.85 61.8538C162.795 59.8538 163.268 57.5854 163.268 55.0489C163.268 52.5123 162.795 50.2439 161.85 48.244C160.905 46.2441 159.583 44.6585 157.882 43.4877C156.181 42.3172 154.221 41.7316 152 41.7316C149.827 41.7316 147.89 42.3172 146.189 43.4877C144.535 44.6585 143.213 46.2441 142.22 48.244C141.276 50.2439 140.803 52.5123 140.803 55.0489C140.803 57.5854 141.276 59.8538 142.22 61.8538C143.213 63.8537 144.535 65.4389 146.189 66.6097C147.89 67.7806 149.827 68.3658 152 68.3658Z" fill="#E4E1E1"/>
<path d="M123.358 35.292C124.427 35.292 125.3 35.6569 125.98 36.387C126.66 37.0681 127 37.9441 127 39.0147V70.5477C127 71.6183 126.66 72.5185 125.98 73.2482C125.3 73.9297 124.427 74.2703 123.358 74.2703C122.339 74.2703 121.465 73.9297 120.736 73.2482C120.057 72.5185 119.717 71.6183 119.717 70.5477V65.2922L121.246 65.5112C121.246 66.3871 120.882 67.3604 120.154 68.4306C119.474 69.5013 118.527 70.5477 117.313 71.5695C116.099 72.5427 114.667 73.3702 113.016 74.0513C111.365 74.684 109.593 75 107.699 75C104.348 75 101.338 74.1487 98.6676 72.4454C95.9967 70.6935 93.8846 68.309 92.3308 65.2922C90.7771 62.275 90 58.8444 90 55.0002C90 51.0585 90.7771 47.6034 92.3308 44.635C93.8846 41.6182 95.9726 39.2579 98.5947 37.5546C101.265 35.8516 104.227 35 107.48 35C109.568 35 111.486 35.3407 113.234 36.0217C115.031 36.7033 116.585 37.5792 117.896 38.6495C119.207 39.7201 120.202 40.8639 120.882 42.0804C121.61 43.248 121.975 44.3676 121.975 45.4378L119.717 45.6568V39.0147C119.717 37.9926 120.057 37.1166 120.736 36.387C121.465 35.6569 122.339 35.292 123.358 35.292ZM108.5 68.2848C110.782 68.2848 112.797 67.7009 114.545 66.5329C116.293 65.3649 117.653 63.7836 118.624 61.7885C119.595 59.7446 120.081 57.4817 120.081 55.0002C120.081 52.4698 119.595 50.2069 118.624 48.2118C117.653 46.2168 116.293 44.635 114.545 43.467C112.797 42.2994 110.782 41.7152 108.5 41.7152C106.266 41.7152 104.276 42.2994 102.528 43.467C100.828 44.635 99.4685 46.2168 98.4488 48.2118C97.478 50.2069 96.9922 52.4698 96.9922 55.0002C96.9922 57.4817 97.478 59.7446 98.4488 61.7885C99.4685 63.7836 100.828 65.3649 102.528 66.5329C104.276 67.7009 106.266 68.2848 108.5 68.2848Z" fill="#E4E1E1"/>
</svg>
