<svg width="369" height="154" viewBox="0 0 369 154" fill="none" xmlns="http://www.w3.org/2000/svg">
<path fill-rule="evenodd" clip-rule="evenodd" d="M114.947 76.9735V153.695H116.132H117.317V76.9735V0.250977H116.132H114.947V76.9735ZM57.3528 31.2279C56.4651 32.1156 57.1153 33.2702 58.3966 33.0802C59.4313 32.9275 59.7841 32.1009 59.1248 31.3715C58.4633 30.6421 57.9782 30.6025 57.3528 31.2279ZM37.2025 32.517C37.1098 32.6674 36.6427 32.8766 36.1644 32.9807C32.4587 33.7949 31.2622 40.3062 34.2669 43.3108C37.4479 46.4919 44.7418 44.9449 44.7418 41.0899C44.7418 40.8049 44.8752 40.4905 45.038 40.3899C45.9665 39.8154 44.7135 35.4753 43.2276 34.1149C41.7077 32.724 37.7272 31.6689 37.2025 32.517ZM64.1887 32.9694C62.9041 34.159 63.7454 36.3901 65.4778 36.3901C67.2238 36.3901 68.0381 34.1997 66.7399 32.9954C65.7255 32.0545 65.1816 32.0489 64.1887 32.9694ZM21.0191 37.5628C19.8646 37.9122 19.0006 38.7558 18.2056 40.3051C15.6805 45.2333 22.3015 50.0461 26.2685 46.1662C27.8007 44.6667 27.9523 44.3535 27.9692 42.647C28.0066 38.887 24.6796 36.4535 21.0191 37.5628ZM53.1405 37.6024C50.3744 38.4042 49.0695 43.0847 50.9455 45.4707C54.0474 49.4139 60.146 47.4203 60.146 42.4627C60.146 38.6756 56.9921 36.4874 53.1405 37.6024ZM73.1234 38.1463C71.4611 39.4592 71.1173 40.8354 72.0265 42.5407C73.8878 46.0271 78.6645 44.7436 78.4315 40.8196C78.263 37.9801 75.2539 36.4648 73.1234 38.1463ZM202.123 39.5124C185.043 41.7084 175.992 59.7226 183.82 75.9365C190.168 89.0836 209.67 92.7203 222.106 83.0743C224.09 81.5364 224.144 81.7377 220.872 78.4786L218.083 75.7013L216.651 76.7439C203.236 86.5064 186.063 75.457 190.036 59.6175C192.897 48.2107 207.132 43.4929 216.384 50.8852L217.549 51.8147L219.166 50.2496C223.816 45.7489 223.552 46.4478 221.292 44.6136C217.869 41.8374 214.066 40.2157 209.325 39.5124C205.836 38.9944 206.15 38.9944 202.123 39.5124ZM304.53 54.9494V69.9544L303.908 69.2431C303.566 68.8507 298.267 62.163 292.133 54.3806L280.981 40.2305L277.425 40.3096L273.871 40.3899V63.7914V87.1928L278.241 87.2742L282.61 87.3568V71.4765C282.61 62.1494 282.72 55.6369 282.877 55.6946C283.121 55.7851 293.658 69.1413 298.291 75.2343C299.36 76.6399 301.901 79.934 303.938 82.5553L307.64 87.3206L310.38 87.3308L313.121 87.341V63.6432V39.9455H308.825H304.53V54.9494ZM131.832 54.4247C131.832 69.9442 132.076 72.8776 133.695 76.7925C139.677 91.2525 163.781 92.4795 170.73 78.6776C173.07 74.0322 173.357 71.178 173.243 53.719L173.155 40.3899L168.934 40.3073L164.713 40.2248L164.711 54.6746C164.71 70.357 164.603 71.7445 163.19 74.5354C159.002 82.8007 145.817 82.4761 141.838 74.0107C140.638 71.4539 140.424 68.3848 140.424 53.6455L140.423 40.2418H136.127H131.832V54.4247ZM229.289 63.7914V87.3455L246.841 87.2697L264.391 87.1928L264.474 83.1229L264.556 79.0531L251.293 78.9762L238.028 78.8981L237.948 73.3446L237.867 67.79H250.759H263.652V63.7914V59.7916H250.766H237.88V54.1668V48.5421L251.136 48.4652L264.391 48.3871V44.3885V40.3899L246.841 40.313L229.289 40.2372V63.7914ZM337.644 41.2041C336.952 42.5532 335.209 46.3788 334.279 48.5862C333.544 50.3322 333.171 51.1599 330.858 56.1639C330.351 57.2631 328.9 60.4961 327.633 63.3469C326.368 66.1978 324.902 69.4636 324.376 70.6046C323.852 71.7445 322.624 74.4777 321.65 76.6772C320.676 78.8767 319.57 81.3419 319.194 82.1572C317.899 84.9572 316.972 87.0628 316.972 87.2019C316.972 87.2788 319.104 87.341 321.711 87.341C324.855 87.341 326.45 87.2347 326.45 87.0266C326.45 86.8536 326.958 85.6209 327.579 84.2866C328.2 82.9522 329.033 81.0965 329.431 80.1624L330.154 78.4639L342.745 78.4594L355.336 78.4537L356.039 80.0098C356.424 80.8647 357.072 82.2974 357.477 83.1942C357.882 84.0898 358.477 85.3891 358.799 86.0823L359.385 87.341H363.95C367.027 87.341 368.514 87.2369 368.514 87.0198C368.514 86.6862 367.436 84.1554 365.641 80.2744C365.065 79.0293 363.797 76.2124 362.825 74.0163C361.852 71.8191 360.657 69.1538 360.168 68.0919C359.681 67.0301 359.041 65.6278 358.748 64.9765C358.454 64.324 357.733 62.7533 357.143 61.4845C356.555 60.2157 356.073 59.1154 356.073 59.0407C356.073 58.9661 355.658 58.0049 355.15 56.9046C354.31 55.0862 353.87 54.1148 352.23 50.4611C351.937 49.8097 351.24 48.2763 350.681 47.055C350.121 45.8326 349.215 43.7994 348.668 42.5373L347.672 40.2418H342.905H338.139L337.644 41.2041ZM10.3124 47.5696C7.86642 47.9179 6.90182 51.5546 8.76091 53.4137C11.7079 56.3607 16.4087 52.768 14.2455 49.2206C13.4245 47.8726 12.0969 47.3162 10.3124 47.5696ZM65.7187 47.6193C62.2052 48.3939 62.3748 54.0843 65.9223 54.4654C68.3841 54.7289 70.06 53.1785 69.8643 50.8196C69.6642 48.4075 67.9939 47.1184 65.7187 47.6193ZM81.5854 47.8206C77.2396 49.9647 77.623 55.8337 82.2142 57.4474C86.0466 58.7942 89.8405 54.9505 88.5774 51.0016C87.641 48.0705 84.2271 46.5179 81.5854 47.8206ZM37.4976 49.5259C37.0917 49.8233 37.0046 50.1298 37.155 50.7291C37.4287 51.8181 39.2029 51.7683 39.359 50.6669C39.5411 49.38 38.5391 48.7648 37.4976 49.5259ZM345.249 55.0523C346.337 57.5774 347.618 60.4837 348.096 61.5082C348.573 62.5339 348.964 63.4419 348.964 63.5267C348.964 63.6104 349.31 64.4382 349.733 65.3643C351.078 68.3079 351.283 68.8089 351.49 69.6412L351.694 70.4565H342.941C338.126 70.4565 334.124 70.3536 334.046 70.2281C333.929 70.0381 335.595 65.9953 338.287 59.9397C338.832 58.715 339.476 57.2382 340.196 55.5713C340.424 55.041 340.958 53.8502 341.381 52.9229C341.805 51.9968 342.151 51.1238 342.151 50.9835C342.151 50.564 342.845 49.9997 343.067 50.2395C343.179 50.3616 344.161 52.5271 345.249 55.0523ZM30.2275 50.8286C28.3786 51.5478 28.8592 54.756 30.8155 54.756C32.3184 54.756 33.2118 53.2769 32.6 51.8C32.1906 50.8117 31.2554 50.4294 30.2275 50.8286ZM19.2211 56.0169C17.7058 57.2981 17.3677 59.0091 18.304 60.6556C19.713 63.1332 23.1632 62.9093 24.4207 60.2575C25.936 57.0663 21.8865 53.7631 19.2211 56.0169ZM3.34196 59.1956C2.37057 60.7505 3.10901 62.4581 4.75211 62.4581C6.0537 62.4581 6.52978 61.921 6.52978 60.4497C6.52978 58.801 4.1686 57.8714 3.34196 59.1956ZM71.2824 59.2499C70.259 60.7098 71.063 62.4581 72.757 62.4581C75.2618 62.4581 75.3161 58.8779 72.8147 58.6653C71.9869 58.594 71.6511 58.7218 71.2824 59.2499ZM85.6779 62.3043C77.5664 64.8351 80.5993 76.5901 88.8522 74.61C93.6763 73.4521 95.2131 67.0335 91.4553 63.7337C90.6377 63.0156 87.667 61.7672 87.0564 61.8859C86.9999 61.8961 86.379 62.0849 85.6779 62.3043ZM10.3056 65.7375C5.66695 68.1858 7.42201 75.4966 12.6476 75.4932C16.0898 75.4909 18.8129 71.9243 17.6572 68.9344C16.3545 65.5645 13.2175 64.1996 10.3056 65.7375ZM1.39467 67.099C0.967211 67.5265 1.19903 68.9321 1.71582 69.0429C3.04229 69.3268 4.26585 67.8216 3.23679 67.1703C2.74941 66.8616 1.67398 66.8197 1.39467 67.099ZM74.0925 67.3162C73.63 67.8748 73.9308 68.9016 74.6003 69.0452C75.6994 69.2815 76.1778 68.9355 76.0839 67.9732C75.981 66.917 74.7586 66.5133 74.0925 67.3162ZM82.8067 79.6253C77.7881 80.7957 76.9863 87.3432 81.5945 89.5302C85.506 91.3859 89.7998 87.583 88.6045 83.3208C87.8989 80.8047 85.1803 79.0723 82.8067 79.6253ZM6.06501 81.0139C2.6759 82.7611 1.76671 87.9493 4.35293 90.7832C7.02622 93.7121 11.5495 93.7143 14.0261 90.7877C18.6602 85.3111 12.47 77.7108 6.06501 81.0139ZM20.4515 86.7484C19.7843 87.9957 21.3324 89.1616 22.2257 88.085C22.4361 87.8329 22.5118 87.3274 22.4044 86.8999C22.1703 85.9647 20.923 85.8675 20.4515 86.7484ZM93.1335 86.6014C92.8022 87.4654 93.2907 88.5261 94.0212 88.5261C94.8569 88.5261 95.4743 87.4065 95.0536 86.6557C94.7076 86.036 93.3653 85.9975 93.1335 86.6014ZM22.2517 93.3898C21.0384 94.6812 21.9408 96.5233 23.7874 96.5233C24.5711 96.5233 25.7845 95.4117 25.7845 94.6936C25.7845 92.968 23.4561 92.1074 22.2517 93.3898ZM73.7725 92.9488C73.7725 93.1014 73.5034 93.3106 73.1743 93.4147C71.0189 94.0988 71.21 98.2738 73.4525 99.4737C76.9682 101.355 80.3098 96.564 77.4647 93.72C76.4367 92.6909 73.7725 92.1357 73.7725 92.9488ZM90.2589 93.2145C89.6381 93.8998 89.6245 95.449 90.234 96.0585C91.4271 97.2516 93.6186 96.2734 93.6186 94.5466C93.6186 92.8752 91.3717 91.9842 90.2589 93.2145ZM10.7987 97.6971C7.37791 99.2204 6.41217 103.283 8.8446 105.919C11.0169 108.273 14.0702 108.386 16.3477 106.198C20.387 102.315 15.8919 95.4298 10.7987 97.6971ZM28.5561 100.987C24.4399 102.735 26.5489 108.635 30.8744 107.47C32.1318 107.131 33.4854 105.473 33.4854 104.272C33.4854 101.82 30.8031 100.032 28.5561 100.987ZM64.0179 101.155C63.2603 102.119 63.2422 102.776 63.9501 103.65C65.0312 104.983 67.5518 104.147 67.5518 102.456C67.5518 101.534 66.3961 100.375 65.4778 100.375C64.9169 100.375 64.425 100.637 64.0179 101.155ZM84.14 100.851C79.8485 102.392 81.7505 108.765 86.1269 107.509C89.62 106.507 89.3384 101.264 85.7695 100.834C85.117 100.756 84.3842 100.763 84.14 100.851ZM57.0905 104.254C56.8767 105.072 57.1176 105.646 57.7622 105.85C58.9382 106.224 59.9888 104.959 59.2458 104.064C58.6861 103.39 57.2838 103.513 57.0905 104.254ZM39.2617 107.909C35.7776 109.609 35.0596 114.248 37.9172 116.598C40.7363 118.917 43.9977 118.3 45.8635 115.095C48.236 111.018 43.4854 105.847 39.2617 107.909ZM71.5504 107.924C67.1232 110.002 67.2295 115.363 71.7404 117.542C73.7691 118.523 75.9019 117.922 77.5664 115.901C80.9589 111.786 76.3485 105.673 71.5504 107.924ZM155.381 107.627C155.218 107.682 154.718 107.81 154.269 107.909C151.011 108.628 150.93 113.901 154.153 115.461C156.457 116.576 159.974 115.165 159.974 113.126C159.974 112.199 158.705 112.353 157.649 113.409C156.502 114.556 155.454 114.562 154.322 113.432C152.082 111.19 155.121 107.959 157.549 110.002C158.515 110.815 159.974 111.006 159.974 110.321C159.974 109.757 158.594 108.144 157.961 107.966C157.012 107.7 155.679 107.524 155.381 107.627ZM187.88 107.776C184.55 108.563 183.832 113.363 186.773 115.181C188.333 116.144 189.393 116.226 190.902 115.495C195.723 113.161 193.13 106.537 187.88 107.776ZM208.854 107.784C204.592 108.799 205.205 115.064 209.655 115.954C213.928 116.809 216.369 109.155 212.199 107.975C210.937 107.619 209.82 107.555 208.854 107.784ZM220.76 107.776C219.536 108.066 218.696 108.818 218.156 110.106C216.179 114.839 223.056 118.326 225.727 113.944C226.814 112.163 226.624 111.928 224.105 111.928C222.081 111.928 221.883 111.981 221.883 112.52C221.883 112.98 222.081 113.113 222.772 113.113C223.719 113.113 223.882 113.366 223.306 113.942C222.157 115.09 219.775 113.672 219.723 111.808C219.661 109.609 221.903 108.568 223.607 110.002C224.144 110.454 224.856 110.742 225.434 110.742H226.382L225.836 109.811C224.802 108.045 222.882 107.275 220.76 107.776ZM249.136 107.678C246.32 108.806 246.832 111.377 250.125 112.634C251.727 113.246 252.08 113.887 251.068 114.349C250.318 114.69 248.84 114.063 248.84 113.402C248.84 113.243 248.44 113.113 247.951 113.113C246.802 113.113 246.784 113.769 247.904 114.887C249.065 116.048 251.115 116.357 252.459 115.573C254.912 114.139 254.023 112.05 250.395 110.725C249.775 110.499 249.433 110.176 249.433 109.819C249.433 109.002 251.362 109.031 251.803 109.854C252.229 110.652 253.579 110.666 253.579 109.871C253.579 108.385 250.799 107.012 249.136 107.678ZM296.594 107.776C292.236 108.805 292.825 115.052 297.365 115.96C298.996 116.286 302.16 114.139 302.16 112.707C302.16 112.171 300.485 112.629 299.598 113.409C297.806 114.981 295.525 114.068 295.525 111.779C295.525 109.599 297.758 108.586 299.44 110.002C299.978 110.454 300.69 110.742 301.268 110.742H302.215L301.669 109.811C300.636 108.045 298.716 107.275 296.594 107.776ZM316.756 107.678C314.146 108.239 314.436 111.38 317.193 112.398C319.491 113.247 320.051 114.055 318.594 114.42C317.718 114.64 316.675 114.165 316.675 113.546C316.675 113.262 316.37 113.113 315.787 113.113C313.63 113.113 315.265 115.576 317.659 115.933C322.492 116.654 322.636 112.557 317.846 110.594C317.449 110.431 317.079 110.065 317.026 109.78C316.877 108.987 318.912 109.052 319.342 109.854C319.809 110.728 321.118 110.656 321.118 109.757C321.118 108.295 318.872 107.224 316.756 107.678ZM131.832 108.668C131.832 109.523 131.883 109.557 133.155 109.557H134.477L134.562 112.594L134.646 115.63L135.45 115.723L136.254 115.815L136.339 112.761L136.423 109.705L137.683 109.615C138.858 109.53 138.941 109.466 138.941 108.652V107.781H135.387H131.832V108.668ZM142.265 111.705L142.347 115.63L145.384 115.715L148.42 115.799V115.049C148.42 114.323 148.355 114.298 146.531 114.298C143.569 114.298 142.966 112.672 145.852 112.461C147.943 112.31 147.818 111.102 145.699 110.981C142.965 110.824 143.424 109.734 146.272 109.618L148.42 109.531V108.656V107.781H145.301H142.182L142.265 111.705ZM163.528 111.779V115.778H164.417C165.285 115.778 165.306 115.745 165.306 114.298V112.816H167.23H169.156V114.298C169.156 115.745 169.176 115.778 170.045 115.778H170.934V111.779V107.781H170.061C169.216 107.781 169.184 107.832 169.097 109.336L169.008 110.891H167.23H165.454L165.364 109.336C165.277 107.832 165.246 107.781 164.401 107.781H163.528V111.779ZM174.192 111.779V115.778H175.08H175.969V113.542C175.969 110.851 176.123 110.867 178.327 113.779C179.597 115.458 179.98 115.778 180.719 115.778H181.597V111.779V107.781H180.709H179.82V110.002C179.82 111.224 179.694 112.224 179.54 112.224C179.386 112.224 178.491 111.224 177.55 110.002C176.147 108.18 175.692 107.781 175.016 107.781H174.192V111.779ZM196.705 111.779V115.778H199.667H202.63V115.037C202.63 114.325 202.559 114.298 200.736 114.298C198.455 114.298 198.482 114.342 198.482 110.571V107.781H197.593H196.705V111.779ZM230.057 108.151C230.172 108.354 230.846 109.466 231.555 110.619C232.639 112.384 232.845 112.961 232.845 114.248C232.845 115.751 232.86 115.778 233.733 115.778C234.586 115.778 234.621 115.726 234.621 114.472C234.621 113.236 235.695 110.973 237.481 108.447C237.943 107.792 237.933 107.781 236.894 107.781C235.972 107.781 235.716 107.954 234.917 109.113C234.413 109.847 233.886 110.446 233.747 110.446C233.607 110.446 233.141 109.847 232.712 109.113C232.02 107.935 231.81 107.781 230.888 107.781C230.141 107.781 229.907 107.885 230.057 108.151ZM257.135 111.779V115.778H260.096C263.045 115.778 263.059 115.775 263.059 115.051C263.059 114.36 262.961 114.32 261.06 114.237C258.396 114.12 257.904 112.742 260.467 112.578C262.676 112.436 262.609 111.039 260.393 111.039C259.011 111.039 258.911 110.989 258.911 110.298C258.911 109.579 258.971 109.557 260.985 109.557H263.059V108.668V107.781H260.096H257.135V111.779ZM266.613 111.799V115.818L267.429 115.724C268.157 115.64 268.252 115.498 268.333 114.371C268.47 112.486 269.774 112.526 270.793 114.446C271.377 115.546 271.647 115.778 272.341 115.778H273.181L272.409 114.397L271.637 113.015L272.303 112.306C274.361 110.117 272.639 107.781 268.967 107.781H266.613V111.799ZM277.145 108.873C277.411 109.494 277.694 110.202 277.776 110.446C277.857 110.69 278.039 111.157 278.18 111.483C278.32 111.809 278.762 112.875 279.161 113.853C279.833 115.5 279.962 115.637 280.912 115.72L281.936 115.81L283.066 112.906C283.688 111.309 284.287 109.868 284.399 109.705C285.153 108.602 285.004 107.741 284.072 107.835C283.276 107.915 281.223 111.55 281.133 113.038C281.106 113.484 280.562 112.899 280.307 112.149C278.763 107.638 278.94 107.936 277.756 107.836L276.662 107.743L277.145 108.873ZM288.535 111.779V115.778H289.422H290.311V111.779V107.781H289.422H288.535V111.779ZM305.419 111.779V115.778H308.381C311.329 115.778 311.344 115.775 311.344 115.051C311.344 114.36 311.245 114.32 309.344 114.237C306.681 114.12 306.188 112.742 308.752 112.578C310.013 112.496 310.158 112.414 310.158 111.779C310.158 111.145 310.013 111.062 308.752 110.981C306.107 110.811 306.544 109.557 309.249 109.557H311.344V108.668V107.781H308.381H305.419V111.779ZM190.804 110.127C191.877 111.202 191.907 112.191 190.902 113.386C189.445 115.118 186.811 114.083 186.811 111.779C186.811 109.52 189.206 108.529 190.804 110.127ZM211.835 110.127C212.357 110.65 212.701 111.306 212.701 111.779C212.701 112.253 212.357 112.909 211.835 113.432C211.313 113.953 210.656 114.298 210.183 114.298C209.709 114.298 209.053 113.953 208.53 113.432C208.009 112.909 207.665 112.253 207.665 111.779C207.665 111.306 208.009 110.65 208.53 110.127C209.053 109.605 209.709 109.261 210.183 109.261C210.656 109.261 211.313 109.605 211.835 110.127ZM271.056 109.854C271.508 110.695 270.985 111.513 269.852 111.739C268.603 111.989 268.391 111.8 268.391 110.429C268.391 109.037 270.389 108.606 271.056 109.854ZM55.5616 110.071C51.1819 111.181 49.7921 118.018 53.3327 121.039C57.5032 124.595 63.9965 121.67 63.9965 116.233C63.9965 111.847 60.0193 108.941 55.5616 110.071ZM19.4134 111.071C18.5652 111.484 17.7861 112.984 17.7861 114.202C17.7861 118.414 24.1221 118.887 24.7509 114.721C25.1795 111.879 22.0923 109.769 19.4134 111.071ZM29.6463 119.389C28.2248 120.914 29.5501 123.218 31.5585 122.713C33.1191 122.322 33.1598 119.337 31.6105 118.921C30.5634 118.64 30.2818 118.707 29.6463 119.389ZM37.2375 122.197C36.8214 122.613 37.0657 123.768 37.6333 124.073C38.8286 124.713 39.999 123.299 39.0548 122.355C38.6714 121.972 37.5598 121.874 37.2375 122.197Z" fill="#E4E1E1"/>
<path fill-rule="evenodd" clip-rule="evenodd" d="M114.791 0.325252C114.714 0.528802 114.684 35.1538 114.726 77.2694L114.802 153.843H116.135H117.468V77.1213L117.47 0.398755L117.394 77.0466L117.319 153.695H116.134H114.95V76.9901V0.286803L116.06 0.170327L117.172 0.0538501L116.051 0.00409487C115.388 -0.0253068 114.874 0.10587 114.791 0.325252ZM203.15 39.2655C203.517 39.3356 204.117 39.3356 204.484 39.2655C204.85 39.1942 204.55 39.1366 203.817 39.1366C203.084 39.1366 202.784 39.1942 203.15 39.2655ZM207.445 39.2598C207.73 39.3345 208.197 39.3345 208.482 39.2598C208.767 39.1863 208.534 39.1253 207.964 39.1253C207.393 39.1253 207.16 39.1863 207.445 39.2598ZM200.784 39.5618C201.152 39.633 201.686 39.6296 201.969 39.5561C202.253 39.4815 201.951 39.4238 201.299 39.4272C200.648 39.4306 200.416 39.4905 200.784 39.5618ZM209.47 39.4589C209.537 39.5177 210.193 39.6455 210.926 39.7427C211.816 39.8603 212.063 39.832 211.667 39.6568C211.101 39.4057 209.213 39.2361 209.47 39.4589ZM136.052 40.1622L140.42 40.2572L140.501 54.0975L140.581 67.9378L140.578 54.0149L140.574 40.0933L136.129 40.0797L131.686 40.0672L136.052 40.1622ZM168.862 40.2244L173.157 40.3895L173.312 54.3112L173.466 68.234L173.46 54.1631L173.454 40.0933L169.011 40.0763L164.568 40.0593L168.862 40.2244ZM229.132 40.3149C229.054 40.5185 229.025 51.2161 229.068 64.0873L229.144 87.4887L246.844 87.5656C256.578 87.6075 264.542 87.5407 264.543 87.4175C264.543 87.2931 256.612 87.2275 246.917 87.2716L229.292 87.3496V63.791V40.2324L246.917 40.3104C256.612 40.3534 264.543 40.2889 264.543 40.1668C264.542 39.7506 229.291 39.8988 229.132 40.3149ZM273.726 40.1668C273.726 40.2889 275.446 40.3895 277.548 40.3895C279.651 40.3895 281.309 40.2889 281.233 40.1668C281.158 40.0446 279.438 39.9451 277.411 39.9451C275.384 39.9451 273.726 40.0446 273.726 40.1668ZM304.237 54.4356C304.237 62.7687 304.124 68.9668 303.97 69.0245C303.823 69.0788 303.89 69.2948 304.118 69.5051C304.473 69.8319 304.533 67.7399 304.533 54.9162C304.533 46.6815 304.466 39.9451 304.385 39.9451C304.303 39.9451 304.237 46.4655 304.237 54.4356ZM337.556 40.9075C337.143 41.7578 337.143 41.8031 337.548 41.2953C337.8 40.9787 338.006 40.6157 338.006 40.4879C338.006 40.3601 340.239 40.2154 342.968 40.1668L347.93 40.0774L342.976 40.0107L338.022 39.9451L337.556 40.9075ZM196.264 40.696C195.523 41.0522 195.498 41.094 196.116 40.9425C196.955 40.7378 197.898 40.2572 197.448 40.2629C197.285 40.2663 196.752 40.4608 196.264 40.696ZM188.548 45.4478L186.488 47.3973L188.635 45.536C190.612 43.8239 190.94 43.4993 190.695 43.4993C190.647 43.4993 189.681 44.3769 188.548 45.4478ZM349.58 44.5363C349.58 44.6991 349.771 45.1662 350.003 45.5733C350.236 45.9804 350.427 46.1805 350.427 46.0177C350.427 45.8549 350.236 45.3878 350.003 44.9807C349.771 44.5736 349.58 44.3735 349.58 44.5363ZM204.484 47.5658C205.094 47.6303 206.094 47.6303 206.705 47.5658C207.316 47.5025 206.817 47.4505 205.594 47.4505C204.373 47.4505 203.873 47.5025 204.484 47.5658ZM211.519 48.4501C211.763 48.5417 212.23 48.7385 212.556 48.8877C213.138 49.1558 213.139 49.1535 212.573 48.7C212.257 48.4467 211.79 48.25 211.537 48.2624C211.138 48.2828 211.135 48.3088 211.519 48.4501ZM251.065 48.5349L237.735 48.6921L250.973 48.7622C259.555 48.8075 264.277 48.7272 264.394 48.5349C264.496 48.3721 264.537 48.2703 264.486 48.3088C264.436 48.3472 258.396 48.449 251.065 48.5349ZM219.086 50.299C218.29 51.1064 217.509 51.6854 217.348 51.587C217.176 51.4808 217.15 51.5599 217.285 51.777C217.47 52.0778 220.702 49.3717 220.702 48.916C220.702 48.7012 220.433 48.9307 219.086 50.299ZM213.593 49.2609C213.593 49.3423 213.992 49.616 214.481 49.8682C214.97 50.1215 215.37 50.2617 215.37 50.1803C215.37 50.0977 214.97 49.8252 214.481 49.5719C213.992 49.3197 213.593 49.1795 213.593 49.2609ZM333.315 50.1769C332.819 51.267 332.914 51.4988 333.45 50.5082C333.701 50.0457 333.85 49.6126 333.782 49.5448C333.714 49.4769 333.504 49.7619 333.315 50.1769ZM342.52 50.3612C342.319 50.5625 342.157 50.8678 342.163 51.0386C342.167 51.2094 342.319 51.0963 342.499 50.7864C342.811 50.2481 342.842 50.2549 343.219 50.9346C343.436 51.3258 343.618 51.5045 343.624 51.3315C343.647 50.6326 342.902 49.9779 342.52 50.3612ZM343.952 52.5347C343.952 52.6975 344.143 53.1634 344.375 53.5717C344.608 53.9788 344.799 54.1789 344.799 54.0149C344.799 53.8521 344.608 53.3862 344.375 52.9791C344.143 52.5709 343.952 52.3718 343.952 52.5347ZM181.785 56.6928C181.684 56.9574 181.612 57.3961 181.626 57.6687C181.64 57.9401 181.769 57.7693 181.912 57.2887C182.192 56.3535 182.092 55.891 181.785 56.6928ZM346.026 57.274C346.026 57.4368 346.216 57.9039 346.449 58.311C346.681 58.7181 346.871 58.9182 346.871 58.7554C346.871 58.5926 346.681 58.1255 346.449 57.7184C346.216 57.3113 346.026 57.1112 346.026 57.274ZM356.097 59.0517C356.097 59.2145 356.288 59.6804 356.52 60.0875C356.753 60.4958 356.944 60.6948 356.944 60.5319C356.944 60.3691 356.753 59.9032 356.52 59.4961C356.288 59.0879 356.097 58.8888 356.097 59.0517ZM189.687 62.1615C189.687 63.0571 189.742 63.4246 189.81 62.9757C189.878 62.5279 189.878 61.7951 189.81 61.3473C189.742 60.8995 189.687 61.2658 189.687 62.1615ZM189.679 65.7168C189.679 66.4496 189.737 66.7493 189.808 66.3829C189.878 66.0165 189.878 65.416 189.808 65.0496C189.737 64.6832 189.679 64.9829 189.679 65.7168ZM164.5 68.6785C164.5 69.4112 164.557 69.712 164.629 69.3445C164.699 68.9781 164.699 68.3788 164.629 68.0124C164.557 67.6449 164.5 67.9457 164.5 68.6785ZM173.091 70.1598C173.091 70.8926 173.148 71.1923 173.218 70.8259C173.29 70.4595 173.29 69.8602 173.218 69.4927C173.148 69.1263 173.091 69.4259 173.091 70.1598ZM334.116 70.2379C334.24 70.3634 338.266 70.429 343.062 70.386L351.78 70.3069L342.834 70.1598C337.914 70.0784 333.99 70.1135 334.116 70.2379ZM164.159 70.9005C164.134 71.2262 164.046 71.8256 163.963 72.2327L163.81 72.9734L164.128 72.2474C164.302 71.8471 164.39 71.2477 164.324 70.9141C164.207 70.3238 164.202 70.3227 164.159 70.9005ZM132.195 71.9364C132.193 72.3446 132.297 73.0107 132.427 73.4178C132.746 74.414 132.746 73.3386 132.427 72.0845C132.223 71.2873 132.201 71.2715 132.195 71.9364ZM295.942 72.5289C296.459 73.1814 296.947 73.7141 297.029 73.7141C297.11 73.7141 296.755 73.1814 296.238 72.5289C295.723 71.8776 295.233 71.345 295.152 71.345C295.07 71.345 295.426 71.8776 295.942 72.5289ZM141.145 72.3808C141.261 72.8705 141.483 73.3997 141.639 73.5591C141.795 73.7186 141.765 73.385 141.574 72.8184C141.125 71.492 140.873 71.2353 141.145 72.3808ZM217.406 76.0096C217.034 76.4835 217.045 76.4925 217.535 76.1069C218.113 75.6534 223.634 80.6777 223.688 81.7068C223.706 82.0551 223.746 82.0664 223.871 81.7532C224.017 81.3879 218.491 75.4917 218.004 75.4917C217.898 75.4917 217.629 75.7247 217.406 76.0096ZM160.999 77.3429L159.828 78.6015L161.087 77.4311C162.257 76.3421 162.482 76.0843 162.257 76.0843C162.21 76.0843 161.643 76.6508 160.999 77.3429ZM321.17 77.1337C320.673 78.2227 320.768 78.4556 321.304 77.465C321.555 77.0025 321.705 76.5683 321.637 76.5004C321.569 76.4337 321.359 76.7176 321.17 77.1337ZM212.259 78.9091C211.771 79.133 211.579 79.3219 211.833 79.3286C212.086 79.3366 212.553 79.1466 212.869 78.908C213.571 78.3765 213.422 78.3765 212.259 78.9091ZM238.137 78.8277C238.262 78.9509 244.287 79.0177 251.526 78.9747L264.69 78.8978L251.301 78.7497C243.937 78.6682 238.013 78.7033 238.137 78.8277ZM319.985 79.7991C319.488 80.8892 319.583 81.121 320.119 80.1304C320.37 79.669 320.52 79.2348 320.452 79.1669C320.384 79.0991 320.174 79.384 319.985 79.7991ZM202.41 80.1395C202.695 80.2141 203.162 80.2141 203.447 80.1395C203.732 80.0648 203.499 80.0037 202.929 80.0037C202.358 80.0037 202.125 80.0648 202.41 80.1395ZM207.893 80.144C208.262 80.2152 208.796 80.213 209.078 80.1383C209.362 80.0648 209.06 80.006 208.409 80.0094C207.756 80.0128 207.525 80.0739 207.893 80.144ZM154.125 80.4357C154.41 80.5104 154.877 80.5104 155.162 80.4357C155.447 80.3611 155.214 80.3 154.643 80.3C154.073 80.3 153.841 80.3611 154.125 80.4357ZM205.08 80.4436C205.53 80.5115 206.197 80.5104 206.561 80.4402C206.925 80.369 206.557 80.3136 205.742 80.3159C204.928 80.3181 204.63 80.3758 205.08 80.4436ZM168.4 82.0822L167.529 83.0457L168.493 82.175C169.022 81.6966 169.455 81.2635 169.455 81.2126C169.455 80.9842 169.211 81.1855 168.4 82.0822ZM136.278 81.5089C136.278 81.5598 136.712 81.9929 137.241 82.4712L138.203 83.342L137.334 82.3785C136.523 81.4818 136.278 81.2805 136.278 81.5089ZM221.738 83.3861C220.847 84.1833 220.78 84.293 221.469 83.8327C222.288 83.2854 223.318 82.2869 223.034 82.3163C222.973 82.322 222.39 82.8037 221.738 83.3861ZM138.754 83.7185C138.988 84.0974 140.722 85.3797 140.722 85.1739C140.722 85.1015 140.232 84.6673 139.634 84.2116C139.036 83.7559 138.64 83.5331 138.754 83.7185ZM141.018 85.4001C141.018 85.4815 141.417 85.7552 141.907 86.0073C142.395 86.2607 142.795 86.4009 142.795 86.3195C142.795 86.238 142.395 85.9644 141.907 85.7111C141.417 85.4589 141.018 85.3187 141.018 85.4001ZM368.39 86.5185L368.578 87.3248L364.03 87.4152L359.482 87.5057L364.148 87.5713C369.113 87.6414 369.437 87.5351 368.503 86.1555C368.28 85.8253 368.251 85.918 368.39 86.5185ZM215.222 86.9064C214.481 87.2637 214.457 87.3044 215.074 87.154C215.913 86.9482 216.856 86.4676 216.406 86.4744C216.243 86.4766 215.711 86.6711 215.222 86.9064ZM273.985 87.4231C274.112 87.5498 276.139 87.6165 278.489 87.5702L282.76 87.4865L278.257 87.3395C275.78 87.2592 273.858 87.2965 273.985 87.4231ZM316.937 87.422C317.064 87.5487 319.29 87.6154 321.885 87.5702L326.601 87.4865L321.654 87.3395C318.933 87.2592 316.81 87.2965 316.937 87.422ZM308.754 87.5588C309.528 87.6188 310.794 87.6188 311.568 87.5588C312.343 87.4978 311.709 87.4469 310.161 87.4469C308.613 87.4469 307.98 87.4978 308.754 87.5588ZM156.792 88.1367C157.077 88.2113 157.543 88.2113 157.828 88.1367C158.114 88.0632 157.88 88.0021 157.31 88.0021C156.74 88.0021 156.506 88.0632 156.792 88.1367ZM200.336 88.1367C200.622 88.2113 201.088 88.2113 201.373 88.1367C201.658 88.0632 201.425 88.0021 200.855 88.0021C200.285 88.0021 200.051 88.0632 200.336 88.1367ZM150.275 88.433C150.56 88.5076 151.026 88.5076 151.311 88.433C151.597 88.3595 151.363 88.2984 150.793 88.2984C150.223 88.2984 149.99 88.3595 150.275 88.433ZM154.422 88.433C154.707 88.5076 155.174 88.5076 155.459 88.433C155.744 88.3595 155.511 88.2984 154.94 88.2984C154.37 88.2984 154.137 88.3595 154.422 88.433ZM156.125 107.471C156.369 107.636 156.825 107.772 157.137 107.776C157.895 107.782 157.658 107.612 156.569 107.369C155.92 107.223 155.8 107.251 156.125 107.471ZM189.302 107.471C189.547 107.636 190.002 107.772 190.314 107.776C191.072 107.782 190.836 107.612 189.747 107.369C189.098 107.223 188.978 107.251 189.302 107.471ZM209.15 107.462C208.64 107.61 208.964 107.677 210.185 107.677C211.408 107.677 211.731 107.61 211.222 107.462C210.815 107.344 210.348 107.247 210.185 107.247C210.023 107.247 209.557 107.344 209.15 107.462ZM222.182 107.471C222.428 107.636 222.882 107.772 223.194 107.776C223.953 107.782 223.717 107.612 222.627 107.369C221.978 107.223 221.858 107.251 222.182 107.471ZM249.757 107.296C249.824 107.356 250.413 107.486 251.065 107.586C251.891 107.711 252.07 107.684 251.658 107.498C251.089 107.24 249.502 107.073 249.757 107.296ZM298.016 107.471C298.26 107.636 298.716 107.772 299.028 107.776C299.786 107.782 299.549 107.612 298.46 107.369C297.811 107.223 297.692 107.251 298.016 107.471ZM316.826 107.498C316.414 107.684 316.593 107.711 317.419 107.586C318.07 107.486 318.659 107.356 318.727 107.296C318.982 107.073 317.395 107.24 316.826 107.498ZM135.371 107.7L138.908 107.799L139.039 108.752C139.167 109.689 139.169 109.688 139.131 108.668L139.092 107.632L135.463 107.618L131.833 107.603L135.371 107.7ZM143.768 107.704C144.711 107.762 146.178 107.761 147.027 107.701C147.876 107.642 147.105 107.594 145.313 107.595C143.521 107.595 142.826 107.644 143.768 107.704ZM163.371 107.852C163.285 108.074 163.257 109.917 163.309 111.943L163.403 115.63L163.466 111.704L163.531 107.78H164.404C165.248 107.78 165.28 107.831 165.367 109.335L165.456 110.89H167.233H169.011L169.1 109.335C169.187 107.831 169.219 107.78 170.063 107.78H170.936V111.779V115.778H170.063C169.222 115.778 169.186 115.721 169.072 114.223L168.954 112.668L168.982 114.297L169.011 115.926H170.048H171.085V111.779V107.632H170.048H169.011L168.921 109.187L168.832 110.742H167.233H165.635L165.546 109.187C165.454 107.589 163.85 106.604 163.371 107.852ZM174.028 107.87C173.947 108.082 173.917 109.981 173.964 112.091L174.046 115.926L174.935 115.954C175.774 115.98 175.778 115.974 175.01 115.861L174.194 115.74V111.728V107.715L175.211 107.834C175.77 107.899 176.162 107.847 176.082 107.718C175.843 107.331 174.188 107.454 174.028 107.87ZM179.724 107.681C179.616 107.789 179.525 108.823 179.522 109.976L179.518 112.075L178.458 110.89L177.397 109.705L178.339 110.965C179.629 112.689 179.823 112.566 179.823 110.021V107.818L180.786 107.698L181.748 107.579L180.835 107.532C180.333 107.506 179.833 107.572 179.724 107.681ZM197.586 107.65L198.464 107.815L198.565 110.761L198.666 113.706L198.65 110.669L198.633 107.632L197.67 107.558C196.74 107.486 196.738 107.49 197.586 107.65ZM229.588 107.724C229.588 107.855 229.796 108.221 230.05 108.538C230.487 109.084 230.493 109.079 230.168 108.413C229.836 107.728 229.855 107.715 231.016 107.826C231.67 107.888 232.142 107.837 232.064 107.711C231.876 107.407 229.588 107.419 229.588 107.724ZM235.475 108.002C235.121 108.453 235.126 108.476 235.514 108.174C235.759 107.984 236.425 107.772 236.995 107.704L238.031 107.579L236.957 107.532C236.242 107.5 235.746 107.658 235.475 108.002ZM257.048 107.672C256.934 107.786 256.841 109.723 256.841 111.977V116.074H260.099H263.358V115.037V114.001H261.309C260.182 114.001 259.192 113.864 259.11 113.697C259.027 113.53 258.993 113.563 259.034 113.772C259.085 114.021 259.779 114.179 261.085 114.236C262.963 114.32 263.062 114.361 263.062 115.051C263.062 115.774 263.047 115.778 260.099 115.778H257.138V111.779V107.78H260.081H263.025L263.145 108.595C263.259 109.364 263.263 109.359 263.237 108.521L263.21 107.632L260.233 107.549C258.595 107.502 257.162 107.558 257.048 107.672ZM266.518 107.681C266.409 107.789 266.32 109.723 266.32 111.977V116.074H267.357C267.927 116.074 268.394 115.964 268.394 115.83C268.394 115.695 267.994 115.643 267.505 115.714L266.616 115.846V111.825V107.806L268.764 107.704L270.911 107.602L268.813 107.543C267.659 107.51 266.626 107.572 266.518 107.681ZM276.687 107.601C276.687 107.665 277.21 107.768 277.848 107.828C278.485 107.889 278.945 107.837 278.868 107.711C278.726 107.484 276.687 107.38 276.687 107.601ZM283.103 107.706C283.027 107.828 283.472 107.929 284.093 107.929C284.714 107.929 285.16 107.828 285.085 107.706C285.009 107.584 284.563 107.484 284.093 107.484C283.624 107.484 283.178 107.584 283.103 107.706ZM288.37 107.87C288.289 108.082 288.259 109.981 288.306 112.091L288.389 115.926L289.277 115.954C290.116 115.98 290.121 115.974 289.352 115.861L288.537 115.74V111.779V107.818L289.5 107.698L290.462 107.579L289.491 107.532C288.926 107.503 288.456 107.646 288.37 107.87ZM305.259 107.86C305.175 108.079 305.148 109.917 305.2 111.943L305.294 115.63L305.357 111.704L305.422 107.78H308.365H311.309L311.429 108.595C311.543 109.364 311.548 109.359 311.522 108.521L311.494 107.632L308.453 107.547C306.123 107.483 305.376 107.555 305.259 107.86ZM251.582 109.853C252.126 110.761 253.693 110.916 253.77 110.07C253.804 109.703 253.777 109.681 253.678 109.996C253.47 110.67 252.246 110.539 251.656 109.78C251.139 109.114 251.138 109.114 251.582 109.853ZM321.145 109.814C321.125 110.416 321 110.496 320.248 110.385C319.769 110.315 319.443 110.367 319.526 110.5C320.049 111.347 321.695 110.424 321.321 109.492C321.237 109.284 321.157 109.428 321.145 109.814ZM136.475 109.755C136.367 109.863 136.278 111.278 136.278 112.899V115.846L135.39 115.714C134.9 115.643 134.501 115.695 134.501 115.83C134.501 115.964 134.959 116.074 135.519 116.074H136.538L136.63 112.815C136.681 111.023 136.712 109.557 136.698 109.557C136.685 109.557 136.584 109.646 136.475 109.755ZM144.079 110.022C143.796 110.76 144.389 111.086 145.791 110.961L147.091 110.846L145.649 110.794C144.364 110.748 144.224 110.678 144.362 110.15C144.545 109.45 144.336 109.353 144.079 110.022ZM307.299 110.15C307.342 110.814 307.49 110.899 308.754 110.981C310.015 111.062 310.161 111.145 310.161 111.779C310.161 112.413 310.015 112.496 308.754 112.577C306.191 112.741 306.684 114.12 309.347 114.236C311.24 114.319 311.346 114.362 311.346 115.04C311.346 115.746 311.298 115.758 308.31 115.853L305.274 115.95L308.458 116.012L311.643 116.074V115.037V114.001H309.569C306.913 114.001 306.336 112.922 308.903 112.758C311.068 112.619 311.084 110.94 308.921 110.801C307.768 110.726 307.508 110.601 307.391 110.06C307.273 109.513 307.258 109.528 307.299 110.15ZM260.322 110.951C262.528 111.119 262.743 112.52 260.562 112.52C259.838 112.52 259.182 112.623 259.105 112.748C259.027 112.873 259.653 112.906 260.494 112.822C262.948 112.575 262.863 110.905 260.395 110.862L258.766 110.834L260.322 110.951ZM248.178 111.853C248.562 112.22 249.035 112.515 249.23 112.511C249.424 112.506 249.317 112.353 248.991 112.173C248.665 111.992 248.193 111.696 247.939 111.516C247.687 111.335 247.795 111.486 248.178 111.853ZM176.072 113.409C176.072 114.63 176.124 115.13 176.188 114.519C176.251 113.908 176.251 112.909 176.188 112.297C176.124 111.686 176.072 112.186 176.072 113.409ZM253.016 112.11C253.409 112.618 253.79 112.981 253.863 112.916C253.936 112.851 253.614 112.435 253.148 111.993L252.301 111.186L253.016 112.11ZM222.479 111.814C224.218 112.035 226.56 112.058 226.433 111.853C226.357 111.73 225.27 111.651 224.017 111.675C222.764 111.7 222.072 111.762 222.479 111.814ZM272.091 112.527C271.643 113.021 271.617 113.19 271.939 113.489C272.251 113.778 272.286 113.773 272.111 113.464C271.984 113.24 272.111 112.831 272.409 112.501C272.696 112.185 272.862 111.927 272.78 111.927C272.699 111.927 272.388 112.196 272.091 112.527ZM145.757 112.52L144.424 112.727L145.831 112.771C146.605 112.796 147.239 112.683 147.239 112.52C147.239 112.357 147.205 112.244 147.164 112.268C147.123 112.292 146.49 112.406 145.757 112.52ZM165.393 114.149C165.395 114.963 165.452 115.262 165.521 114.811C165.589 114.361 165.586 113.695 165.516 113.331C165.446 112.965 165.391 113.334 165.393 114.149ZM234.624 114.278C234.624 115.706 234.601 115.744 233.661 115.86C232.714 115.978 232.716 115.98 233.81 116.026L234.92 116.074V114.446C234.92 113.549 234.853 112.816 234.772 112.816C234.691 112.816 234.624 113.474 234.624 114.278ZM143.989 113.298C143.969 114.025 144.847 114.325 146.694 114.221L148.571 114.115L146.586 114.058C145.049 114.014 144.534 113.884 144.3 113.482C144.133 113.197 143.994 113.115 143.989 113.298ZM268.764 113.316C269.049 113.39 269.516 113.39 269.801 113.316C270.086 113.241 269.853 113.181 269.283 113.181C268.712 113.181 268.479 113.241 268.764 113.316ZM189.302 114.001L188.265 114.219L189.211 114.258C189.731 114.279 190.239 114.164 190.339 114.001C190.44 113.838 190.481 113.722 190.431 113.743C190.38 113.765 189.872 113.88 189.302 114.001ZM222.182 114.001L221.147 114.219L222.091 114.258C222.611 114.279 223.119 114.164 223.219 114.001C223.32 113.838 223.362 113.722 223.311 113.743C223.261 113.765 222.753 113.88 222.182 114.001ZM317.105 114.132C317.421 114.386 317.888 114.582 318.141 114.57C318.541 114.55 318.543 114.524 318.16 114.381C317.915 114.291 317.448 114.094 317.123 113.945C316.539 113.677 316.539 113.679 317.105 114.132ZM199.589 114.215C200.115 114.28 201.048 114.28 201.662 114.217C202.277 114.153 201.847 114.1 200.707 114.098C199.566 114.096 199.064 114.149 199.589 114.215ZM247.065 114.265C247.065 114.545 248.513 115.926 248.629 115.755C248.676 115.686 248.343 115.272 247.89 114.835C247.436 114.397 247.065 114.14 247.065 114.265ZM272.945 115.417C273.069 115.618 272.779 115.784 272.177 115.859C271.215 115.979 271.218 115.98 272.319 116.026C273.403 116.073 273.771 115.728 273.088 115.305C272.883 115.179 272.826 115.224 272.945 115.417ZM282.02 115.463C282.02 115.723 281.659 115.806 280.86 115.73C280.222 115.669 279.763 115.721 279.84 115.847C280.054 116.192 281.957 116.119 282.18 115.758C282.287 115.584 282.295 115.363 282.198 115.264C282.1 115.167 282.02 115.256 282.02 115.463ZM142.202 115.852C142.202 115.974 143.636 116.051 145.386 116.024C148.622 115.974 148.236 115.857 144.349 115.711C143.168 115.667 142.202 115.73 142.202 115.852ZM179.787 115.86C179.93 116.004 180.43 116.073 180.898 116.014C181.68 115.917 181.66 115.896 180.638 115.755C180.001 115.667 179.638 115.712 179.787 115.86ZM163.9 115.982C164.186 116.057 164.652 116.057 164.937 115.982C165.222 115.908 164.989 115.847 164.419 115.847C163.85 115.847 163.615 115.908 163.9 115.982ZM198.115 115.996C198.97 116.056 200.37 116.056 201.225 115.996C202.081 115.937 201.381 115.887 199.67 115.887C197.959 115.887 197.259 115.937 198.115 115.996Z" fill="#E4E1E1"/>
<path fill-rule="evenodd" clip-rule="evenodd" d="M63.1102 35.1036C63.1102 35.2654 63.4777 35.7211 63.9255 36.1157L64.7397 36.8338L63.9991 35.945C63.592 35.4565 63.2256 35.0007 63.1849 34.9329C63.1441 34.865 63.1102 34.9419 63.1102 35.1036ZM25.7871 37.6672C25.7871 37.7181 26.2202 38.1512 26.7494 38.6296L27.7118 39.5003L26.8421 38.5369C26.0313 37.6401 25.7871 37.4388 25.7871 37.6672ZM51.0951 38.5369L50.2255 39.5003L51.1878 38.6296C52.0846 37.8188 52.287 37.5745 52.0575 37.5745C52.0066 37.5745 51.5735 38.0076 51.0951 38.5369ZM198.929 39.6485C198.556 39.809 198.501 39.9029 198.781 39.9029C199.025 39.9029 199.492 39.7887 199.818 39.6485C200.191 39.4879 200.246 39.394 199.966 39.394C199.722 39.394 199.255 39.5082 198.929 39.6485ZM229.19 39.8701C229.064 40.0725 242.128 40.0691 258.174 39.8633C261.595 39.8192 256.504 39.7536 246.86 39.7163C237.217 39.679 229.265 39.748 229.19 39.8701ZM275.736 39.8679C276.762 39.9255 278.361 39.9255 279.292 39.8667C280.222 39.8079 279.383 39.7604 277.428 39.7616C275.473 39.7616 274.712 39.8102 275.736 39.8679ZM308.683 39.8656L313.131 39.9594L313.053 63.7985C313.01 76.9094 313.076 87.6365 313.2 87.6365C313.322 87.6365 313.388 76.8721 313.348 63.716L313.272 39.7966L308.753 39.7842L304.235 39.7729L308.683 39.8656ZM337.903 39.8701C337.827 39.9922 339.252 40.0578 341.07 40.0149C347.061 39.8735 347.705 39.7615 342.838 39.7039C340.199 39.6733 337.978 39.748 337.903 39.8701ZM71.1832 40.9817C71.1866 41.6331 71.2477 41.8649 71.3178 41.4962C71.389 41.1276 71.3868 40.595 71.3121 40.3111C71.2386 40.0284 71.1798 40.3292 71.1832 40.9817ZM164.556 53.7183C164.556 61.3763 164.595 64.5517 164.641 60.7747C164.687 56.9977 164.688 50.7329 164.641 46.8519C164.595 42.9709 164.556 46.0614 164.556 53.7183ZM264.483 44.3878C264.435 46.8326 264.495 48.832 264.617 48.832C264.739 48.8308 264.838 46.8315 264.838 44.3878C264.838 38.6386 264.599 38.6398 264.483 44.3878ZM273.498 63.716C273.461 76.8721 273.529 87.6365 273.651 87.6365C273.853 87.6365 273.851 70.8289 273.646 48.3864C273.603 43.6618 273.537 50.5599 273.498 63.716ZM17.3805 40.6967C17.2787 40.9614 17.2074 41.4001 17.221 41.6715C17.2357 41.9441 17.3646 41.7733 17.5082 41.2927C17.7876 40.3575 17.688 39.895 17.3805 40.6967ZM131.675 54.3108C131.675 62.1317 131.713 65.2878 131.761 61.3265C131.807 57.3641 131.807 50.9658 131.76 47.1074C131.713 43.249 131.675 46.4911 131.675 54.3108ZM220.561 49.126L217.606 52.238L220.695 49.2131C222.395 47.5496 223.725 46.1496 223.65 46.1021C223.577 46.0546 222.186 47.415 220.561 49.126ZM238.021 54.2373L238.031 59.6439L250.842 59.7208L263.654 59.7976V63.7906V67.7836L250.842 67.8605L238.031 67.9374V73.2693V78.6011L251.279 78.6792L264.527 78.7561L264.621 83.1968L264.715 87.6376L264.703 83.1188L264.69 78.6011L251.435 78.5242L238.179 78.4473V73.267V68.0855H251.065H263.951V63.7906V59.4957H251.072H238.193L238.101 54.1627L238.011 48.8308L238.021 54.2373ZM10.7526 54.9599C11.0387 55.0346 11.5046 55.0346 11.7896 54.9599C12.0746 54.8853 11.8416 54.8242 11.2717 54.8242C10.7018 54.8242 10.4677 54.8853 10.7526 54.9599ZM66.0029 54.9656C66.3704 55.0357 66.9042 55.0334 67.1869 54.9588C67.4707 54.8853 67.1688 54.8265 66.5174 54.8299C65.8661 54.8333 65.6342 54.8944 66.0029 54.9656ZM282.684 71.7144L282.755 87.4884L282.834 71.8467C282.893 60.1855 283 56.2581 283.253 56.4142C283.462 56.5442 283.512 56.4934 283.381 56.283C282.695 55.1725 282.616 56.9163 282.684 71.7144ZM339.832 56.6935C339.335 57.7825 339.43 58.0155 339.966 57.0248C340.217 56.5623 340.367 56.1292 340.299 56.0614C340.231 55.9935 340.021 56.2785 339.832 56.6935ZM82.1026 58.0415C82.487 58.2846 84.9783 58.4373 84.7103 58.202C84.6424 58.1421 83.9356 58.0234 83.1395 57.9374C82.2552 57.8424 81.8527 57.882 82.1026 58.0415ZM3.75053 58.2563C3.66911 58.3898 3.99366 58.4418 4.47426 58.3717C4.95374 58.3004 5.34727 58.1919 5.34727 58.1285C5.34727 57.9024 3.89754 58.0188 3.75053 58.2563ZM17.2651 58.9032C17.2651 59.4731 17.3262 59.706 17.4008 59.4211C17.4743 59.1361 17.4743 58.6691 17.4008 58.3841C17.3262 58.0991 17.2651 58.3321 17.2651 58.9032ZM71.1991 58.7833L70.3679 59.5534L71.2228 58.9314C72.2428 58.1896 73.0876 58.1444 74.0793 58.7788L74.8121 59.2469L74.1121 58.6306C73.1735 57.8029 72.2032 57.8537 71.1991 58.7833ZM180.822 64.0869C180.823 65.8793 180.872 66.5736 180.931 65.6305C180.989 64.6885 180.989 63.2218 180.929 62.3726C180.87 61.5233 180.822 62.2945 180.822 64.0869ZM86.5908 61.7811C87.0409 61.849 87.707 61.8479 88.0711 61.7777C88.4364 61.7065 88.0677 61.6511 87.2524 61.6534C86.4382 61.6556 86.1408 61.7133 86.5908 61.7811ZM349.58 65.8634C349.58 66.0274 349.771 66.4933 350.003 66.9004C350.236 67.3086 350.427 67.5077 350.427 67.3448C350.427 67.182 350.236 66.7161 350.003 66.3079C349.771 65.9008 349.58 65.7006 349.58 65.8634ZM0.804711 67.0983C0.536704 67.3674 0.554796 68.6102 0.829589 68.781C0.951719 68.8556 1.05236 68.4644 1.05236 67.9091C1.05236 67.355 1.04105 66.9004 1.02748 66.9004C1.01391 66.9004 0.913271 66.9897 0.804711 67.0983ZM76.3715 67.6603C76.4608 68.124 76.3059 68.6487 75.9587 69.0592L75.4035 69.7151L76.0707 69.1508C76.73 68.5921 76.972 67.3776 76.4835 67.0757C76.3444 66.9897 76.2935 67.2521 76.3715 67.6603ZM80.36 68.3818C80.36 68.9517 80.421 69.1858 80.4956 68.8997C80.5703 68.6148 80.5703 68.1489 80.4956 67.8639C80.421 67.5789 80.36 67.8119 80.36 68.3818ZM93.9865 68.3818C93.9865 68.9517 94.0476 69.1858 94.1222 68.8997C94.1968 68.6148 94.1968 68.1489 94.1222 67.8639C94.0476 67.5789 93.9865 67.8119 93.9865 68.3818ZM164.203 69.2706C164.203 70.0034 164.261 70.3031 164.332 69.9367C164.402 69.5703 164.402 68.971 164.332 68.6046C164.261 68.2371 164.203 68.5379 164.203 69.2706ZM173.387 69.2706C173.387 70.0034 173.444 70.3031 173.515 69.9367C173.586 69.5703 173.586 68.971 173.515 68.6046C173.444 68.2371 173.387 68.5379 173.387 69.2706ZM190.232 68.3818C190.232 68.6261 190.347 69.0931 190.487 69.4188C190.647 69.792 190.742 69.8474 190.742 69.5669C190.742 69.3227 190.626 68.8556 190.487 68.5299C190.327 68.1568 190.232 68.1014 190.232 68.3818ZM18.1698 70.3076C18.172 71.1218 18.2297 71.4204 18.2976 70.9703C18.3654 70.5191 18.3632 69.853 18.293 69.4889C18.2229 69.1248 18.1675 69.4923 18.1698 70.3076ZM293.869 70.1595C294.385 70.8108 294.873 71.3446 294.956 71.3446C295.037 71.3446 294.681 70.8108 294.165 70.1595C293.649 69.507 293.16 68.9744 293.079 68.9744C292.997 68.9744 293.352 69.507 293.869 70.1595ZM173.046 71.789C173.022 72.1147 172.933 72.714 172.85 73.1211L172.697 73.8618L173.014 73.1358C173.189 72.7355 173.277 72.1362 173.21 71.8026C173.094 71.2111 173.089 71.2111 173.046 71.789ZM81.4761 72.325C81.4761 72.3759 81.9103 72.8102 82.4395 73.2885L83.4019 74.1581L82.5323 73.1958C81.7215 72.2979 81.4761 72.0966 81.4761 72.325ZM322.355 74.1705C321.858 75.2607 321.952 75.4925 322.489 74.5019C322.74 74.0394 322.89 73.6062 322.822 73.5384C322.754 73.4705 322.544 73.7555 322.355 74.1705ZM194.041 75.5999C194.611 76.2196 195.478 77.0044 195.967 77.3425C197.01 78.064 196.823 77.8638 194.634 75.9188C193.332 74.7631 193.214 74.6986 194.041 75.5999ZM161.74 76.1574C161.19 76.8506 160.974 77.2283 161.261 76.9987C161.799 76.5656 163.069 74.8988 162.86 74.8988C162.794 74.8988 162.291 75.4653 161.74 76.1574ZM221.153 78.4541C222.778 80.1651 224.169 81.5266 224.243 81.4791C224.317 81.4316 222.987 80.0316 221.288 78.3682L218.197 75.3432L221.153 78.4541ZM12.0893 75.9968C12.4579 76.0681 12.9917 76.0647 13.2744 75.9912C13.5582 75.9165 13.2563 75.8589 12.605 75.8623C11.9525 75.8657 11.7206 75.9256 12.0893 75.9968ZM213.889 78.0097C213.482 78.2415 213.281 78.4326 213.444 78.4326C213.607 78.4326 214.073 78.2415 214.481 78.0097C214.888 77.7768 215.089 77.5857 214.926 77.5857C214.763 77.5857 214.296 77.7768 213.889 78.0097ZM336.451 78.6758C339.913 78.7233 345.579 78.7233 349.04 78.6758C352.503 78.6283 349.67 78.5887 342.746 78.5887C335.822 78.5887 332.989 78.6283 336.451 78.6758ZM83.0355 79.2582C83.4856 79.3271 84.1528 79.3249 84.5169 79.2548C84.881 79.1847 84.5124 79.1281 83.6982 79.1304C82.884 79.1326 82.5854 79.1903 83.0355 79.2582ZM8.53169 79.8473C8.89808 79.9186 9.49742 79.9186 9.86494 79.8473C10.2313 79.7772 9.93166 79.7195 9.19775 79.7195C8.46497 79.7195 8.1653 79.7772 8.53169 79.8473ZM204.632 80.1493C205.161 80.2148 206.027 80.2148 206.556 80.1493C207.087 80.0837 206.654 80.0294 205.594 80.0294C204.536 80.0294 204.102 80.0837 204.632 80.1493ZM152.203 80.4399C152.572 80.5111 153.105 80.5089 153.388 80.4342C153.672 80.3607 153.37 80.3019 152.719 80.3053C152.066 80.3087 151.835 80.3698 152.203 80.4399ZM365.872 80.3788C365.872 80.5416 366.063 81.0087 366.296 81.4158C366.529 81.8229 366.719 82.023 366.719 81.8602C366.719 81.6974 366.529 81.2303 366.296 80.8232C366.063 80.4161 365.872 80.216 365.872 80.3788ZM4.2922 81.7856L3.42146 82.749L4.38492 81.8783C5.28168 81.0675 5.48296 80.8232 5.25454 80.8232C5.20365 80.8232 4.77054 81.2563 4.2922 81.7856ZM13.0494 80.916C13.0494 80.9668 13.4825 81.4 14.0117 81.8783L14.974 82.749L14.1044 81.7856C13.2936 80.8888 13.0494 80.6875 13.0494 80.916ZM167.276 83.3778C166.159 84.4464 165.492 85.186 165.794 85.0197C166.343 84.7189 169.707 81.4067 169.445 81.426C169.369 81.4305 168.393 82.3103 167.276 83.3778ZM222.609 82.9707L221.738 83.9342L222.701 83.0634C223.231 82.5851 223.664 82.152 223.664 82.1011C223.664 81.8715 223.419 82.0739 222.609 82.9707ZM367.057 83.0453C367.057 83.2082 367.248 83.6741 367.481 84.0823C367.714 84.4894 367.904 84.6895 367.904 84.5256C367.904 84.3627 367.714 83.8968 367.481 83.4897C367.248 83.0815 367.057 82.8825 367.057 83.0453ZM93.0061 86.0816C92.6725 86.5226 92.6758 86.5441 93.0287 86.2297C93.6122 85.7084 94.5044 85.7695 95.2281 86.3779C95.8433 86.8958 95.8433 86.8947 95.279 86.2297C94.605 85.4325 93.5489 85.3635 93.0061 86.0816ZM205.521 88.7391C206.05 88.8046 206.916 88.8046 207.445 88.7391C207.976 88.6735 207.541 88.6203 206.483 88.6203C205.423 88.6203 204.99 88.6735 205.521 88.7391ZM90.1575 92.8496L89.3263 93.6186L90.1812 92.9978C91.2012 92.256 92.046 92.2107 93.0377 92.844L93.7694 93.3122L93.0705 92.6959C92.1319 91.8692 91.1617 91.9201 90.1575 92.8496ZM93.9175 94.7053C93.9175 95.0095 93.6382 95.6428 93.2967 96.1132L92.6747 96.967L93.4448 96.1358C94.1097 95.4178 94.5067 94.1535 94.0656 94.1535C93.9842 94.1535 93.9175 94.4023 93.9175 94.7053ZM71.1776 96.2274C71.1776 96.7974 71.2386 97.0303 71.3133 96.7454C71.3879 96.4604 71.3879 95.9933 71.3133 95.7084C71.2386 95.4234 71.1776 95.6564 71.1776 96.2274ZM12.0893 97.0292C12.4579 97.0993 12.9917 97.097 13.2744 97.0224C13.5582 96.9489 13.2563 96.8912 12.605 96.8935C11.9525 96.8969 11.7206 96.9579 12.0893 97.0292ZM18.1698 102.595C18.172 103.41 18.2297 103.708 18.2976 103.258C18.3654 102.808 18.3632 102.142 18.293 101.778C18.2229 101.412 18.1675 101.781 18.1698 102.595ZM25.9714 102.904C25.8696 103.168 25.8029 103.807 25.8233 104.323C25.8549 105.104 25.8979 105.038 26.0822 103.928C26.3174 102.511 26.2745 102.113 25.9714 102.904ZM81.2488 104.225C81.2488 104.795 81.3098 105.029 81.3845 104.744C81.4591 104.459 81.4591 103.992 81.3845 103.707C81.3098 103.422 81.2488 103.655 81.2488 104.225ZM88.9509 104.225C88.9509 104.795 89.0119 105.029 89.0866 104.744C89.1612 104.459 89.1612 103.992 89.0866 103.707C89.0119 103.422 88.9509 103.655 88.9509 104.225ZM32.2125 107.048C31.7556 107.451 31.4989 107.78 31.6425 107.78C31.7861 107.78 32.217 107.446 32.5992 107.039C33.4847 106.096 33.289 106.102 32.2125 107.048ZM82.4305 107.048C82.8738 107.515 83.2888 107.837 83.3544 107.764C83.4188 107.691 83.0559 107.31 82.5481 106.916L81.6242 106.201L82.4305 107.048ZM142.024 111.779C142.025 114.222 142.071 115.182 142.126 113.913C142.183 112.643 142.181 110.643 142.126 109.469C142.07 108.296 142.024 109.335 142.024 111.779ZM148.468 108.433L148.423 109.529L146.427 109.618C144.906 109.684 144.423 109.811 144.399 110.149C144.38 110.406 144.419 110.437 144.492 110.224C144.573 109.978 145.262 109.853 146.528 109.853C148.614 109.853 148.86 109.657 148.637 108.175C148.531 107.46 148.505 107.498 148.468 108.433ZM181.719 111.779C181.719 114.222 181.765 115.182 181.821 113.913C181.876 112.643 181.876 110.643 181.819 109.469C181.764 108.296 181.718 109.335 181.719 111.779ZM196.529 111.779C196.53 114.222 196.576 115.182 196.632 113.913C196.688 112.643 196.686 110.643 196.631 109.469C196.575 108.296 196.529 109.335 196.529 111.779ZM256.674 107.869C256.592 108.082 256.564 109.981 256.61 112.091L256.695 115.925L256.842 111.704C256.987 107.546 256.968 107.105 256.674 107.869ZM263.3 108.507L263.419 109.529L261.245 109.618C259.564 109.685 259.062 109.806 259.037 110.149C259.02 110.393 259.06 110.433 259.128 110.236C259.203 110.012 260.048 109.846 261.378 109.792C263.524 109.705 264.466 108.769 263.441 107.744C263.291 107.595 263.231 107.92 263.3 108.507ZM266.079 111.852C266.133 116.248 266.244 115.723 266.39 110.371C266.433 108.782 266.368 107.483 266.246 107.483C266.124 107.483 266.048 109.449 266.079 111.852ZM290.433 111.779C290.433 114.222 290.479 115.182 290.534 113.913C290.59 112.643 290.59 110.643 290.534 109.469C290.478 108.296 290.433 109.335 290.433 111.779ZM311.585 108.506L311.704 109.529L309.526 109.64L307.346 109.75L309.569 109.727L311.791 109.705L311.882 108.594C311.933 107.984 311.86 107.484 311.719 107.484C311.579 107.484 311.519 107.944 311.585 108.506ZM320.474 108.307C320.912 108.76 321.326 109.093 321.394 109.047C321.564 108.931 320.185 107.484 319.903 107.484C319.78 107.484 320.037 107.855 320.474 108.307ZM131.613 108.742C131.682 109.648 131.761 109.71 132.936 109.795L134.184 109.887L134.285 113.054L134.385 116.222L134.369 112.964L134.353 109.705L133.111 109.615C131.999 109.534 131.852 109.433 131.704 108.652C131.546 107.818 131.541 107.823 131.613 108.742ZM272.729 108.816C273.415 109.986 273.429 110.003 273.429 109.639C273.429 109.467 273.155 109.012 272.82 108.627L272.209 107.928L272.729 108.816ZM57.1157 109.471C57.4843 109.541 58.0169 109.538 58.3008 109.464C58.5835 109.39 58.2827 109.333 57.6302 109.335C56.9788 109.338 56.747 109.399 57.1157 109.471ZM268.443 110.372C268.395 111.608 268.411 111.631 269.371 111.631C270.5 111.631 271.072 111.177 271.03 110.312C271.005 109.804 270.967 109.826 270.797 110.445C270.418 111.816 268.758 111.66 268.611 110.241L268.493 109.112L268.443 110.372ZM318.868 109.877C319.131 110.297 319.273 110.713 319.184 110.803C319.095 110.892 319.224 111.042 319.47 111.136C320.249 111.436 320.153 110.92 319.256 110.001C318.47 109.196 318.434 109.185 318.868 109.877ZM136.7 109.951C136.618 110.167 136.594 111.533 136.649 112.988L136.749 115.629L136.809 112.759L136.87 109.889L137.982 109.773L139.092 109.656L137.971 109.606C137.275 109.576 136.794 109.706 136.7 109.951ZM20.825 110.354C21.1099 110.428 21.577 110.428 21.862 110.354C22.1469 110.279 21.914 110.218 21.3429 110.218C20.773 110.218 20.54 110.279 20.825 110.354ZM223.738 110.445C223.871 110.938 225.948 111.243 226.361 110.829C226.499 110.692 226.066 110.632 225.398 110.695C224.598 110.771 224.089 110.673 223.902 110.406C223.672 110.076 223.641 110.084 223.738 110.445ZM251.608 110.586C251.608 110.821 251.785 111.081 252.002 111.165C252.219 111.247 252.397 111.203 252.397 111.065C252.397 110.927 252.219 110.667 252.002 110.486C251.705 110.24 251.608 110.263 251.608 110.586ZM299.572 110.445C299.653 110.748 300.109 110.901 301.001 110.925C302.302 110.959 302.302 110.958 301.13 110.829C300.48 110.756 299.838 110.542 299.701 110.349C299.53 110.111 299.489 110.14 299.572 110.445ZM151.466 111.631C151.466 112.363 151.523 112.664 151.595 112.297C151.665 111.93 151.665 111.331 151.595 110.964C151.523 110.597 151.466 110.898 151.466 111.631ZM157.799 110.816C157.875 110.938 158.454 111.038 159.087 111.038C159.72 111.038 160.299 110.938 160.374 110.816C160.45 110.694 159.871 110.594 159.087 110.594C158.304 110.594 157.725 110.694 157.799 110.816ZM214.566 111.779C214.568 112.593 214.625 112.891 214.694 112.441C214.762 111.991 214.759 111.324 214.689 110.96C214.619 110.596 214.564 110.964 214.566 111.779ZM147.203 111.695C147.339 112.518 147.381 112.56 147.475 111.966C147.535 111.581 147.462 111.144 147.313 110.995C147.149 110.83 147.105 111.107 147.203 111.695ZM217.518 111.779C217.521 112.43 217.582 112.662 217.652 112.293C217.723 111.925 217.721 111.392 217.646 111.109C217.573 110.825 217.514 111.127 217.518 111.779ZM310.308 111.732C310.309 112.634 310.256 112.673 308.828 112.843L307.346 113.018L308.694 113.066C310.368 113.123 311.655 111.629 310.53 110.935C310.408 110.859 310.307 111.218 310.308 111.732ZM221.704 111.762C221.375 112.62 221.74 113.236 222.697 113.432C223.221 113.538 223.579 113.511 223.492 113.369C223.405 113.227 223.008 113.112 222.61 113.112C222.039 113.112 221.886 112.958 221.886 112.384C221.886 111.688 221.979 111.652 224.035 111.555L226.182 111.452L224.024 111.393C222.379 111.348 221.829 111.436 221.704 111.762ZM35.6366 112.667C35.64 113.319 35.7011 113.551 35.7712 113.182C35.8424 112.813 35.839 112.281 35.7655 111.997C35.6909 111.714 35.6332 112.016 35.6366 112.667ZM67.9253 112.667C67.9287 113.319 67.9886 113.551 68.0599 113.182C68.1311 112.813 68.1277 112.281 68.0542 111.997C67.9796 111.714 67.9219 112.016 67.9253 112.667ZM46.8873 112.816C46.8873 113.386 46.9483 113.619 47.023 113.334C47.0976 113.049 47.0976 112.583 47.023 112.297C46.9483 112.012 46.8873 112.246 46.8873 112.816ZM232.157 112.223C232.291 112.467 232.481 113.467 232.578 114.445L232.757 116.222L232.802 114.575C232.832 113.462 232.696 112.742 232.38 112.353C232.125 112.038 232.024 111.979 232.157 112.223ZM157.891 112.726C157.545 113.182 157.547 113.206 157.901 112.889C158.401 112.444 160.162 112.396 160.373 112.822C160.456 112.99 160.49 112.957 160.449 112.749C160.326 112.126 158.36 112.109 157.891 112.726ZM299.989 112.441C299.904 112.579 300.307 112.637 300.885 112.569C301.559 112.49 302.037 112.593 302.219 112.853C302.453 113.187 302.483 113.18 302.384 112.816C302.254 112.332 300.252 112.018 299.989 112.441ZM249.46 112.63C249.764 112.903 251.509 113.703 251.509 113.571C251.509 113.4 249.866 112.519 249.548 112.519C249.432 112.519 249.392 112.569 249.46 112.63ZM260.692 112.738C259.959 112.801 259.265 112.945 259.15 113.058C259.036 113.17 259.569 113.215 260.335 113.158C261.101 113.101 261.855 112.934 262.01 112.786C262.165 112.639 262.232 112.542 262.158 112.571C262.085 112.6 261.424 112.674 260.692 112.738ZM144.331 113.334C144.411 113.755 144.802 113.868 146.41 113.94L148.389 114.027L148.506 114.977C148.62 115.897 148.624 115.894 148.598 114.888L148.571 113.853L146.571 113.764C144.345 113.667 143.881 113.208 145.831 113.033L147.09 112.919L145.661 112.868C144.445 112.824 144.247 112.893 144.331 113.334ZM166.424 113.03C166.957 113.096 167.756 113.095 168.201 113.027C168.646 112.959 168.211 112.906 167.233 112.907C166.256 112.908 165.892 112.964 166.424 113.03ZM246.872 113.272C246.774 113.524 246.779 113.813 246.881 113.915C246.983 114.015 247.065 113.885 247.065 113.623C247.065 113.292 247.402 113.112 248.177 113.032L249.287 112.915L248.167 112.865C247.396 112.831 246.992 112.958 246.872 113.272ZM315.477 113.034C316.039 113.102 316.679 113.381 316.901 113.654C317.254 114.087 317.263 114.065 316.98 113.482C316.723 112.952 316.432 112.825 315.556 112.863L314.456 112.911L315.477 113.034ZM17.2708 114.149C17.2742 114.8 17.3352 115.032 17.4053 114.663C17.4766 114.295 17.4732 113.762 17.3997 113.478C17.325 113.196 17.2674 113.496 17.2708 114.149ZM268.479 114.74C268.481 115.556 268.538 115.853 268.606 115.403C268.674 114.953 268.672 114.287 268.602 113.923C268.532 113.557 268.476 113.926 268.479 114.74ZM200.763 113.919L202.597 114.027L202.719 115.052C202.842 116.075 202.842 116.074 202.811 114.965L202.781 113.853L200.855 113.832L198.929 113.812L200.763 113.919ZM260.174 113.919C260.784 113.984 261.784 113.984 262.395 113.919C263.006 113.856 262.507 113.804 261.284 113.804C260.062 113.804 259.562 113.856 260.174 113.919ZM309.477 113.916L311.607 114.026L311.731 115.052C311.852 116.075 311.853 116.075 311.821 114.965L311.791 113.853L309.569 113.83L307.346 113.807L309.477 113.916ZM151.978 114.093C151.978 114.144 152.411 114.577 152.94 115.056L153.904 115.925L153.033 114.963C152.222 114.065 151.978 113.864 151.978 114.093ZM185.154 114.093C185.154 114.144 185.588 114.577 186.118 115.056L187.08 115.925L186.21 114.963C185.4 114.065 185.154 113.864 185.154 114.093ZM213.129 114.963L212.259 115.925L213.222 115.056C213.752 114.577 214.185 114.144 214.185 114.093C214.185 113.864 213.941 114.065 213.129 114.963ZM218.035 114.093C218.035 114.144 218.469 114.577 218.998 115.056L219.961 115.925L219.091 114.963C218.28 114.065 218.035 113.864 218.035 114.093ZM293.869 114.093C293.869 114.144 294.302 114.577 294.831 115.056L295.794 115.925L294.924 114.963C294.113 114.065 293.869 113.864 293.869 114.093ZM300.811 114.963L299.942 115.925L300.904 115.056C301.802 114.245 302.003 114.001 301.774 114.001C301.723 114.001 301.29 114.434 300.811 114.963ZM64.3767 116.37C64.3767 117.104 64.4344 117.403 64.5045 117.037C64.5758 116.67 64.5758 116.07 64.5045 115.704C64.4344 115.337 64.3767 115.637 64.3767 116.37ZM250.398 116.278C250.683 116.353 251.15 116.353 251.435 116.278C251.72 116.204 251.487 116.143 250.917 116.143C250.346 116.143 250.113 116.204 250.398 116.278ZM317.937 116.278C318.222 116.353 318.689 116.353 318.974 116.278C319.259 116.204 319.026 116.143 318.456 116.143C317.885 116.143 317.652 116.204 317.937 116.278ZM72.9598 118.352C73.2447 118.426 73.7118 118.426 73.9967 118.352C74.2817 118.278 74.0488 118.216 73.4788 118.216C72.9078 118.216 72.6748 118.278 72.9598 118.352ZM56.816 123.096C57.1824 123.166 57.7829 123.166 58.1492 123.096C58.5156 123.026 58.216 122.968 57.4821 122.968C56.7493 122.968 56.4496 123.026 56.816 123.096Z" fill="#E4E1E1"/>
<path fill-rule="evenodd" clip-rule="evenodd" d="M57.0021 31.2198C56.2388 32.3846 56.9218 33.4894 58.332 33.3684C58.9313 33.3175 59.4176 33.0936 59.4956 32.8358C59.6042 32.4773 59.5544 32.4626 59.2367 32.7611C58.2935 33.6511 56.6572 32.8505 57.0281 31.68C57.2973 30.8319 58.2935 30.6012 58.9845 31.2254C59.5974 31.7807 59.793 31.4143 59.2005 30.8217C58.5989 30.2201 57.5302 30.4135 57.0021 31.2198ZM63.976 32.8131C62.9096 33.8795 62.8847 34.5965 63.8776 35.7748C65.2516 37.4077 67.9022 36.3956 67.8378 34.2617C67.8321 34.048 67.6387 34.3058 67.4081 34.8351C66.6074 36.6783 64.4464 36.8084 63.6503 35.0612C63.1889 34.048 63.6673 33.0732 64.9315 32.449C65.5716 32.1346 65.7322 31.9582 65.3827 31.9537C65.0853 31.9503 64.4521 32.3371 63.976 32.8131ZM36.1631 32.5723C32.6994 33.9553 31.0427 38.5408 32.8034 41.87C35.3568 46.6975 42.3183 46.7733 44.7529 42.0012C45.3896 40.7538 45.5061 40.1014 45.0402 40.3897C44.8773 40.4904 44.7439 40.8047 44.7439 41.0897C44.7439 44.9447 37.45 46.4917 34.269 43.3107C31.2644 40.306 32.4608 33.7947 36.1665 32.9805C36.6449 32.8765 37.1119 32.6673 37.2046 32.5169C37.4138 32.1776 37.1108 32.1946 36.1631 32.5723ZM41.1897 32.8493C42.9855 33.6794 43.8019 34.4811 44.6455 36.2418C45.1386 37.2709 45.3014 37.4586 45.1793 36.8559C44.7993 34.9843 42.5851 32.7622 40.7453 32.406C40.0509 32.2703 40.1482 32.3676 41.1897 32.8493ZM66.6708 32.9454C67.0756 33.3311 67.4601 33.5991 67.5268 33.5391C67.7179 33.3706 66.6108 32.2432 66.2546 32.2432C66.0805 32.2432 66.267 32.5587 66.6708 32.9454ZM20.8245 37.2878C19.7661 37.7142 20.0499 37.8363 21.3368 37.5095C23.8269 36.8773 26.0953 37.8363 27.4716 40.1036C27.6661 40.4236 27.8323 40.5232 27.8425 40.3253C27.9397 38.3203 23.2773 36.3018 20.8245 37.2878ZM52.8848 37.3794C48.5944 39.3267 48.6385 45.5 52.956 47.4099C55.2527 48.4266 58.557 47.4755 59.5827 45.5033C59.8281 45.0318 59.6121 45.1483 58.851 45.898C55.6214 49.0813 50.4987 47.4065 50.138 43.0483C49.8055 39.0463 52.7581 36.5347 56.6369 37.5185C57.528 37.7447 57.7643 37.739 57.5234 37.4982C57.018 36.9927 53.9127 36.9135 52.8848 37.3794ZM74.3491 37.289C72.7309 37.7266 70.9238 39.5631 71.522 40.1613C71.6114 40.2506 71.8115 39.9894 71.9664 39.5812C72.6811 37.7006 76.5384 36.7665 77.3797 38.2694C77.5313 38.5397 77.8106 38.7602 78.0017 38.7602C78.1928 38.7602 78.0729 38.4843 77.736 38.1461C77.0009 37.4122 75.3963 37.0051 74.3491 37.289ZM18.8964 38.6889C18.1603 39.4613 17.3506 41.0874 17.5858 41.3227C17.6457 41.3826 17.9409 40.8884 18.2406 40.2224C18.5402 39.5574 19.0536 38.8258 19.3804 38.5974C19.7073 38.3689 19.9051 38.1133 19.8226 38.0297C19.7389 37.946 19.3216 38.2423 18.8964 38.6889ZM58.0742 37.9426C58.0742 38.0319 58.47 38.5284 58.9539 39.0463C59.9491 40.1115 60.2906 41.4414 60.0701 43.3955C59.966 44.3148 60.0147 44.6405 60.2239 44.4313C60.7859 43.8693 60.5823 40.9777 59.9038 39.8808C59.3022 38.9072 58.0742 37.6067 58.0742 37.9426ZM78.4371 40.686C78.5592 42.5326 77.7156 44.0921 76.5938 44.0921C76.3654 44.0921 76.0883 44.2402 75.9764 44.42C75.5331 45.137 77.2112 44.3092 77.9825 43.4305C79.0093 42.259 79.2422 41.1609 78.7288 39.9069C78.3251 38.9219 78.3217 38.9321 78.4371 40.686ZM27.9861 42.4331C27.9861 43.3333 28.089 43.9077 28.2145 43.711C28.4938 43.2722 28.4859 42.0611 28.1987 41.3328C28.0743 41.0173 27.9861 41.4719 27.9861 42.4331ZM71.4055 41.9446C71.4112 42.9771 73.7656 45.0883 74.3073 44.5455C74.3932 44.4607 74.0517 44.2481 73.5496 44.0728C72.9684 43.8704 72.4617 43.3853 72.1553 42.7385C71.6962 41.7716 71.4033 41.4606 71.4055 41.9446ZM17.665 44.0921C18.4396 47.0876 22.203 48.7262 25.0934 47.3274C26.404 46.693 28.0381 45.0488 27.683 44.7219C27.5722 44.6202 27.4139 44.7287 27.3313 44.9628C26.084 48.4865 20.1483 48.2434 18.149 44.5874C17.7441 43.8467 17.5508 43.6476 17.665 44.0921ZM10.2343 47.3342C9.80228 47.5117 10.0047 47.575 10.9829 47.566C14.0768 47.54 15.7765 50.3343 14.2091 52.8696C13.8699 53.418 13.5702 53.8692 13.5431 53.8715C13.5148 53.8749 12.9596 54.0807 12.3082 54.3295C11.1299 54.7807 11.1288 54.783 12.1408 54.6179C14.597 54.2187 15.8602 51.3792 14.5427 49.2181C13.5894 47.6553 11.5833 46.7778 10.2343 47.3342ZM65.6281 47.333C65.2267 47.4925 65.5625 47.566 66.6651 47.5603C67.8502 47.5547 68.0922 47.4925 67.5539 47.333C66.5916 47.0481 66.3417 47.0481 65.6281 47.333ZM81.6136 47.4529C76.5882 49.7338 77.762 58.0352 83.1051 57.9979C83.4308 57.9957 83.0011 57.7424 82.1496 57.4359C76.0397 55.2376 78.4405 46.27 84.8184 47.4665C88.2685 48.1144 90.0315 52.9928 87.78 55.6673C87.3684 56.1581 87.1072 56.6353 87.1999 56.728C87.6285 57.1566 89.1777 54.0151 89.1777 52.7181C89.1777 48.8235 85.0016 45.915 81.6136 47.4529ZM8.44302 48.4311C8.04384 48.8619 7.7159 49.355 7.7159 49.5268C7.7159 49.7191 7.80411 49.7304 7.9432 49.5574C8.06759 49.4025 8.49052 48.9094 8.88292 48.4616C9.79776 47.4178 9.40649 47.3907 8.44302 48.4311ZM63.9353 48.1653C62.7535 49.5201 62.4245 51.7535 63.2455 52.8481C63.6345 53.366 63.6446 53.3163 63.354 52.346C62.9153 50.8805 63.2703 49.2781 64.2315 48.387C64.6703 47.9799 64.8852 47.6463 64.7088 47.6463C64.5312 47.6463 64.1829 47.8804 63.9353 48.1653ZM68.4428 47.8747C68.4428 48.0568 68.7311 48.4073 69.084 48.655C70.8628 49.9012 69.7919 53.7166 67.4544 54.4573L66.517 54.7547L67.5539 54.6088C69.4865 54.3385 70.787 52.0588 70.2057 49.9554C69.9332 48.966 68.4428 47.2075 68.4428 47.8747ZM37.2363 49.3731C36.257 50.4553 36.8055 51.7942 38.2269 51.7942C39.2198 51.7942 39.7083 51.2898 39.7083 50.2641C39.7083 48.9332 38.1444 48.37 37.2363 49.3731ZM39.1022 49.5562C39.7728 50.3637 39.3623 51.3396 38.3117 51.4413C37.4885 51.5216 37.3313 51.4244 37.1571 50.7289C36.8439 49.4816 38.3083 48.5984 39.1022 49.5562ZM7.49539 51.0535C7.49878 51.7048 7.55871 51.9367 7.62996 51.568C7.70007 51.1993 7.69781 50.6667 7.6243 50.3829C7.54967 50.1002 7.492 50.4021 7.49539 51.0535ZM30.1177 50.5503C30.0374 50.6803 30.4276 50.7866 30.9851 50.7866C31.5889 50.7866 31.8501 50.6927 31.6319 50.5548C31.1547 50.2517 30.3043 50.2483 30.1177 50.5503ZM29.0683 51.4527C28.5436 52.4342 28.6895 53.7245 29.394 54.3397L30.0408 54.904L29.5421 54.1723C28.9631 53.3197 28.8919 52.0644 29.3951 51.5623C29.5873 51.369 29.6654 51.1315 29.567 51.0331C29.4686 50.9347 29.2447 51.1236 29.0683 51.4527ZM32.3126 50.9653C32.307 51.0795 32.4551 51.5069 32.6406 51.9152C33.1201 52.9657 32.4891 54.4109 31.451 54.6382C30.1584 54.9209 30.0419 55.0046 30.9093 55.0295C32.6564 55.0781 33.8234 52.7418 32.7571 51.3317C32.5173 51.0162 32.3172 50.8511 32.3126 50.9653ZM7.95337 52.8685C8.30393 53.5221 9.44947 54.6111 9.601 54.4335C9.65754 54.3668 9.24252 53.8602 8.67824 53.3095C8.11395 52.7576 7.78827 52.5586 7.95337 52.8685ZM63.7023 53.7121C63.7023 54.0242 65.5535 54.783 66.0183 54.6608C66.4027 54.5591 66.3767 54.5206 65.9074 54.4946C65.5716 54.4754 65.0378 54.2639 64.7223 54.0253C64.1433 53.5865 63.7023 53.452 63.7023 53.7121ZM20.6764 55.2613C21.0428 55.3325 21.6421 55.3325 22.0096 55.2613C22.376 55.1912 22.0763 55.1335 21.3424 55.1335C20.6097 55.1335 20.31 55.1912 20.6764 55.2613ZM18.5606 56.2044C16.6857 58.1608 17.7679 62.4839 20.1234 62.4511C20.388 62.4477 20.2037 62.2476 19.714 62.0033C17.4015 60.8578 17.1482 57.7706 19.2233 56.0167C19.6552 55.6503 19.8678 55.3506 19.6948 55.3506C19.5218 55.3495 19.0107 55.734 18.5606 56.2044ZM23.6075 56.2542C25.3309 58.1393 25.0595 60.6407 22.9957 61.8993C22.4936 62.2057 22.2324 62.4568 22.4133 62.4568C25.1805 62.4658 25.9314 57.2674 23.3915 55.682C22.7933 55.3077 22.8284 55.4015 23.6075 56.2542ZM85.1791 57.4382C84.5277 57.7469 84.1647 58.0024 84.3739 58.007C84.8636 58.0171 86.8086 57.2063 86.8086 56.9926C86.8086 56.7382 86.4558 56.8343 85.1791 57.4382ZM4.60611 58.5283C6.33968 58.7793 7.05436 60.3308 6.18701 61.9592C5.8749 62.5439 5.8896 62.5676 6.33515 62.2001C7.7159 61.0613 6.51382 58.2705 4.67961 58.3553L3.71728 58.3994L4.60611 58.5283ZM2.85897 59.2464C1.77563 60.7933 2.83749 62.7881 4.7011 62.7067L5.79122 62.6592L4.75425 62.5416C3.17448 62.3629 2.28112 60.3105 3.32714 59.2633C3.52051 59.0711 3.6008 58.8359 3.50581 58.7409C3.41082 58.6459 3.12019 58.8732 2.85897 59.2464ZM71.0064 59.1491C69.8122 60.4677 70.9374 62.7542 72.7795 62.7542C73.717 62.7542 74.9598 61.7285 74.9586 60.9573C74.9575 60.7244 74.6929 60.9652 74.3695 61.4956C73.3167 63.2224 70.8119 62.545 70.8119 60.5321C70.8119 60.1974 71.0199 59.6275 71.2732 59.2656C71.8307 58.4684 71.6815 58.4028 71.0064 59.1491ZM74.2439 59.4216C74.7031 60.3772 74.9586 60.6271 74.9586 60.1205C74.9586 59.9757 74.694 59.5426 74.3695 59.1582L73.7803 58.4593L74.2439 59.4216ZM84.8647 62.182C81.5299 63.1511 79.5125 68.0974 81.1545 71.2829C82.7806 74.4391 86.5723 76.0483 89.3259 74.7501L90.2147 74.3317L89.3259 74.5409C80.736 76.5707 77.2667 64.9299 85.6801 62.3041C87.0766 61.8676 86.3314 61.7568 84.8647 62.182ZM89.1257 62.4444C90.9859 63.0776 92.3011 64.2254 93.0429 65.864C93.3381 66.5165 93.5891 66.8422 93.6004 66.5889C93.675 64.9378 90.0688 61.8213 88.1566 61.8869C87.823 61.8982 88.2584 62.1492 89.1257 62.4444ZM12.0854 65.0374C12.4518 65.1075 13.0523 65.1075 13.4187 65.0374C13.7851 64.9661 13.4854 64.9084 12.7526 64.9084C12.0187 64.9084 11.719 64.9661 12.0854 65.0374ZM10.2343 65.4083C7.25226 66.6499 6.1757 72.3606 8.6364 73.8816C8.85126 74.0139 8.7099 73.5978 8.32203 72.9554C6.80897 70.445 7.72947 67.0977 10.3078 65.7373C11.4137 65.1538 11.3651 64.9378 10.2343 65.4083ZM15.1172 65.7554C16.3577 66.5108 16.7546 66.9767 17.4852 68.5305C17.7916 69.1819 18.0495 69.5155 18.0585 69.2712C18.1037 68.0205 15.5537 65.121 14.4116 65.1256C14.2318 65.1256 14.5495 65.4094 15.1172 65.7554ZM1.36853 66.7743C1.11296 67.0299 0.919594 67.5964 0.938818 68.0329C0.972743 68.8177 0.976134 68.8166 1.16951 67.9379C1.34818 67.126 1.46465 67.0525 2.52651 67.0887C3.5827 67.1237 3.63698 67.0909 3.12698 66.7178C2.39985 66.1863 1.94186 66.201 1.36853 66.7743ZM74.0528 66.9191C73.2601 67.7118 73.4184 68.6911 74.4305 69.2565C75.0955 69.6285 75.3001 69.6398 75.6156 69.3164C75.9266 68.9964 75.9142 68.9365 75.5512 68.9851C74.1342 69.1762 73.3234 68.2467 74.0947 67.316C74.7302 66.5504 75.9651 66.9179 76.1822 67.9379C76.3676 68.8132 76.371 68.8143 76.405 68.0329C76.4739 66.486 75.1249 65.847 74.0528 66.9191ZM93.7056 68.5305C93.7078 69.3447 93.7655 69.6432 93.8334 69.1932C93.9023 68.7431 93.9001 68.0759 93.83 67.7118C93.7599 67.3476 93.7033 67.7163 93.7056 68.5305ZM3.46623 68.163C3.26833 68.9512 2.95622 69.0948 1.64332 69.0009C1.09487 68.9613 1.09035 68.9817 1.57548 69.2814C2.54573 69.8773 4.13342 68.7431 3.78625 67.7016C3.7218 67.5082 3.57818 67.7163 3.46623 68.163ZM93.0802 70.9053C92.8767 71.3519 92.7715 71.7783 92.8461 71.8529C93.0463 72.0542 93.6762 70.7695 93.5552 70.4066C93.4975 70.2335 93.2838 70.4586 93.0802 70.9053ZM17.1957 72.6026C16.6551 73.7176 16.1519 74.2842 15.3309 74.6992C14.7124 75.0113 14.2668 75.3279 14.3403 75.4014C14.9238 75.985 17.5632 73.3931 17.9454 71.8631C18.2428 70.6712 18.0302 70.8804 17.1957 72.6026ZM91.3795 73.2992C90.7383 73.885 90.4816 74.231 90.8073 74.067C91.3919 73.773 92.9728 72.2328 92.6901 72.2328C92.6098 72.2328 92.0195 72.7135 91.3795 73.2992ZM9.19729 74.4402C9.19729 74.5216 9.59761 74.7942 10.0861 75.0475C10.5746 75.2997 10.975 75.4399 10.975 75.3585C10.975 75.2771 10.5746 75.0045 10.0861 74.7512C9.59761 74.499 9.19729 74.3588 9.19729 74.4402ZM11.9418 75.7045C12.3919 75.7724 13.058 75.7701 13.4232 75.7C13.7873 75.6299 13.4187 75.5745 12.6045 75.5767C11.7892 75.579 11.4918 75.6367 11.9418 75.7045ZM81.3275 79.7608C80.3289 80.2052 78.8091 81.7126 79.3598 81.7126C79.5566 81.7126 79.7963 81.5079 79.8925 81.2569C80.0937 80.7333 81.5152 79.9349 82.8089 79.6194C83.614 79.4238 83.6276 79.4012 82.957 79.3842C82.5499 79.3741 81.8171 79.5437 81.3275 79.7608ZM84.7516 79.598C88.9617 81.0183 90.2362 85.5541 87.2361 88.4365C83.1266 92.3832 77.4385 88.5101 78.8849 82.7496L79.1077 81.8608L78.6304 82.7202C76.8143 85.9826 80.2181 90.6134 84.1546 90.2346C90.1785 89.6556 90.9215 80.3782 85.0151 79.4951C84.1613 79.3673 84.1184 79.3842 84.7516 79.598ZM6.34646 80.5038C5.67361 80.8091 5.02565 81.2162 4.90578 81.4096C4.78704 81.6041 5.33549 81.4175 6.12595 80.9968C9.4619 79.2203 13.603 80.6078 15.0086 83.972C15.2529 84.5567 15.5209 84.9672 15.6046 84.8835C15.8602 84.6279 14.6321 82.4997 13.7421 81.6538C11.9158 79.9214 8.72234 79.4238 6.34646 80.5038ZM3.56122 82.9712C2.70631 84.3622 2.30599 86.0833 2.5152 87.4674C2.84653 89.6522 3.12924 89.4034 3.02068 87.023C2.92569 84.923 2.99467 84.5488 3.69918 83.3467C4.58914 81.828 4.46815 81.4966 3.56122 82.9712ZM20.327 86.3253C19.7231 86.9292 19.7344 87.7558 20.3541 88.2669C20.8008 88.6356 20.8143 88.6118 20.4921 88.0068C20.0114 87.1056 20.5271 86.1557 21.4951 86.1557C22.8284 86.1557 22.8578 87.9933 21.5347 88.5282C21.0597 88.7193 21.0247 88.7894 21.3956 88.8029C22.5366 88.8459 23.2875 87.0343 22.4687 86.2156C21.97 85.7169 20.8799 85.7723 20.327 86.3253ZM92.8665 86.5809C92.499 87.1406 92.4673 87.4369 92.7218 87.913C93.1775 88.7634 93.2499 88.6899 93.2103 87.4143C93.1809 86.4508 93.2725 86.2902 93.9012 86.202C94.8534 86.0675 95.4979 86.8975 95.0671 87.7038C94.8975 88.0204 94.8308 88.3529 94.919 88.4411C95.0083 88.5293 95.2401 88.2522 95.4346 87.8248C96.1663 86.219 93.8413 85.0927 92.8665 86.5809ZM15.2868 88.5259C14.8876 89.8433 13.6618 91.3677 12.4518 92.0473C11.1525 92.7778 10.9704 92.9927 11.8446 92.7631C13.3588 92.3673 15.9834 89.1659 15.6329 88.1425C15.5661 87.9458 15.4101 88.1188 15.2868 88.5259ZM3.51486 90.1554C4.11307 91.3383 6.26843 92.987 7.17875 92.9554C7.39248 92.9486 7.03514 92.6647 6.38378 92.3244C5.73129 91.984 4.75199 91.2229 4.20692 90.6338C3.66186 90.0446 3.34975 89.8286 3.51486 90.1554ZM22.0696 93.1035C21.1807 93.9923 21.1423 95.0044 21.9565 96.0391C22.8804 97.2129 24.8786 97.0919 25.5378 95.822C25.859 95.2057 25.8499 95.2057 25.1409 95.8571C23.8665 97.0264 22.1272 96.5933 21.7823 95.0203C21.3481 93.0447 23.9162 91.8573 25.1726 93.4529C25.5096 93.8826 25.7866 94.0828 25.7866 93.8973C25.7866 92.468 23.2479 91.9252 22.0696 93.1035ZM72.412 93.6802C71.8579 94.2343 71.4101 94.9332 71.418 95.2351C71.4259 95.5947 71.6283 95.4081 72.006 94.6934C72.3227 94.0941 72.8496 93.5185 73.1776 93.4145C73.5055 93.3104 73.7746 93.1012 73.7746 92.9486C73.7746 92.4691 73.4478 92.6433 72.412 93.6802ZM77.4057 93.6576C78.9753 95.2283 79.0161 97.265 77.5064 98.7746C76.9523 99.3287 76.6017 99.7822 76.7261 99.7822C78.765 99.7822 79.5916 95.2261 77.8389 93.6486C76.6051 92.5392 76.293 92.546 77.4057 93.6576ZM89.9648 93.2143C89.4616 93.7696 89.2885 95.485 89.7081 95.7451C89.837 95.8243 89.889 95.4262 89.8223 94.8608C89.7409 94.1597 89.8698 93.6463 90.2271 93.2516C90.5155 92.9339 90.684 92.6726 90.6026 92.6726C90.5212 92.6726 90.2339 92.9169 89.9648 93.2143ZM7.82898 93.1804C8.02575 93.3772 10.3948 93.3523 10.595 93.1521C10.6764 93.0696 10.0533 93.0074 9.20973 93.0142C8.365 93.0209 7.74417 93.0956 7.82898 93.1804ZM93.0079 96.1047C92.7432 96.4236 92.2615 96.5412 91.5152 96.47C90.909 96.4123 90.4759 96.4666 90.5528 96.5921C90.8457 97.0648 92.646 96.8149 93.1775 96.228C93.4715 95.9012 93.6423 95.6354 93.5552 95.6354C93.4681 95.6354 93.2216 95.8469 93.0079 96.1047ZM10.1517 97.6076C9.12492 98.1142 7.7159 99.5956 7.7159 100.169C7.7159 100.357 8.1377 99.9982 8.65336 99.3728C9.16902 98.7475 10.1359 97.9932 10.8008 97.6969C11.4669 97.4007 11.8118 97.1519 11.5675 97.144C11.3233 97.1361 10.6866 97.3452 10.1517 97.6076ZM14.6773 97.6902C16.1259 98.3404 16.8915 99.1636 17.5496 100.774C17.8255 101.45 18.0585 101.813 18.0675 101.579C18.1297 99.9846 15.3954 97.0625 13.9106 97.1372C13.681 97.1485 14.0259 97.3973 14.6773 97.6902ZM71.4214 97.3283C71.4022 97.7399 73.1199 99.7822 73.4863 99.7822C73.6197 99.7822 73.3721 99.4102 72.9367 98.9556C72.5013 98.5021 71.9868 97.8688 71.7923 97.5488C71.5978 97.2299 71.4316 97.1304 71.4214 97.3283ZM74.5922 99.9914C74.9609 100.063 75.4935 100.059 75.7774 99.9858C76.0601 99.9111 75.7593 99.8534 75.1068 99.8568C74.4554 99.8602 74.2236 99.9213 74.5922 99.9914ZM28.3038 100.657C27.5598 100.965 26.2186 102.387 26.4515 102.621C26.5477 102.717 26.7806 102.508 26.9683 102.156C27.1572 101.804 27.8673 101.269 28.5481 100.966C29.7377 100.437 29.5161 100.155 28.3038 100.657ZM29.9334 100.512C29.9334 100.586 30.4456 100.785 31.071 100.954C31.9067 101.18 32.3545 101.533 32.7616 102.287C33.0647 102.851 33.3632 103.264 33.4231 103.204C33.7545 102.873 32.4235 101.16 31.5527 100.795C30.5293 100.368 29.9334 100.264 29.9334 100.512ZM63.8719 100.84C62.1011 102.61 64.4328 105.767 66.5068 104.407C67.9916 103.434 68.1601 101.08 66.7827 100.552C66.5215 100.452 66.6086 100.722 67.0145 101.273C68.2494 102.942 66.5351 105.06 64.6726 104.166C63.4388 103.576 63.138 102.365 63.9511 101.265C64.6613 100.304 64.6217 100.09 63.8719 100.84ZM83.2827 100.819C82.7286 101.068 82.3588 101.356 82.4606 101.458C82.5635 101.56 82.8643 101.463 83.1312 101.242C86.1279 98.7543 90.4827 103.809 87.7223 106.571C84.8851 109.407 80.1978 105.955 82.084 102.417C82.4289 101.77 82.4187 101.743 81.9687 102.114C81.1398 102.798 81.3003 105.452 82.2389 106.567C84.5617 109.329 88.8814 107.788 88.8814 104.198C88.8814 101.328 86.0069 99.5934 83.2827 100.819ZM7.30427 101.139C7.07245 101.742 7.10751 103.339 7.36647 103.992C7.47729 104.272 7.56889 103.638 7.56889 102.586C7.56889 100.486 7.56437 100.462 7.30427 101.139ZM26.1632 104.225C26.1632 104.959 26.2209 105.259 26.291 104.892C26.3622 104.525 26.3622 103.926 26.291 103.559C26.2209 103.193 26.1632 103.492 26.1632 104.225ZM57.762 103.353C57.4375 103.558 57.5167 103.625 58.0889 103.628C58.505 103.632 59.0241 103.8 59.2434 104.004C59.5589 104.296 59.5985 104.296 59.4345 104.005C59.0885 103.392 58.2302 103.057 57.762 103.353ZM17.5304 104.378C16.55 107.09 13.5612 108.356 10.5305 107.344C10.1268 107.21 10.1732 107.291 10.6787 107.601C13.0444 109.052 17.216 107.072 17.9454 104.152C18.2326 103.001 17.9782 103.14 17.5304 104.378ZM56.7827 104.373C56.3937 105.388 57.5789 106.496 58.678 106.148C59.2955 105.951 60.0169 104.885 59.7274 104.595C59.6324 104.5 59.5555 104.569 59.5555 104.748C59.5555 105.202 58.7052 106.003 58.2223 106.003C57.5562 106.003 56.854 105.099 57.0474 104.491C57.2577 103.828 57.0304 103.728 56.7827 104.373ZM7.94998 105.262C8.26322 105.871 9.78985 107.42 9.78985 107.128C9.78985 107.039 9.30698 106.45 8.71782 105.817C8.12752 105.186 7.78262 104.937 7.94998 105.262ZM32.6756 106.159C31.4566 108.018 28.7109 108.135 27.0893 106.395C26.3633 105.618 26.3385 105.612 26.7388 106.299C27.7011 107.956 30.1833 108.46 31.8863 107.345C32.6123 106.869 33.6595 105.483 33.4503 105.275C33.3858 105.209 33.0375 105.608 32.6756 106.159ZM38.9687 107.654C37.5032 108.418 35.7832 110.471 36.2321 110.92C36.3 110.988 36.594 110.599 36.8857 110.057C38.6781 106.728 44.174 106.756 45.7684 110.101C46.0342 110.657 46.3316 111.032 46.43 110.933C46.7952 110.568 44.9995 108.364 43.8675 107.786C42.454 107.065 40.2149 107.005 38.9687 107.654ZM71.2563 107.654C69.6663 108.481 67.7156 111.003 68.2517 111.539C68.3376 111.625 68.6124 111.205 68.8634 110.604C70.2725 107.232 74.5323 106.45 77.2915 109.057C78.0695 109.792 78.2166 109.856 77.9531 109.345C77.0258 107.547 73.2816 106.6 71.2563 107.654ZM55.5106 109.784C55.3217 109.904 56.275 110.002 57.6286 110.002C58.9811 110.002 59.9355 109.904 59.7478 109.784C59.5612 109.665 58.6079 109.566 57.6297 109.566C56.6527 109.566 55.6983 109.665 55.5106 109.784ZM53.6164 110.818C53.0725 111.184 52.3782 111.951 52.074 112.521C51.5673 113.469 51.5662 113.495 52.0581 112.822C52.7592 111.863 53.3314 111.3 54.2305 110.683C54.6342 110.408 54.8841 110.175 54.7857 110.166C54.6873 110.156 54.1615 110.45 53.6164 110.818ZM60.8888 110.567C62.2503 111.647 62.9288 112.428 63.3212 113.367C63.5497 113.913 63.8165 114.282 63.9138 114.186C64.2643 113.834 62.3363 111.201 61.3287 110.656C60.6536 110.29 60.5009 110.259 60.8888 110.567ZM19.0367 110.908C18.1071 111.56 17.492 112.886 17.492 114.239C17.492 117.563 21.6184 119.304 23.8868 116.936C24.8933 115.885 24.6286 115.778 23.5917 116.815C20.8245 119.582 16.3249 115.709 18.3028 112.263C20.1381 109.065 25.2529 111.023 24.7768 114.741C24.6501 115.735 24.6773 115.822 24.9464 115.279C26.3724 112.401 21.7688 108.995 19.0367 110.908ZM78.6621 112.669C78.6621 114.905 77.7099 116.372 75.5342 117.491C74.8105 117.863 74.5515 118.084 74.9586 117.981C77.7269 117.283 80.1254 113.098 78.8792 111.141C78.7594 110.953 78.6621 111.64 78.6621 112.669ZM35.9426 112.668C35.9449 113.482 36.0026 113.781 36.0704 113.331C36.1383 112.88 36.136 112.213 36.0659 111.849C35.9958 111.485 35.9404 111.853 35.9426 112.668ZM46.6019 112.816C46.6019 113.549 46.6607 113.849 46.7308 113.482C46.8009 113.116 46.8009 112.517 46.7308 112.149C46.6607 111.783 46.6019 112.082 46.6019 112.816ZM51.1444 114.173C50.8934 114.828 50.9284 117.928 51.1919 118.341C51.3118 118.53 51.409 117.563 51.409 116.194C51.409 113.49 51.409 113.486 51.1444 114.173ZM68.3082 114.371C68.7843 115.938 71.8873 118.652 72.5025 118.038C72.585 117.955 72.1847 117.69 71.6102 117.45C70.2962 116.902 69.3972 116.009 68.8566 114.716C68.384 113.584 67.995 113.34 68.3082 114.371ZM36.1586 114.475C36.1428 115.56 39.619 118.632 40.2025 118.049C40.2918 117.959 39.9175 117.686 39.3702 117.44C38.081 116.862 37.6129 116.45 36.8168 115.185C36.4583 114.615 36.162 114.296 36.1586 114.475ZM45.7571 115.233C45.1612 116.387 44.6704 116.828 43.3055 117.44C42.7582 117.686 42.3861 117.961 42.4777 118.053C42.8158 118.391 45.3059 116.638 45.9369 115.617C46.2954 115.037 46.517 114.49 46.4288 114.402C46.3418 114.315 46.0387 114.688 45.7571 115.233ZM64.0902 116.222C64.0925 117.2 64.1479 117.565 64.2135 117.032C64.279 116.499 64.2779 115.7 64.2101 115.254C64.1433 114.81 64.0891 115.245 64.0902 116.222ZM63.3959 118.922C62.9537 120.091 61.6838 121.392 60.4862 121.905C59.9389 122.139 59.5669 122.405 59.6585 122.496C59.7501 122.589 60.4274 122.311 61.1636 121.879C62.4414 121.13 64.3039 118.65 63.8946 118.242C63.7984 118.145 63.5734 118.451 63.3959 118.922ZM29.5285 119.058C27.6988 120.498 29.5794 124.074 31.5787 122.955C31.8761 122.789 31.6828 122.71 30.9771 122.71C29.1689 122.71 28.4 120.73 29.6755 119.359C30.1584 118.841 30.5101 118.723 31.1716 118.855C31.7043 118.961 31.9666 118.916 31.8558 118.736C31.5527 118.244 30.3518 118.41 29.5285 119.058ZM32.48 119.481C32.6033 119.807 32.705 120.406 32.705 120.815C32.705 121.222 32.6033 121.821 32.48 122.147C32.2584 122.731 32.2618 122.731 32.7231 122.165C32.981 121.848 33.1913 121.241 33.1913 120.815C33.1913 120.387 32.981 119.78 32.7231 119.463C32.2618 118.897 32.2584 118.897 32.48 119.481ZM52.0977 119.926C52.6891 120.951 55.2539 122.844 55.5931 122.506C55.6892 122.409 55.3206 122.139 54.7744 121.905C53.7962 121.486 53.3484 121.103 52.1181 119.629L51.4995 118.889L52.0977 119.926ZM37.3878 121.879C36.4085 122.565 36.5928 124.104 37.6999 124.491C39.2831 125.045 40.3257 123.209 39.1157 121.999C38.4011 121.284 38.2529 121.274 37.3878 121.879ZM39.0569 122.355C40.0012 123.299 38.8308 124.713 37.6355 124.072C37.0678 123.768 36.8235 122.613 37.2397 122.196C37.562 121.874 38.6736 121.971 39.0569 122.355ZM56.8212 122.806C57.3527 122.872 58.1533 122.87 58.5977 122.803C59.0433 122.736 58.6079 122.682 57.6297 122.683C56.6527 122.685 56.2886 122.74 56.8212 122.806Z" fill="#E4E1E1"/>
</svg>
