<svg width="563" height="65" viewBox="0 0 563 65" fill="none" xmlns="http://www.w3.org/2000/svg">
<path d="M163.288 18.4748V47.1116H170.445C172.271 47.0845 174.073 46.6923 175.745 45.9581C177.417 45.2238 178.924 44.1626 180.178 42.837C182.75 40.1195 184.158 36.5072 184.101 32.7695C184.155 30.913 183.842 29.064 183.178 27.3288C182.514 25.5936 181.513 24.0064 180.232 22.6584C178.974 21.3309 177.456 20.2747 175.773 19.5545C174.089 18.8344 172.276 18.4657 170.445 18.4712H163.292L163.288 18.4748ZM170.445 9.496C183.783 9.496 193.874 19.8074 193.874 32.7695C193.874 45.7316 183.783 56.1013 170.445 56.1013H154.661C154.51 56.0994 154.362 56.0679 154.223 56.0087C154.085 55.9495 153.96 55.8637 153.855 55.7562C153.75 55.6486 153.667 55.5215 153.611 55.3821C153.555 55.2426 153.527 55.0936 153.529 54.9434V10.7012C153.529 10.0604 154.037 9.53969 154.661 9.53969L170.445 9.496ZM228.255 48.1092C234.313 48.1274 239.784 44.4099 242.116 38.6898C243.258 35.8951 243.563 32.8297 242.995 29.8653C242.426 26.9009 241.008 24.1647 238.911 21.9884C236.852 19.8478 234.19 18.3809 231.278 17.7815C228.365 17.1821 225.339 17.4785 222.599 18.6314C217 20.9908 213.344 26.5725 213.333 32.7695C213.333 41.2167 220 48.0692 228.255 48.1092ZM228.259 8.4401C242.298 8.4401 253.031 19.4797 253.031 32.7695C253.031 46.0593 242.298 57.0989 228.255 57.0989C214.216 57.0989 203.574 46.1139 203.574 32.7695C203.574 19.4251 214.311 8.4401 228.259 8.4401ZM287.135 48.1092C295.394 48.0874 302.076 41.2277 302.069 32.7804C302.058 24.3259 295.361 17.4808 287.106 17.4772C278.844 17.4772 272.143 24.3187 272.132 32.7695C272.132 36.8402 273.712 40.7434 276.526 43.6198C277.903 45.0374 279.551 46.165 281.373 46.9361C283.195 47.7072 285.156 48.1061 287.135 48.1092ZM287.131 8.4401C301.127 8.4401 311.86 19.4251 311.86 32.7695C311.86 46.1139 301.083 57.0989 287.131 57.0989C273.183 57.0989 262.359 46.1139 262.359 32.7695C262.359 19.4251 273.092 8.4401 287.131 8.4401ZM344.595 18.4748H334.505V30.7997H344.595C345.393 30.835 346.189 30.7068 346.934 30.4231C347.68 30.1394 348.36 29.7063 348.931 29.1503C350.099 28.0216 350.763 26.456 350.777 24.8102C350.807 23.9753 350.667 23.143 350.366 22.3634C350.065 21.5838 349.609 20.8729 349.026 20.2735C348.453 19.6835 347.763 19.2197 347 18.9118C346.237 18.6039 345.418 18.4588 344.595 18.4857V18.4748ZM324.742 10.7012C324.742 10.0604 325.253 9.53969 325.877 9.53969H344.876C353.934 9.53969 360.489 16.3302 360.489 24.8575C360.558 30.6249 357.401 35.9227 352.361 38.5042L361.124 54.3536C361.245 54.5358 361.313 54.7479 361.321 54.9664C361.329 55.1849 361.275 55.4013 361.167 55.5916C361.062 55.7788 360.905 55.9319 360.714 56.0326C360.524 56.1333 360.309 56.1774 360.094 56.1596H352.405C352.192 56.1626 351.982 56.1054 351.8 55.9946C351.618 55.8838 351.471 55.7239 351.376 55.5333L342.931 39.8477H334.468V54.907C334.471 55.0575 334.443 55.2069 334.388 55.3468C334.332 55.4867 334.249 55.6142 334.144 55.7221C334.039 55.83 333.914 55.9162 333.775 55.9756C333.637 56.0351 333.488 56.0666 333.337 56.0685H325.928C325.778 56.0666 325.629 56.0351 325.49 55.9756C325.352 55.9162 325.226 55.83 325.121 55.7221C325.016 55.6142 324.933 55.4867 324.878 55.3468C324.822 55.2069 324.795 55.0575 324.797 54.907L324.746 10.7048L324.742 10.7012ZM385.932 18.6933V47.3337H393.085C394.911 47.309 396.714 46.9193 398.386 46.1876C400.058 45.4558 401.567 44.397 402.822 43.0737C405.396 40.3593 406.806 36.7497 406.752 33.0135C406.811 31.1547 406.5 29.3027 405.838 27.5643C405.176 25.8258 404.176 24.2352 402.895 22.8841C401.634 21.5544 400.113 20.4969 398.427 19.7767C396.74 19.0565 394.924 18.689 393.089 18.6969L385.932 18.6933ZM393.085 9.70354C406.424 9.70354 416.515 20.0259 416.515 33.0135C416.515 46.0011 406.424 56.3234 393.085 56.3234H377.349C377.198 56.3215 377.049 56.2899 376.911 56.2305C376.772 56.171 376.647 56.0849 376.542 55.977C376.436 55.8691 376.354 55.7415 376.298 55.6017C376.243 55.4618 376.215 55.3124 376.218 55.1619V10.9233C376.218 10.2788 376.725 9.75815 377.349 9.75815L393.085 9.70354ZM446.279 21.0927L440.743 36.4069H451.805L446.279 21.0927ZM437.495 45.0617L433.871 55.2566C433.799 55.4964 433.648 55.7054 433.443 55.8504C433.238 55.9954 432.991 56.0683 432.74 56.0576H424.879C424.679 56.0762 424.477 56.0407 424.296 55.9549C424.114 55.8691 423.959 55.736 423.846 55.5697C423.731 55.4015 423.662 55.2065 423.645 55.0037C423.628 54.8009 423.663 54.597 423.748 54.4119L440.732 10.2133C440.811 9.9802 440.965 9.77935 441.169 9.64131C441.373 9.50327 441.617 9.43562 441.864 9.44866H450.659C450.906 9.43481 451.15 9.50208 451.355 9.64017C451.56 9.77826 451.714 9.97957 451.794 10.2133L468.778 54.4119C468.862 54.5973 468.897 54.8013 468.879 55.0042C468.861 55.207 468.791 55.4018 468.676 55.5697C468.563 55.7353 468.408 55.8677 468.226 55.9529C468.044 56.038 467.843 56.073 467.643 56.054H459.786C459.535 56.0647 459.288 55.9918 459.083 55.8468C458.878 55.7017 458.727 55.4928 458.655 55.2529L455.031 45.058H437.495V45.0617ZM477.891 22.0867C477.891 14.7682 484.073 8.4401 493.835 8.4401C499.092 8.32297 504.182 10.285 507.995 13.898C508.111 14.0076 508.204 14.1397 508.267 14.2862C508.33 14.4327 508.363 14.5905 508.363 14.75C508.363 14.9095 508.33 15.0674 508.267 15.2139C508.204 15.3604 508.111 15.4924 507.995 15.602L503.641 20.0259C503.537 20.1334 503.412 20.2188 503.274 20.2772C503.136 20.3356 502.988 20.3656 502.838 20.3656C502.688 20.3656 502.54 20.3356 502.402 20.2772C502.264 20.2188 502.14 20.1334 502.035 20.0259C499.985 18.1082 497.291 17.0217 494.481 16.9783C490.576 16.9783 487.689 19.2977 487.689 21.9738C487.689 30.6249 510.765 25.6331 510.765 42.2799C510.754 50.7162 504.524 57.0989 493.51 57.0989C490.452 57.1302 487.418 56.5474 484.59 55.3852C481.762 54.223 479.197 52.5052 477.048 50.3339C476.932 50.2243 476.839 50.0922 476.776 49.9457C476.712 49.7992 476.68 49.6414 476.68 49.4819C476.68 49.3224 476.712 49.1645 476.776 49.018C476.839 48.8715 476.932 48.7395 477.048 48.6299L481.259 44.3189C481.364 44.2062 481.491 44.1163 481.632 44.0548C481.774 43.9933 481.926 43.9616 482.08 43.9616C482.234 43.9616 482.387 43.9933 482.528 44.0548C482.67 44.1163 482.797 44.2062 482.901 44.3189C485.552 46.9402 489.121 48.4289 492.853 48.4697C497.733 48.4697 500.948 45.8044 500.948 42.4656C500.948 33.8109 477.883 38.8064 477.883 22.1559M552.609 10.6429V28.1345H533.077V10.6429C533.079 10.4928 533.052 10.3437 532.996 10.2043C532.94 10.0648 532.857 9.93772 532.752 9.83021C532.647 9.72269 532.522 9.63687 532.384 9.57765C532.245 9.51843 532.097 9.48697 531.946 9.48507H524.538C524.387 9.48697 524.239 9.51843 524.1 9.57765C523.962 9.63687 523.837 9.72269 523.732 9.83021C523.627 9.93772 523.544 10.0648 523.488 10.2043C523.432 10.3437 523.405 10.4928 523.406 10.6429V54.8342C523.406 55.475 523.917 55.9957 524.538 55.9957H531.946C532.567 55.9957 533.077 55.475 533.077 54.8342V37.0659H552.595V54.8342C552.595 55.475 553.106 55.9957 553.726 55.9957H561.134C561.758 55.9957 562.266 55.475 562.266 54.8342V10.6429C562.267 10.4928 562.24 10.3437 562.184 10.2043C562.128 10.0648 562.045 9.93772 561.94 9.83021C561.835 9.72269 561.71 9.63687 561.572 9.57765C561.433 9.51843 561.285 9.48697 561.134 9.48507H553.726C553.425 9.49271 553.138 9.61853 552.929 9.83526C552.72 10.052 552.605 10.3422 552.609 10.6429ZM111.944 15.3836C106.806 5.88044 96.7516 -0.0362433 85.8179 0.000167088H3.09262C2.53395 0.00242958 1.9883 0.168657 1.52366 0.478138C1.05902 0.787619 0.695927 1.22667 0.479626 1.74058C0.266487 2.2512 0.210976 2.81368 0.320203 3.35596C0.429431 3.89825 0.698424 4.39566 1.09273 4.78449L19.1136 22.6256C20.7048 24.2058 22.8725 25.0906 25.1279 25.0906H83.4458C87.6025 25.0469 91.0001 28.3311 91.0439 32.42C91.0877 36.5089 87.7557 39.8586 83.599 39.8987H43.3933C42.8342 39.8989 42.2875 40.0634 41.8216 40.3716C41.3556 40.6798 40.9909 41.1181 40.773 41.6318C40.5578 42.143 40.5008 42.7067 40.6094 43.2505C40.7181 43.7943 40.9873 44.2932 41.3824 44.683L59.4143 62.5387C61.0154 64.1181 63.1769 65.0027 65.4285 65H83.6136C107.273 65 125.162 40.0953 111.944 15.3726" fill="#E4E1E1"/>
</svg>
