<svg width="260" height="80" viewBox="0 0 260 80" fill="none" xmlns="http://www.w3.org/2000/svg">
<path d="M107.512 58.8879L115.758 0H126.026L120.581 38.5844L115.835 37.4176L138.706 16.5695H152.319L134.272 33.6058L146.718 58.8879H135.672L124.937 36.9508L130.538 35.7062L115.835 49.3974L119.958 43.1741L117.78 58.8879H107.512Z" fill="#E4E1E1"/>
<path d="M61.4062 58.8886L67.3184 16.5702H76.8867L75.7976 24.8939L75.1753 23.1825C76.5237 20.5894 78.3647 18.6965 80.6985 17.5037C83.0322 16.259 85.6252 15.6367 88.4776 15.6367C91.693 15.6367 94.4156 16.3887 96.6457 17.8927C98.9275 19.3966 100.587 21.4451 101.624 24.0382C102.713 26.5793 103.025 29.4576 102.558 32.673L98.9016 58.8886H88.711L92.2116 33.8399C92.5746 31.1431 92.0819 28.9909 90.7335 27.3832C89.3852 25.7755 87.4663 24.9717 84.977 24.9717C83.3174 24.9717 81.7616 25.3606 80.3095 26.1385C78.9093 26.8646 77.7424 27.9018 76.8089 29.2502C75.9273 30.5986 75.3309 32.2062 75.0197 34.0732L71.5969 58.8886H61.4062Z" fill="#E4E1E1"/>
<path d="M41.6484 58.888L47.5606 16.5696H57.829L51.9169 58.888H41.6484ZM48.1829 11.8244L49.7387 0.933594H60.0072L58.5291 11.8244H48.1829Z" fill="#E4E1E1"/>
<path d="M0.265625 58.888L8.35591 0.933594H18.9355L12.1677 49.5531H36.9831L35.6606 58.888H0.265625Z" fill="#E4E1E1"/>
<path d="M153.266 59L161.439 0H171.464L168.071 24.9406L166.914 23.2259C168.251 20.6279 170.076 18.7314 172.389 17.5363C174.703 16.2893 177.273 15.6658 180.1 15.6658C183.288 15.6658 185.986 16.4192 188.197 17.926C190.459 19.4328 192.104 21.4852 193.132 24.0832C194.212 26.6292 194.52 29.513 194.057 32.7345L190.433 59H180.332L183.725 33.9036C184.136 31.2017 183.673 29.0454 182.337 27.4346C181 25.8239 179.098 25.0185 176.63 25.0185C174.985 25.0185 173.469 25.4082 172.081 26.1876C170.693 26.915 169.536 27.9542 168.611 29.3052C167.685 30.6561 167.069 32.2668 166.76 34.1374L163.367 59H153.266Z" fill="#E4E1E1" fill-opacity="0.59"/>
<path d="M180.424 80C177.082 80 174.28 79.235 172.017 77.705C169.755 76.1223 168.135 73.9329 167.158 71.1367C166.233 68.3405 166.027 65.0695 166.541 61.3237L170.012 36H180.193L176.722 61.482C176.465 63.2758 176.594 64.8585 177.108 66.2302C177.622 67.6019 178.47 68.6571 179.653 69.3957C180.836 70.1343 182.25 70.5036 183.895 70.5036C185.592 70.5036 187.109 70.1343 188.446 69.3957C189.834 68.6043 190.991 67.5228 191.917 66.1511C192.894 64.7266 193.485 63.0911 193.691 61.2446L197.162 36H207.266L201.404 79.0504H191.84L192.919 70.5827L193.614 72.3237C192.328 74.9616 190.503 76.9137 188.137 78.1799C185.824 79.3933 183.253 80 180.424 80Z" fill="#E4E1E1" fill-opacity="0.6"/>
<path d="M236.693 60C233.395 60 230.406 59.3758 227.726 58.1274C225.098 56.827 223.088 55.0325 221.697 52.7438L223.011 50.8713L221.928 59.0637H212.266L220.46 0H230.664L227.262 25.0455L224.479 22.7828C226.129 20.4941 228.216 18.7516 230.741 17.5553C233.318 16.3069 236.152 15.6827 239.244 15.6827C243.161 15.6827 246.614 16.619 249.603 18.4915C252.592 20.3121 254.937 22.7828 256.637 25.9038C258.39 29.0247 259.266 32.5358 259.266 36.4369C259.266 39.6619 258.673 42.7048 257.488 45.5657C256.354 48.4265 254.756 50.9493 252.695 53.1339C250.633 55.2666 248.237 56.9571 245.506 58.2055C242.774 59.4018 239.837 60 236.693 60ZM235.688 50.6372C238.214 50.6372 240.455 50.013 242.414 48.7646C244.372 47.4642 245.892 45.7477 246.975 43.6151C248.108 41.4824 248.675 39.1157 248.675 36.515C248.675 34.2783 248.211 32.3017 247.284 30.5852C246.408 28.8687 245.171 27.5163 243.573 26.528C241.976 25.5397 240.069 25.0455 237.853 25.0455C235.379 25.0455 233.163 25.6957 231.205 26.9961C229.298 28.2445 227.803 29.935 226.721 32.0676C225.639 34.2003 225.098 36.567 225.098 39.1677C225.098 41.4044 225.536 43.407 226.412 45.1756C227.34 46.8921 228.602 48.2445 230.2 49.2328C231.797 50.169 233.627 50.6372 235.688 50.6372Z" fill="#E4E1E1"/>
</svg>
