<svg width="30" height="25" viewBox="0 0 30 25" fill="none" xmlns="http://www.w3.org/2000/svg">
<path d="M13.7549 0.500001L22.2061 0.5L29.284 12.0336H26.4429L20.7856 2.72809H18.3397L23.6016 12.0336H15.1343L8.0625 0.500001L10.9037 0.500001L16.5548 9.7163H19.1603L13.7549 0.500001Z" fill="black"/>
<path d="M10.9038 19.8651L15.1343 12.9602H29.284L27.8634 15.2775H16.5549L15.0859 17.6281L26.4427 17.5948L22.2059 24.4997H8.0625L9.48309 22.1765H20.7853L22.2109 19.8572L10.9038 19.8651Z" fill="black"/>
<path d="M4.2368 19.4015L0 12.4966L7.07796 0.963032L8.49856 3.27444L2.84738 12.4966L4.29488 14.8568L9.91915 5.5977L14.1497 12.4967L7.07796 24.0362L5.65741 21.713L11.3085 12.4967L9.90919 10.1082L4.2368 19.4015Z" fill="black"/>
</svg>
