<svg width="20" height="20" viewBox="0 0 20 20" fill="none" xmlns="http://www.w3.org/2000/svg">
<g clip-path="url(#clip0_2233_8368)">
<path d="M18.5186 0H1.47559C0.65918 0 -0.000976562 0.644531 -0.000976562 1.44141V18.5547C-0.000976562 19.3516 0.65918 20 1.47559 20H18.5186C19.335 20 19.999 19.3516 19.999 18.5586V1.44141C19.999 0.644531 19.335 0 18.5186 0ZM5.93262 17.043H2.96387V7.49609H5.93262V17.043ZM4.44824 6.19531C3.49512 6.19531 2.72559 5.42578 2.72559 4.47656C2.72559 3.52734 3.49512 2.75781 4.44824 2.75781C5.39746 2.75781 6.16699 3.52734 6.16699 4.47656C6.16699 5.42188 5.39746 6.19531 4.44824 6.19531ZM17.042 17.043H14.0771V12.4023C14.0771 11.2969 14.0576 9.87109 12.5342 9.87109C10.9912 9.87109 10.7568 11.0781 10.7568 12.3242V17.043H7.7959V7.49609H10.6396V8.80078H10.6787C11.0732 8.05078 12.042 7.25781 13.4834 7.25781C16.4873 7.25781 17.042 9.23438 17.042 11.8047V17.043Z" fill="white" fill-opacity="0.25"/>
</g>
<defs>
<clipPath id="clip0_2233_8368">
<rect width="20" height="20" fill="white" transform="translate(-0.000976562)"/>
</clipPath>
</defs>
</svg>
